<mxfile host="Electron" agent="Mozilla/5.0 (Windows NT 10.0; Win64; x64) AppleWebKit/537.36 (KHTML, like Gecko) draw.io/28.0.4 Chrome/138.0.7204.97 Electron/37.2.1 Safari/537.36" version="28.0.4">
  <diagram name="Page-1" id="gNzt2hSFvFVwd9LeMgkx">
    <mxGraphModel dx="1209" dy="868" grid="1" gridSize="10" guides="1" tooltips="1" connect="1" arrows="1" fold="1" page="1" pageScale="1" pageWidth="850" pageHeight="1100" background="none" math="0" shadow="0">
      <root>
        <mxCell id="0" />
        <mxCell id="1" parent="0" />
        <mxCell id="vLmNjl7TnNPS4ZGKRvqN-1" value="" style="rounded=0;whiteSpace=wrap;html=1;fillColor=none;dashed=1;" parent="1" vertex="1">
          <mxGeometry x="120" y="140" width="120" height="420" as="geometry" />
        </mxCell>
        <mxCell id="vLmNjl7TnNPS4ZGKRvqN-2" value="Sources" style="rounded=0;whiteSpace=wrap;html=1;strokeColor=none;" parent="1" vertex="1">
          <mxGeometry x="147.5" y="130" width="65" height="20" as="geometry" />
        </mxCell>
        <mxCell id="vLmNjl7TnNPS4ZGKRvqN-4" value="" style="rounded=0;whiteSpace=wrap;html=1;fillColor=none;dashed=1;" parent="1" vertex="1">
          <mxGeometry x="320" y="140" width="500" height="420" as="geometry" />
        </mxCell>
        <mxCell id="vLmNjl7TnNPS4ZGKRvqN-5" value="Data Warehouse" style="rounded=0;whiteSpace=wrap;html=1;strokeColor=none;" parent="1" vertex="1">
          <mxGeometry x="537.5" y="130" width="65" height="20" as="geometry" />
        </mxCell>
        <mxCell id="vLmNjl7TnNPS4ZGKRvqN-6" value="" style="rounded=0;whiteSpace=wrap;html=1;fillColor=none;dashed=1;" parent="1" vertex="1">
          <mxGeometry x="910" y="140" width="140" height="420" as="geometry" />
        </mxCell>
        <mxCell id="vLmNjl7TnNPS4ZGKRvqN-7" value="Consume" style="rounded=0;whiteSpace=wrap;html=1;strokeColor=none;" parent="1" vertex="1">
          <mxGeometry x="947.5" y="130" width="65" height="20" as="geometry" />
        </mxCell>
        <mxCell id="vLmNjl7TnNPS4ZGKRvqN-8" value="&lt;font style=&quot;color: rgb(0, 0, 0);&quot;&gt;&lt;b&gt;Bronze Layer&lt;/b&gt;&lt;/font&gt;" style="rounded=0;whiteSpace=wrap;html=1;fillColor=#a0522d;strokeColor=#6D1F00;fontColor=#ffffff;" parent="1" vertex="1">
          <mxGeometry x="350" y="170" width="120" height="20" as="geometry" />
        </mxCell>
        <mxCell id="vLmNjl7TnNPS4ZGKRvqN-9" value="" style="rounded=0;whiteSpace=wrap;html=1;fillColor=none;strokeColor=#6D1F00;fontColor=#ffffff;" parent="1" vertex="1">
          <mxGeometry x="350" y="190" width="120" height="330" as="geometry" />
        </mxCell>
        <mxCell id="vLmNjl7TnNPS4ZGKRvqN-10" value="&lt;font style=&quot;color: rgb(0, 0, 0);&quot;&gt;&lt;b&gt;Silver Layer&lt;/b&gt;&lt;/font&gt;" style="rounded=0;whiteSpace=wrap;html=1;fillColor=#d0cee2;strokeColor=#56517e;" parent="1" vertex="1">
          <mxGeometry x="510" y="170" width="120" height="20" as="geometry" />
        </mxCell>
        <mxCell id="vLmNjl7TnNPS4ZGKRvqN-11" value="" style="rounded=0;whiteSpace=wrap;html=1;fillColor=none;strokeColor=#56517e;" parent="1" vertex="1">
          <mxGeometry x="510" y="190" width="120" height="330" as="geometry" />
        </mxCell>
        <mxCell id="vLmNjl7TnNPS4ZGKRvqN-12" value="&lt;font style=&quot;color: rgb(0, 0, 0);&quot;&gt;&lt;b&gt;Gold Layer&lt;/b&gt;&lt;/font&gt;" style="rounded=0;whiteSpace=wrap;html=1;fillColor=#ffcd28;gradientColor=#ffa500;strokeColor=#d79b00;" parent="1" vertex="1">
          <mxGeometry x="670" y="170" width="120" height="20" as="geometry" />
        </mxCell>
        <mxCell id="vLmNjl7TnNPS4ZGKRvqN-13" value="" style="rounded=0;whiteSpace=wrap;html=1;fillColor=none;strokeColor=#d79b00;gradientColor=#ffa500;" parent="1" vertex="1">
          <mxGeometry x="670" y="190" width="120" height="330" as="geometry" />
        </mxCell>
        <mxCell id="vLmNjl7TnNPS4ZGKRvqN-14" value="&lt;b&gt;CRM&lt;/b&gt;" style="image;aspect=fixed;html=1;points=[];align=center;fontSize=12;image=img/lib/azure2/general/Folder_Blank.svg;" parent="1" vertex="1">
          <mxGeometry x="157.82" y="250" width="44.36" height="36" as="geometry" />
        </mxCell>
        <mxCell id="vLmNjl7TnNPS4ZGKRvqN-15" value="" style="image;aspect=fixed;html=1;points=[];align=center;fontSize=12;image=img/lib/azure2/general/File.svg;" parent="1" vertex="1">
          <mxGeometry x="191.39999999999998" y="260" width="21.1" height="26" as="geometry" />
        </mxCell>
        <mxCell id="vLmNjl7TnNPS4ZGKRvqN-17" value="&lt;b&gt;ERP&lt;/b&gt;" style="image;aspect=fixed;html=1;points=[];align=center;fontSize=12;image=img/lib/azure2/general/Folder_Blank.svg;" parent="1" vertex="1">
          <mxGeometry x="157.82" y="340" width="44.36" height="36" as="geometry" />
        </mxCell>
        <mxCell id="vLmNjl7TnNPS4ZGKRvqN-18" value="" style="image;aspect=fixed;html=1;points=[];align=center;fontSize=12;image=img/lib/azure2/general/File.svg;" parent="1" vertex="1">
          <mxGeometry x="191.4" y="350" width="21.1" height="26" as="geometry" />
        </mxCell>
        <mxCell id="vLmNjl7TnNPS4ZGKRvqN-24" value="" style="endArrow=none;html=1;rounded=0;strokeColor=#666666;fillColor=#f5f5f5;gradientColor=#b3b3b3;" parent="1" edge="1">
          <mxGeometry width="50" height="50" relative="1" as="geometry">
            <mxPoint x="150" y="430" as="sourcePoint" />
            <mxPoint x="210" y="430" as="targetPoint" />
            <Array as="points">
              <mxPoint x="210" y="430" />
            </Array>
          </mxGeometry>
        </mxCell>
        <mxCell id="vLmNjl7TnNPS4ZGKRvqN-25" value="&lt;font style=&quot;font-size: 7px;&quot;&gt;&lt;b&gt;Object Type&lt;/b&gt;: CSV Files&lt;/font&gt;&lt;div&gt;&lt;font style=&quot;font-size: 7px;&quot;&gt;&lt;b&gt;Interface&lt;/b&gt;: Files in Folder&lt;/font&gt;&lt;/div&gt;" style="text;html=1;align=center;verticalAlign=middle;whiteSpace=wrap;rounded=0;" parent="1" vertex="1">
          <mxGeometry x="140" y="440" width="80" height="30" as="geometry" />
        </mxCell>
        <mxCell id="vLmNjl7TnNPS4ZGKRvqN-26" value="" style="html=1;verticalLabelPosition=bottom;align=center;labelBackgroundColor=#ffffff;verticalAlign=top;strokeWidth=2;strokeColor=#b85450;shadow=0;dashed=0;shape=mxgraph.ios7.icons.data;fillColor=#f8cecc;" parent="1" vertex="1">
          <mxGeometry x="398.5" y="243.45000000000002" width="24" height="29.099999999999998" as="geometry" />
        </mxCell>
        <mxCell id="vLmNjl7TnNPS4ZGKRvqN-27" value="" style="html=1;verticalLabelPosition=bottom;align=center;labelBackgroundColor=#ffffff;verticalAlign=top;strokeWidth=2;strokeColor=#6c8ebf;shadow=0;dashed=0;shape=mxgraph.ios7.icons.data;fillColor=#dae8fc;" parent="1" vertex="1">
          <mxGeometry x="558" y="243.45000000000002" width="24" height="29.099999999999998" as="geometry" />
        </mxCell>
        <mxCell id="vLmNjl7TnNPS4ZGKRvqN-28" value="" style="html=1;verticalLabelPosition=bottom;align=center;labelBackgroundColor=#ffffff;verticalAlign=top;strokeWidth=2;strokeColor=#d79b00;shadow=0;dashed=0;shape=mxgraph.ios7.icons.data;fillColor=#ffcd28;gradientColor=#ffa500;" parent="1" vertex="1">
          <mxGeometry x="718" y="243.45000000000002" width="24" height="29.099999999999998" as="geometry" />
        </mxCell>
        <mxCell id="vLmNjl7TnNPS4ZGKRvqN-29" value="" style="shape=flexArrow;endArrow=classic;html=1;rounded=0;fillColor=#b1ddf0;strokeColor=#10739e;" parent="1" edge="1">
          <mxGeometry width="50" height="50" relative="1" as="geometry">
            <mxPoint x="260" y="340" as="sourcePoint" />
            <mxPoint x="310" y="340" as="targetPoint" />
          </mxGeometry>
        </mxCell>
        <mxCell id="vLmNjl7TnNPS4ZGKRvqN-30" value="&lt;font style=&quot;font-size: 10px;&quot;&gt;Raw Data&lt;/font&gt;" style="text;html=1;align=center;verticalAlign=middle;whiteSpace=wrap;rounded=0;" parent="1" vertex="1">
          <mxGeometry x="380" y="287" width="60" height="30" as="geometry" />
        </mxCell>
        <mxCell id="vLmNjl7TnNPS4ZGKRvqN-31" value="&lt;font style=&quot;font-size: 10px;&quot;&gt;Clean, Standardized Data&lt;/font&gt;" style="text;html=1;align=center;verticalAlign=middle;whiteSpace=wrap;rounded=0;" parent="1" vertex="1">
          <mxGeometry x="527.5" y="286" width="85" height="30" as="geometry" />
        </mxCell>
        <mxCell id="vLmNjl7TnNPS4ZGKRvqN-32" value="&lt;font style=&quot;font-size: 10px;&quot;&gt;Business-Ready Data&lt;/font&gt;" style="text;html=1;align=center;verticalAlign=middle;whiteSpace=wrap;rounded=0;" parent="1" vertex="1">
          <mxGeometry x="700" y="287" width="60" height="30" as="geometry" />
        </mxCell>
        <mxCell id="vLmNjl7TnNPS4ZGKRvqN-34" value="" style="endArrow=none;html=1;rounded=0;entryX=0.833;entryY=0.727;entryDx=0;entryDy=0;entryPerimeter=0;" parent="1" edge="1">
          <mxGeometry width="50" height="50" relative="1" as="geometry">
            <mxPoint x="375.02000000000004" y="316.09000000000003" as="sourcePoint" />
            <mxPoint x="444.97999999999985" y="316" as="targetPoint" />
          </mxGeometry>
        </mxCell>
        <mxCell id="vLmNjl7TnNPS4ZGKRvqN-38" value="" style="endArrow=none;html=1;rounded=0;entryX=0.833;entryY=0.727;entryDx=0;entryDy=0;entryPerimeter=0;" parent="1" edge="1">
          <mxGeometry width="50" height="50" relative="1" as="geometry">
            <mxPoint x="535.02" y="320.09000000000003" as="sourcePoint" />
            <mxPoint x="604.9799999999998" y="320" as="targetPoint" />
          </mxGeometry>
        </mxCell>
        <mxCell id="vLmNjl7TnNPS4ZGKRvqN-39" value="" style="endArrow=none;html=1;rounded=0;entryX=0.833;entryY=0.727;entryDx=0;entryDy=0;entryPerimeter=0;" parent="1" edge="1">
          <mxGeometry width="50" height="50" relative="1" as="geometry">
            <mxPoint x="695.02" y="320.09000000000003" as="sourcePoint" />
            <mxPoint x="764.9799999999998" y="320" as="targetPoint" />
          </mxGeometry>
        </mxCell>
        <mxCell id="vLmNjl7TnNPS4ZGKRvqN-42" value="" style="shape=flexArrow;endArrow=classic;html=1;rounded=0;fillColor=#b1ddf0;strokeColor=#10739e;" parent="1" edge="1">
          <mxGeometry width="50" height="50" relative="1" as="geometry">
            <mxPoint x="450" y="340" as="sourcePoint" />
            <mxPoint x="500" y="340" as="targetPoint" />
          </mxGeometry>
        </mxCell>
        <mxCell id="vLmNjl7TnNPS4ZGKRvqN-43" value="" style="shape=flexArrow;endArrow=classic;html=1;rounded=0;fillColor=#b1ddf0;strokeColor=#10739e;" parent="1" edge="1">
          <mxGeometry width="50" height="50" relative="1" as="geometry">
            <mxPoint x="620" y="340" as="sourcePoint" />
            <mxPoint x="670" y="340" as="targetPoint" />
          </mxGeometry>
        </mxCell>
        <mxCell id="vLmNjl7TnNPS4ZGKRvqN-44" value="&lt;div style=&quot;line-height: 0%;&quot;&gt;&lt;p&gt;&lt;font style=&quot;font-size: 6px;&quot;&gt;Object Type: Tables&lt;/font&gt;&lt;/p&gt;&lt;p&gt;&lt;font style=&quot;font-size: 6px;&quot;&gt;Load:&lt;/font&gt;&lt;/p&gt;&lt;p&gt;&lt;font style=&quot;font-size: 6px;&quot;&gt;Batch Processing&lt;/font&gt;&lt;/p&gt;&lt;p&gt;&lt;font style=&quot;font-size: 6px;&quot;&gt;Full Load&lt;/font&gt;&lt;/p&gt;&lt;p&gt;&lt;font style=&quot;font-size: 6px;&quot;&gt;Truncate &amp;amp; Insert&lt;/font&gt;&lt;/p&gt;&lt;p&gt;&lt;font style=&quot;font-size: 6px;&quot;&gt;No Transformations&lt;/font&gt;&lt;/p&gt;&lt;p&gt;&lt;span style=&quot;background-color: transparent; color: light-dark(rgb(0, 0, 0), rgb(255, 255, 255));&quot;&gt;&lt;font style=&quot;font-size: 6px;&quot;&gt;Data Model: None&amp;nbsp; &amp;nbsp;(as-is)&lt;/font&gt;&lt;/span&gt;&lt;/p&gt;&lt;/div&gt;" style="text;html=1;align=left;verticalAlign=middle;whiteSpace=wrap;rounded=0;" parent="1" vertex="1">
          <mxGeometry x="368.25" y="350" width="83.5" height="90" as="geometry" />
        </mxCell>
        <mxCell id="vLmNjl7TnNPS4ZGKRvqN-45" value="&lt;div style=&quot;line-height: 0%;&quot;&gt;&lt;p&gt;&lt;font style=&quot;font-size: 6px;&quot;&gt;Object Type: Tables&lt;/font&gt;&lt;/p&gt;&lt;p&gt;&lt;font style=&quot;font-size: 6px;&quot;&gt;Load:&lt;/font&gt;&lt;/p&gt;&lt;p&gt;&lt;/p&gt;&lt;ul style=&quot;line-height: 80%;&quot;&gt;&lt;li&gt;&lt;font style=&quot;font-size: 6px; line-height: 80%;&quot;&gt;Batch Processing&lt;/font&gt;&lt;/li&gt;&lt;li&gt;&lt;font style=&quot;font-size: 6px; line-height: 80%;&quot;&gt;Full Load&lt;/font&gt;&lt;/li&gt;&lt;li&gt;&lt;font style=&quot;font-size: 6px; line-height: 80%;&quot;&gt;Truncate &amp;amp; Insert&lt;/font&gt;&lt;/li&gt;&lt;/ul&gt;&lt;p&gt;&lt;/p&gt;&lt;p&gt;&lt;font style=&quot;font-size: 6px;&quot;&gt;Transformations:&lt;/font&gt;&lt;/p&gt;&lt;p&gt;&lt;/p&gt;&lt;ul style=&quot;line-height: 90%;&quot;&gt;&lt;li&gt;&lt;font style=&quot;font-size: 6px; line-height: 90%;&quot;&gt;Data Cleansing&lt;/font&gt;&lt;/li&gt;&lt;li&gt;&lt;font style=&quot;font-size: 6px; line-height: 90%;&quot;&gt;Data Standardization&lt;/font&gt;&lt;/li&gt;&lt;li&gt;&lt;font style=&quot;font-size: 6px; line-height: 90%;&quot;&gt;Data Normalization&lt;/font&gt;&lt;/li&gt;&lt;li&gt;&lt;font style=&quot;font-size: 6px; line-height: 90%;&quot;&gt;Derived Columns&lt;/font&gt;&lt;/li&gt;&lt;li&gt;&lt;font style=&quot;font-size: 6px; line-height: 90%;&quot;&gt;Data Enrichment&lt;/font&gt;&lt;/li&gt;&lt;li&gt;&lt;font style=&quot;font-size: 6px; line-height: 90%;&quot;&gt;Data Model: None (as-is)&lt;/font&gt;&lt;/li&gt;&lt;/ul&gt;&lt;p&gt;&lt;/p&gt;&lt;/div&gt;" style="text;html=1;align=left;verticalAlign=middle;whiteSpace=wrap;rounded=0;" parent="1" vertex="1">
          <mxGeometry x="515" y="330" width="110" height="190" as="geometry" />
        </mxCell>
        <mxCell id="vLmNjl7TnNPS4ZGKRvqN-47" value="&lt;div style=&quot;line-height: 0%;&quot;&gt;&lt;div style=&quot;--animation-duration: 400ms; --fade-animation-function: linear; animation: 0s ease 0s 1 normal none running none; appearance: none; background: none 0% 0% / auto repeat scroll padding-box border-box rgba(0, 0, 0, 0); border: 0px none rgb(27, 28, 29); inset: auto; clear: none; clip: auto; columns: auto; contain: none; container: none; content: normal; cursor: auto; cx: 0px; cy: 0px; d: none; direction: ltr; fill: rgb(0, 0, 0); filter: none; flex: 0 1 auto; float: none; gap: normal; hyphens: manual; interactivity: auto; isolation: auto; margin-right: 0px; margin-bottom: 0px; margin-left: 0px; marker: none; mask: none; offset: normal; opacity: 1; order: 0; outline: rgb(27, 28, 29) none 0px; overlay: none; padding: 0px; page: auto; perspective: none; position: static; quotes: auto; r: 0px; resize: none; rotate: none; rx: auto; ry: auto; scale: none; speak: normal; stroke: none; transform: none; transition: all; translate: none; visibility: visible; x: 0px; y: 0px; zoom: 1; margin-top: 0px !important; font-family: &amp;quot;Google Sans Text&amp;quot;, sans-serif !important;&quot; dir=&quot;ltr&quot; id=&quot;model-response-message-contentr_d8366e79cef1df75&quot; class=&quot;markdown markdown-main-panel stronger enable-updated-hr-color&quot;&gt;&lt;p style=&quot;animation: 0s ease 0s 1 normal none running none; appearance: none; background: none 0% 0% / auto repeat scroll padding-box border-box rgba(0, 0, 0, 0); border: 0px none rgb(27, 28, 29); inset: auto; clear: none; clip: auto; columns: auto; contain: none; container: none; content: normal; cursor: auto; cx: 0px; cy: 0px; d: none; direction: ltr; fill: rgb(0, 0, 0); filter: none; flex: 0 1 auto; float: none; gap: normal; hyphens: manual; interactivity: auto; isolation: auto; margin-right: 0px; margin-bottom: 16px; margin-left: 0px; marker: none; mask: none; offset: normal; opacity: 1; order: 0; outline: rgb(27, 28, 29) none 0px; overlay: none; padding: 0px; page: auto; perspective: none; position: static; quotes: auto; r: 0px; resize: none; rotate: none; rx: auto; ry: auto; scale: none; speak: normal; stroke: none; transform: none; transition: all; translate: none; visibility: visible; x: 0px; y: 0px; zoom: 1; margin-top: 0px !important;&quot;&gt;&lt;font style=&quot;font-size: 6px; color: rgb(255, 255, 255);&quot;&gt;&lt;b style=&quot;animation: 0s ease 0s 1 normal none running none; appearance: none; background: none 0% 0% / auto repeat scroll padding-box border-box rgba(0, 0, 0, 0); border: 0px none rgb(27, 28, 29); inset: auto; clear: none; clip: auto; columns: auto; contain: none; container: none; content: normal; cursor: auto; cx: 0px; cy: 0px; d: none; direction: ltr; display: inline; fill: rgb(0, 0, 0); filter: none; flex: 0 1 auto; float: none; gap: normal; hyphens: manual; interactivity: auto; isolation: auto; margin-right: 0px; margin-bottom: 0px; margin-left: 0px; marker: none; mask: none; offset: normal; opacity: 1; order: 0; outline: rgb(27, 28, 29) none 0px; overlay: none; padding: 0px; page: auto; perspective: none; position: static; quotes: auto; r: 0px; resize: none; rotate: none; rx: auto; ry: auto; scale: none; speak: normal; stroke: none; transform: none; transition: all; translate: none; visibility: visible; x: 0px; y: 0px; zoom: 1; margin-top: 0px !important;&quot;&gt;Object Type:&lt;/b&gt; Views&lt;/font&gt;&lt;/p&gt;&lt;p style=&quot;animation: 0s ease 0s 1 normal none running none; appearance: none; background: none 0% 0% / auto repeat scroll padding-box border-box rgba(0, 0, 0, 0); border: 0px none rgb(27, 28, 29); inset: auto; clear: none; clip: auto; columns: auto; contain: none; container: none; content: normal; cursor: auto; cx: 0px; cy: 0px; d: none; direction: ltr; fill: rgb(0, 0, 0); filter: none; flex: 0 1 auto; float: none; gap: normal; hyphens: manual; interactivity: auto; isolation: auto; margin-right: 0px; margin-bottom: 16px; margin-left: 0px; marker: none; mask: none; offset: normal; opacity: 1; order: 0; outline: rgb(27, 28, 29) none 0px; overlay: none; padding: 0px; page: auto; perspective: none; position: static; quotes: auto; r: 0px; resize: none; rotate: none; rx: auto; ry: auto; scale: none; speak: normal; stroke: none; transform: none; transition: all; translate: none; visibility: visible; x: 0px; y: 0px; zoom: 1; margin-top: 0px !important;&quot;&gt;&lt;b style=&quot;animation: 0s ease 0s 1 normal none running none; appearance: none; background: none 0% 0% / auto repeat scroll padding-box border-box rgba(0, 0, 0, 0); border: 0px none rgb(27, 28, 29); inset: auto; clear: none; clip: auto; columns: auto; contain: none; container: none; content: normal; cursor: auto; cx: 0px; cy: 0px; d: none; direction: ltr; display: inline; fill: rgb(0, 0, 0); filter: none; flex: 0 1 auto; float: none; gap: normal; hyphens: manual; interactivity: auto; isolation: auto; margin-right: 0px; margin-bottom: 0px; margin-left: 0px; marker: none; mask: none; offset: normal; opacity: 1; order: 0; outline: rgb(27, 28, 29) none 0px; overlay: none; padding: 0px; page: auto; perspective: none; position: static; quotes: auto; r: 0px; resize: none; rotate: none; rx: auto; ry: auto; scale: none; speak: normal; stroke: none; transform: none; transition: all; translate: none; visibility: visible; x: 0px; y: 0px; zoom: 1; margin-top: 0px !important;&quot;&gt;&lt;font style=&quot;font-size: 6px; color: rgb(255, 255, 255);&quot;&gt;No Load&lt;/font&gt;&lt;/b&gt;&lt;/p&gt;&lt;p style=&quot;animation: 0s ease 0s 1 normal none running none; appearance: none; background: none 0% 0% / auto repeat scroll padding-box border-box rgba(0, 0, 0, 0); border: 0px none rgb(27, 28, 29); inset: auto; clear: none; clip: auto; columns: auto; contain: none; container: none; content: normal; cursor: auto; cx: 0px; cy: 0px; d: none; direction: ltr; fill: rgb(0, 0, 0); filter: none; flex: 0 1 auto; float: none; gap: normal; hyphens: manual; interactivity: auto; isolation: auto; margin-right: 0px; margin-bottom: 8px; margin-left: 0px; marker: none; mask: none; offset: normal; opacity: 1; order: 0; outline: rgb(27, 28, 29) none 0px; overlay: none; padding: 0px; page: auto; perspective: none; position: static; quotes: auto; r: 0px; resize: none; rotate: none; rx: auto; ry: auto; scale: none; speak: normal; stroke: none; transform: none; transition: all; translate: none; visibility: visible; x: 0px; y: 0px; zoom: 1; margin-top: 0px !important;&quot;&gt;&lt;b style=&quot;animation: 0s ease 0s 1 normal none running none; appearance: none; background: none 0% 0% / auto repeat scroll padding-box border-box rgba(0, 0, 0, 0); border: 0px none rgb(27, 28, 29); inset: auto; clear: none; clip: auto; columns: auto; contain: none; container: none; content: normal; cursor: auto; cx: 0px; cy: 0px; d: none; direction: ltr; display: inline; fill: rgb(0, 0, 0); filter: none; flex: 0 1 auto; float: none; gap: normal; hyphens: manual; interactivity: auto; isolation: auto; margin-right: 0px; margin-bottom: 0px; margin-left: 0px; marker: none; mask: none; offset: normal; opacity: 1; order: 0; outline: rgb(27, 28, 29) none 0px; overlay: none; padding: 0px; page: auto; perspective: none; position: static; quotes: auto; r: 0px; resize: none; rotate: none; rx: auto; ry: auto; scale: none; speak: normal; stroke: none; transform: none; transition: all; translate: none; visibility: visible; x: 0px; y: 0px; zoom: 1; margin-top: 0px !important;&quot;&gt;&lt;font style=&quot;font-size: 6px; color: rgb(255, 255, 255);&quot;&gt;Transformations:&lt;/font&gt;&lt;/b&gt;&lt;/p&gt;&lt;ul style=&quot;animation: 0s ease 0s 1 normal none running none; appearance: none; background: none 0% 0% / auto repeat scroll padding-box border-box rgba(0, 0, 0, 0); border: 0px none rgb(27, 28, 29); inset: auto; clear: none; clip: auto; columns: auto; contain: none; container: none; content: normal; cursor: auto; cx: 0px; cy: 0px; d: none; direction: ltr; fill: rgb(0, 0, 0); filter: none; flex: 0 1 auto; float: none; gap: normal; hyphens: manual; interactivity: auto; isolation: auto; margin-right: 0px; margin-bottom: 16px; margin-left: 0px; marker: none; mask: none; offset: normal; opacity: 1; order: 0; outline: rgb(27, 28, 29) none 0px; overlay: none; padding: 0px 0px 0px 27px; page: auto; perspective: none; position: static; quotes: auto; r: 0px; resize: none; rotate: none; rx: auto; ry: auto; scale: none; speak: normal; stroke: none; transform: none; transition: all; translate: none; visibility: visible; x: 0px; y: 0px; zoom: 1; padding-inline-start: 32px; margin-top: 0px !important;&quot;&gt;&lt;li style=&quot;animation: 0s ease 0s 1 normal none running none; appearance: none; background: none 0% 0% / auto repeat scroll padding-box border-box rgba(0, 0, 0, 0); border: 0px none rgb(27, 28, 29); inset: auto; clear: none; clip: auto; columns: auto; contain: none; container: none; content: normal; cursor: auto; cx: 0px; cy: 0px; d: none; direction: ltr; fill: rgb(0, 0, 0); filter: none; flex: 0 1 auto; float: none; gap: normal; hyphens: manual; interactivity: auto; isolation: auto; margin-right: 0px; margin-bottom: 8px; margin-left: 0px; marker: none; mask: none; offset: normal; opacity: 1; order: 0; outline: rgb(27, 28, 29) none 0px; overlay: none; padding: 0px 0px 0px 4px; page: auto; perspective: none; position: static; quotes: auto; r: 0px; resize: none; rotate: none; rx: auto; ry: auto; scale: none; speak: normal; stroke: none; transform: none; transition: all; translate: none; visibility: visible; x: 0px; y: 0px; zoom: 1; margin-top: 0px !important;&quot;&gt;&lt;p style=&quot;animation: 0s ease 0s 1 normal none running none; appearance: none; background: none 0% 0% / auto repeat scroll padding-box border-box rgba(0, 0, 0, 0); border: 0px none rgb(27, 28, 29); inset: auto; clear: none; clip: auto; columns: auto; contain: none; container: none; content: normal; cursor: auto; cx: 0px; cy: 0px; d: none; direction: ltr; fill: rgb(0, 0, 0); filter: none; flex: 0 1 auto; float: none; gap: normal; hyphens: manual; interactivity: auto; isolation: auto; margin-right: 0px; margin-bottom: 8px; margin-left: 0px; marker: none; mask: none; offset: normal; opacity: 1; order: 0; outline: rgb(27, 28, 29) none 0px; overlay: none; padding: 0px 0px 0px 4px; page: auto; perspective: none; position: static; quotes: auto; r: 0px; resize: none; rotate: none; rx: auto; ry: auto; scale: none; speak: normal; stroke: none; transform: none; transition: all; translate: none; visibility: visible; x: 0px; y: 0px; zoom: 1; margin-top: 0px !important;&quot;&gt;&lt;font style=&quot;font-size: 6px; color: rgb(255, 255, 255);&quot;&gt;Data Integrations&lt;/font&gt;&lt;/p&gt;&lt;/li&gt;&lt;li style=&quot;animation: 0s ease 0s 1 normal none running none; appearance: none; background: none 0% 0% / auto repeat scroll padding-box border-box rgba(0, 0, 0, 0); border: 0px none rgb(27, 28, 29); inset: auto; clear: none; clip: auto; columns: auto; contain: none; container: none; content: normal; cursor: auto; cx: 0px; cy: 0px; d: none; direction: ltr; fill: rgb(0, 0, 0); filter: none; flex: 0 1 auto; float: none; gap: normal; hyphens: manual; interactivity: auto; isolation: auto; margin-right: 0px; margin-bottom: 8px; margin-left: 0px; marker: none; mask: none; offset: normal; opacity: 1; order: 0; outline: rgb(27, 28, 29) none 0px; overlay: none; padding: 0px 0px 0px 4px; page: auto; perspective: none; position: static; quotes: auto; r: 0px; resize: none; rotate: none; rx: auto; ry: auto; scale: none; speak: normal; stroke: none; transform: none; transition: all; translate: none; visibility: visible; x: 0px; y: 0px; zoom: 1; margin-top: 0px !important;&quot;&gt;&lt;p style=&quot;animation: 0s ease 0s 1 normal none running none; appearance: none; background: none 0% 0% / auto repeat scroll padding-box border-box rgba(0, 0, 0, 0); border: 0px none rgb(27, 28, 29); inset: auto; clear: none; clip: auto; columns: auto; contain: none; container: none; content: normal; cursor: auto; cx: 0px; cy: 0px; d: none; direction: ltr; fill: rgb(0, 0, 0); filter: none; flex: 0 1 auto; float: none; gap: normal; hyphens: manual; interactivity: auto; isolation: auto; margin-right: 0px; margin-bottom: 8px; margin-left: 0px; marker: none; mask: none; offset: normal; opacity: 1; order: 0; outline: rgb(27, 28, 29) none 0px; overlay: none; padding: 0px 0px 0px 4px; page: auto; perspective: none; position: static; quotes: auto; r: 0px; resize: none; rotate: none; rx: auto; ry: auto; scale: none; speak: normal; stroke: none; transform: none; transition: all; translate: none; visibility: visible; x: 0px; y: 0px; zoom: 1; margin-top: 0px !important;&quot;&gt;&lt;font style=&quot;font-size: 6px; color: rgb(255, 255, 255);&quot;&gt;Aggregations&lt;/font&gt;&lt;/p&gt;&lt;/li&gt;&lt;li style=&quot;animation: 0s ease 0s 1 normal none running none; appearance: none; background: none 0% 0% / auto repeat scroll padding-box border-box rgba(0, 0, 0, 0); border: 0px none rgb(27, 28, 29); inset: auto; clear: none; clip: auto; columns: auto; contain: none; container: none; content: normal; cursor: auto; cx: 0px; cy: 0px; d: none; direction: ltr; fill: rgb(0, 0, 0); filter: none; flex: 0 1 auto; float: none; gap: normal; hyphens: manual; interactivity: auto; isolation: auto; margin-right: 0px; margin-bottom: 8px; margin-left: 0px; marker: none; mask: none; offset: normal; opacity: 1; order: 0; outline: rgb(27, 28, 29) none 0px; overlay: none; padding: 0px 0px 0px 4px; page: auto; perspective: none; position: static; quotes: auto; r: 0px; resize: none; rotate: none; rx: auto; ry: auto; scale: none; speak: normal; stroke: none; transform: none; transition: all; translate: none; visibility: visible; x: 0px; y: 0px; zoom: 1; margin-top: 0px !important;&quot;&gt;&lt;p style=&quot;animation: 0s ease 0s 1 normal none running none; appearance: none; background: none 0% 0% / auto repeat scroll padding-box border-box rgba(0, 0, 0, 0); border: 0px none rgb(27, 28, 29); inset: auto; clear: none; clip: auto; columns: auto; contain: none; container: none; content: normal; cursor: auto; cx: 0px; cy: 0px; d: none; direction: ltr; fill: rgb(0, 0, 0); filter: none; flex: 0 1 auto; float: none; gap: normal; hyphens: manual; interactivity: auto; isolation: auto; margin-right: 0px; margin-bottom: 8px; margin-left: 0px; marker: none; mask: none; offset: normal; opacity: 1; order: 0; outline: rgb(27, 28, 29) none 0px; overlay: none; padding: 0px 0px 0px 4px; page: auto; perspective: none; position: static; quotes: auto; r: 0px; resize: none; rotate: none; rx: auto; ry: auto; scale: none; speak: normal; stroke: none; transform: none; transition: all; translate: none; visibility: visible; x: 0px; y: 0px; zoom: 1; margin-top: 0px !important;&quot;&gt;&lt;font style=&quot;font-size: 6px; color: rgb(255, 255, 255);&quot;&gt;Business Logics&lt;/font&gt;&lt;/p&gt;&lt;/li&gt;&lt;/ul&gt;&lt;p style=&quot;animation: 0s ease 0s 1 normal none running none; appearance: none; background: none 0% 0% / auto repeat scroll padding-box border-box rgba(0, 0, 0, 0); border: 0px none rgb(27, 28, 29); inset: auto; clear: none; clip: auto; columns: auto; contain: none; container: none; content: normal; cursor: auto; cx: 0px; cy: 0px; d: none; direction: ltr; fill: rgb(0, 0, 0); filter: none; flex: 0 1 auto; float: none; gap: normal; hyphens: manual; interactivity: auto; isolation: auto; margin-right: 0px; margin-bottom: 8px; margin-left: 0px; marker: none; mask: none; offset: normal; opacity: 1; order: 0; outline: rgb(27, 28, 29) none 0px; overlay: none; padding: 0px; page: auto; perspective: none; position: static; quotes: auto; r: 0px; resize: none; rotate: none; rx: auto; ry: auto; scale: none; speak: normal; stroke: none; transform: none; transition: all; translate: none; visibility: visible; x: 0px; y: 0px; zoom: 1; margin-top: 0px !important;&quot;&gt;&lt;b style=&quot;animation: 0s ease 0s 1 normal none running none; appearance: none; background: none 0% 0% / auto repeat scroll padding-box border-box rgba(0, 0, 0, 0); border: 0px none rgb(27, 28, 29); inset: auto; clear: none; clip: auto; columns: auto; contain: none; container: none; content: normal; cursor: auto; cx: 0px; cy: 0px; d: none; direction: ltr; display: inline; fill: rgb(0, 0, 0); filter: none; flex: 0 1 auto; float: none; gap: normal; hyphens: manual; interactivity: auto; isolation: auto; margin-right: 0px; margin-bottom: 0px; margin-left: 0px; marker: none; mask: none; offset: normal; opacity: 1; order: 0; outline: rgb(27, 28, 29) none 0px; overlay: none; padding: 0px; page: auto; perspective: none; position: static; quotes: auto; r: 0px; resize: none; rotate: none; rx: auto; ry: auto; scale: none; speak: normal; stroke: none; transform: none; transition: all; translate: none; visibility: visible; x: 0px; y: 0px; zoom: 1; margin-top: 0px !important;&quot;&gt;&lt;font style=&quot;font-size: 6px; color: rgb(255, 255, 255);&quot;&gt;Data Model:&lt;/font&gt;&lt;/b&gt;&lt;/p&gt;&lt;ul style=&quot;animation: 0s ease 0s 1 normal none running none; appearance: none; background: none 0% 0% / auto repeat scroll padding-box border-box rgba(0, 0, 0, 0); border: 0px none rgb(27, 28, 29); inset: auto; clear: none; clip: auto; columns: auto; contain: none; container: none; content: normal; cursor: auto; cx: 0px; cy: 0px; d: none; direction: ltr; fill: rgb(0, 0, 0); filter: none; flex: 0 1 auto; float: none; gap: normal; hyphens: manual; interactivity: auto; isolation: auto; margin-right: 0px; margin-bottom: 16px; margin-left: 0px; marker: none; mask: none; offset: normal; opacity: 1; order: 0; outline: rgb(27, 28, 29) none 0px; overlay: none; padding: 0px 0px 0px 27px; page: auto; perspective: none; position: static; quotes: auto; r: 0px; resize: none; rotate: none; rx: auto; ry: auto; scale: none; speak: normal; stroke: none; transform: none; transition: all; translate: none; visibility: visible; x: 0px; y: 0px; zoom: 1; padding-inline-start: 32px; margin-top: 0px !important;&quot;&gt;&lt;li style=&quot;animation: 0s ease 0s 1 normal none running none; appearance: none; background: none 0% 0% / auto repeat scroll padding-box border-box rgba(0, 0, 0, 0); border: 0px none rgb(27, 28, 29); inset: auto; clear: none; clip: auto; columns: auto; contain: none; container: none; content: normal; cursor: auto; cx: 0px; cy: 0px; d: none; direction: ltr; fill: rgb(0, 0, 0); filter: none; flex: 0 1 auto; float: none; gap: normal; hyphens: manual; interactivity: auto; isolation: auto; margin-right: 0px; margin-bottom: 8px; margin-left: 0px; marker: none; mask: none; offset: normal; opacity: 1; order: 0; outline: rgb(27, 28, 29) none 0px; overlay: none; padding: 0px 0px 0px 4px; page: auto; perspective: none; position: static; quotes: auto; r: 0px; resize: none; rotate: none; rx: auto; ry: auto; scale: none; speak: normal; stroke: none; transform: none; transition: all; translate: none; visibility: visible; x: 0px; y: 0px; zoom: 1; margin-top: 0px !important;&quot;&gt;&lt;p style=&quot;animation: 0s ease 0s 1 normal none running none; appearance: none; background: none 0% 0% / auto repeat scroll padding-box border-box rgba(0, 0, 0, 0); border: 0px none rgb(27, 28, 29); inset: auto; clear: none; clip: auto; columns: auto; contain: none; container: none; content: normal; cursor: auto; cx: 0px; cy: 0px; d: none; direction: ltr; fill: rgb(0, 0, 0); filter: none; flex: 0 1 auto; float: none; gap: normal; hyphens: manual; interactivity: auto; isolation: auto; margin-right: 0px; margin-bottom: 8px; margin-left: 0px; marker: none; mask: none; offset: normal; opacity: 1; order: 0; outline: rgb(27, 28, 29) none 0px; overlay: none; padding: 0px 0px 0px 4px; page: auto; perspective: none; position: static; quotes: auto; r: 0px; resize: none; rotate: none; rx: auto; ry: auto; scale: none; speak: normal; stroke: none; transform: none; transition: all; translate: none; visibility: visible; x: 0px; y: 0px; zoom: 1; margin-top: 0px !important;&quot;&gt;&lt;font style=&quot;font-size: 6px; color: rgb(255, 255, 255);&quot;&gt;Star Schema&lt;/font&gt;&lt;/p&gt;&lt;/li&gt;&lt;li style=&quot;animation: 0s ease 0s 1 normal none running none; appearance: none; background: none 0% 0% / auto repeat scroll padding-box border-box rgba(0, 0, 0, 0); border: 0px none rgb(27, 28, 29); inset: auto; clear: none; clip: auto; columns: auto; contain: none; container: none; content: normal; cursor: auto; cx: 0px; cy: 0px; d: none; direction: ltr; fill: rgb(0, 0, 0); filter: none; flex: 0 1 auto; float: none; gap: normal; hyphens: manual; interactivity: auto; isolation: auto; margin-right: 0px; margin-bottom: 8px; margin-left: 0px; marker: none; mask: none; offset: normal; opacity: 1; order: 0; outline: rgb(27, 28, 29) none 0px; overlay: none; padding: 0px 0px 0px 4px; page: auto; perspective: none; position: static; quotes: auto; r: 0px; resize: none; rotate: none; rx: auto; ry: auto; scale: none; speak: normal; stroke: none; transform: none; transition: all; translate: none; visibility: visible; x: 0px; y: 0px; zoom: 1; margin-top: 0px !important;&quot;&gt;&lt;p style=&quot;animation: 0s ease 0s 1 normal none running none; appearance: none; background: none 0% 0% / auto repeat scroll padding-box border-box rgba(0, 0, 0, 0); border: 0px none rgb(27, 28, 29); inset: auto; clear: none; clip: auto; columns: auto; contain: none; container: none; content: normal; cursor: auto; cx: 0px; cy: 0px; d: none; direction: ltr; fill: rgb(0, 0, 0); filter: none; flex: 0 1 auto; float: none; gap: normal; hyphens: manual; interactivity: auto; isolation: auto; margin-right: 0px; margin-bottom: 8px; margin-left: 0px; marker: none; mask: none; offset: normal; opacity: 1; order: 0; outline: rgb(27, 28, 29) none 0px; overlay: none; padding: 0px 0px 0px 4px; page: auto; perspective: none; position: static; quotes: auto; r: 0px; resize: none; rotate: none; rx: auto; ry: auto; scale: none; speak: normal; stroke: none; transform: none; transition: all; translate: none; visibility: visible; x: 0px; y: 0px; zoom: 1; margin-top: 0px !important;&quot;&gt;&lt;font style=&quot;font-size: 6px; color: rgb(255, 255, 255);&quot;&gt;Flat Table&lt;/font&gt;&lt;/p&gt;&lt;/li&gt;&lt;li style=&quot;animation: 0s ease 0s 1 normal none running none; appearance: none; background: none 0% 0% / auto repeat scroll padding-box border-box rgba(0, 0, 0, 0); border: 0px none rgb(27, 28, 29); inset: auto; clear: none; clip: auto; columns: auto; contain: none; container: none; content: normal; cursor: auto; cx: 0px; cy: 0px; d: none; direction: ltr; fill: rgb(0, 0, 0); filter: none; flex: 0 1 auto; float: none; gap: normal; hyphens: manual; interactivity: auto; isolation: auto; margin-right: 0px; margin-bottom: 8px; margin-left: 0px; marker: none; mask: none; offset: normal; opacity: 1; order: 0; outline: rgb(27, 28, 29) none 0px; overlay: none; padding: 0px 0px 0px 4px; page: auto; perspective: none; position: static; quotes: auto; r: 0px; resize: none; rotate: none; rx: auto; ry: auto; scale: none; speak: normal; stroke: none; transform: none; transition: all; translate: none; visibility: visible; x: 0px; y: 0px; zoom: 1; margin-top: 0px !important;&quot;&gt;&lt;p style=&quot;animation: 0s ease 0s 1 normal none running none; appearance: none; background: none 0% 0% / auto repeat scroll padding-box border-box rgba(0, 0, 0, 0); border: 0px none rgb(27, 28, 29); inset: auto; clear: none; clip: auto; columns: auto; contain: none; container: none; content: normal; cursor: auto; cx: 0px; cy: 0px; d: none; direction: ltr; fill: rgb(0, 0, 0); filter: none; flex: 0 1 auto; float: none; gap: normal; hyphens: manual; interactivity: auto; isolation: auto; margin-right: 0px; margin-bottom: 8px; margin-left: 0px; marker: none; mask: none; offset: normal; opacity: 1; order: 0; outline: rgb(27, 28, 29) none 0px; overlay: none; padding: 0px 0px 0px 4px; page: auto; perspective: none; position: static; quotes: auto; r: 0px; resize: none; rotate: none; rx: auto; ry: auto; scale: none; speak: normal; stroke: none; transform: none; transition: all; translate: none; visibility: visible; x: 0px; y: 0px; zoom: 1; margin-top: 0px !important;&quot;&gt;&lt;font style=&quot;font-size: 6px; color: rgb(255, 255, 255);&quot;&gt;Aggregated Table&lt;/font&gt;&lt;/p&gt;&lt;/li&gt;&lt;/ul&gt;&lt;/div&gt;&lt;p&gt;&lt;/p&gt;&lt;/div&gt;" style="text;html=1;align=left;verticalAlign=middle;whiteSpace=wrap;rounded=0;" parent="1" vertex="1">
          <mxGeometry x="675" y="350" width="110" height="135" as="geometry" />
        </mxCell>
        <mxCell id="vLmNjl7TnNPS4ZGKRvqN-48" value="BI &amp;amp; Reporting" style="text;html=1;align=center;verticalAlign=middle;whiteSpace=wrap;rounded=0;" parent="1" vertex="1">
          <mxGeometry x="950" y="250" width="60" height="30" as="geometry" />
        </mxCell>
        <mxCell id="vLmNjl7TnNPS4ZGKRvqN-49" value="Ad Hoc SQL Queries" style="text;html=1;align=center;verticalAlign=middle;whiteSpace=wrap;rounded=0;" parent="1" vertex="1">
          <mxGeometry x="950" y="350" width="60" height="30" as="geometry" />
        </mxCell>
        <mxCell id="vLmNjl7TnNPS4ZGKRvqN-50" value="Machine Learning" style="text;html=1;align=center;verticalAlign=middle;whiteSpace=wrap;rounded=0;" parent="1" vertex="1">
          <mxGeometry x="952.5" y="460" width="60" height="30" as="geometry" />
        </mxCell>
        <mxCell id="vLmNjl7TnNPS4ZGKRvqN-51" value="" style="points=[];aspect=fixed;html=1;align=center;shadow=0;dashed=0;fillColor=#FF6A00;strokeColor=none;shape=mxgraph.alibaba_cloud.sqlserver;" parent="1" vertex="1">
          <mxGeometry x="328.43" y="100.1" width="21.57" height="29.9" as="geometry" />
        </mxCell>
        <mxCell id="eZahiFkefNz_Pke4YgP0-1" value="SQL Server" style="text;html=1;align=center;verticalAlign=middle;resizable=0;points=[];autosize=1;strokeColor=none;fillColor=none;" vertex="1" parent="1">
          <mxGeometry x="328.43" y="117" width="90" height="30" as="geometry" />
        </mxCell>
        <mxCell id="eZahiFkefNz_Pke4YgP0-2" value="" style="shape=image;verticalLabelPosition=bottom;labelBackgroundColor=default;verticalAlign=top;aspect=fixed;imageAspect=0;image=data:image/png,iVBORw0KGgoAAAANSUhEUgAAB9AAAARlCAMAAADWCawQAAAACXBIWXMAAAsTAAALEwEAmpwYAAADAFBMVEVHcEweRH4fRH4eRH42VYYeRH4fRH4eRH5VRHAeRH4eRH4eRH4eQ35kjqAeQ34eRH4fRH4eRH7ofiweRH5kj6Bac5XodiweQ31iiZ5bZZHodyzrkSxbZZEfRH4fQ30eQ37XWDDpfCtjjp/ndStWapIeRH0eRH7odiweQ30eRH5kj6AeQ31hhpzHIDXrkSzogSxaZJDHIDTrkSweRH3HIDTqkSzrkSvGHzXHIDUeRH7qkSvxkSlggZrrkCvEGTVhhJweRH0eRH0eQ31kj6BhhJsfQ35cY5Bjjp9kj6BkjqBhhpxllqJvzbUeRH1bZZEeRH7ndCxjj59jj59aZZAeRH4eRH4eRH4eRH4eRH4eRH7HIDTodyzHIDQeRH4eRH4eQ30eRH4eRH0eQ37piyweQ37odivndS3VRjA8fpQeQ35kkKAeRH4eRH7odiweRH7HHzTofixiip7neitPeZVIcZIfRH5ijp9ZXY5ff5pjjqBhhpxSjJzZTy8eQ34eQ35edpfofithhZweRH7phCxiip4eRH4gQ35kkqHYTC9jjZ8eQ34eRH1kj6BggZpiiJ3mciweQ31iiZ7HIDUeQ37rjyzHHzVeY47HIDVaZJDmcixjip5ff5paZJFjj6Bkj6AeRH5jjqBii54eQ35gf5phhZxbZJFccZVjjqBjjZ9aYY9mk6FhiJ3qgypjkaDrkitnmaZbZpFjj6DfZS7ndizodStacJRaYpBhhJtWYY/skCvndCvndSvHIDVbZZFggZvGHzXHHzTznihdZZFff5rmdCvSPjEfRH7odixbZZHrkSzHIDVkj6AeRH4eQ31hg5sfRH0eRH3odSthhJthhZxjj6AfQ37GHzVhhJxggJpaZJBiiJ1aZZFggZphhpxhgpseQ37qkStiip5ggpvHHzRiiZ1hh51jj59jjZ9jj6BaYpBaaZLncytgfpnFHDXJKDRgg5tjjJ5WZ5DncixkkqDneCtee5joeivoeyvqjCxPeZZRbpJVgplbhpvKKTPJJzTIJTNvxAbOAAAAxnRSTlMA+f76AgP3CAEE/gf9B/b8+PsCBvYF+vcD/gP693GN0AUH/dsH7Vb9d5VxKfv89gj69v2H7eB3dwjnLnH3+fb9Yy5p8fsO93f7le13GtZCvPo1+YfJ4a6oxFz4FfkitUh+O6HgFfgNZEJC7E/ytdwH4eDbqKgcLi7gq/dCd5s1ENvgUuD6bAtPbmSKS/j7+5WXtbxzT08p+LW1F/t3zn92nHd1lv3z8YZa8UZ2gSTxC/B1P7jyxkL2morCr4NO5vuvXXOtYOEdMl2sAAAgAElEQVR42uzdQYvc5h3A4Tn4kIsvZQ0muaTpzZj01F66PdlgOz3FH8MfIBDnkIshBNYugV4asElPDSlJyGlpC72bgffwvgIJoVdYYrS6CLxQDDlWs0l7sB3XHrKORZ6H8cqjATGMDb/9SxpptQIAAAAAAAAAAAAAAAAAAAAAAAAAAAAAAAAAAAB4ac6cf6ozPhkAAAB4ec6vvrxx7bMnXPvkvfklAGAZzq7uFcU4Ft/9OFkWJ0/uzS8BAEsJ+oWjS9evHxwcnPyZ/7ZdHlxaXxB0AFhS0Iu94n/G75d7o6ADwLIm9L2j9WPmVYIOAIIOAAg6ACDoACDogg4Agg4ACDoAIOgAIOiCDgCCDgAIOgAg6AAg6IIOAIIOAAg6ACDoACDogg4Agg4ACDoAIOgAgKADgKADAIIOAAg6ACDoACDoAICgAwCCDgAIOgAIOgAg6ACAoAMAgg4Agg4ACDoAIOgAgKADgKADAIIOAAg6ACDoACDoPh0AEHQAQNABAEEHAEEXdAAQdABA0AEAQQcAQRd0ABB0AEDQAQBBBwBBF3QAEHQAQNABAEEHAEHfKx4PeiHoAPCTOH/23NkXd+7r1TfFXvFY0Yt51Terr3fZ4LzJs2f8awDAy/bxem/9hL31xz4ZAHjZXlu99+5uPr1WHDy5y/2guPbpjht894uvV2Z0ABbp9V8+25un/QbOrW6M610U62J+PN/a5/XRKR9+/797/c/7HwnAMp1b3T26dP3FHRwcXH1auYv11fml67ts8dL4gfPpAFiiN1d/+tU///wM//jj6henHvT1wS4DevH94znWPqeD9RenGvTXVu9/8mx3P58/DwB4Ub9e/f3bB98+y+9Xr7+aQf9uOi+eb+1zBr047aAfN21o2rYJ8+Nk+d/n3/1owl/tIgBgp6D/7v5Xb/ywr+7/5pUN+o/v9IP+r3hz/87Nw1v7N+fl4c07J08O5ye3Tp68k/4g6ADsFPTfPnj7wQ9744Gg/5hBv/HoTo7V0IdcpdDnqk1NbuZHClWuQt7PfxN0AHYL+v237/+wN0zoP2rQ32kv5mpsp6Gpu6lLqZiGTVNU8XgaYxynw9GEDsDOE7qgv7ygN3fq0LZ1Vw1dbqamr/uqSkPfN10IbX/Y/0XQARD0JUzoqc1pGto8hRQ2mz6FOAwpNcch5Oowm9ABEPRl7HKPZdGnvs9dH0OIbd03OZXzhJ5GQQdA0Jeyy32YYp/bNMxBb8cUQkhtl8tmzFVq948FHQBBX0DQq6spPDyOIU3DPKFXXX5YpphCGcoqxepmcAwdAEFfQtBvxfgwxaZo0nZCj21IzTRu+jAMYZgOhyuCDoCgLyDob20n9NSOqe/D9hh6jNvz48pmnAf1vJ8FHQBBX8JJcZfDFNsyxD6lMsZy1tTHfRn7oQrBSXEACPpSvoce++M6VMcpnJzlXvb1XPK57W34d7zZOIYOwM8t6MVOL/30X1tr8pTacZ7Ru6re9KHefhW93+58z+FwMKEDsOSgj7v0vNjeJbV4IuXb1TsVfTxYf/Aygt4N82BeV0NX5RzS9htssUtDNdatK8UBsOigX9rbydWnhbtYX91ta3sHl04/6M2dehrzPI5XQ1k3Q+r7dlNXIc1pD210DB2AxQb97OrGnOGjF7Ye18VbT7sf+lvF/NLR0S5bLD46/Qm97h5tgx76nGKzScdVPYTQzznf5HSYTegALDTo51dXPru2k3t3x6tP7KufV929d21H7385v51TDXp/O/VjXzZ9F3IKIcdcdZvqOIdUdXnaM6EDsNSgn4RuN58f7T05oe8dff7y38nzbv3GcDmW/XFTl1XaTuah7FOV21iWqe1SOGx9Dx2AxQb97G4+XF0p9orHT4qbV11ZfbjjJs+eOe2gV5dDGXJocm5yajYxxFyWzVFq86Muh5vRhA7Acif0HX8PWF14+oR+4VWN4murdx5enINet3Xsw5Cr41RPOYfYT10f21jdKk3oAPwsg370eNCPXu2gjxdTGcYqVUNTD9vD5t2QQtgMVUihHvYrQQdA0BcQ9Hx5SnHKVddVZWzGMpZDyk2dqyJt74e+scsdAEFfQNCby9v7sdSbHLYXlulTGPvU5BDb3FbVsO8sdwAEfQFBv1HdabdntOdHXVW326vJ9Mdzz/P2KrDT5njfpV8BEPRF7HK/nUM/BzyUuW2Gvs/92JQP0zSvrUMSdAAEfRET+nSxH+p2qmNIY2hSPrnhWmi6vutzKgQdAEFfRNDbi3VVdVO9mXIKMbcxdE2op1CNMU4bQQdA0JcR9MubIfZD026qGMPDMvVdDm1K/RhiXbl9KgCCvohj6NXF1KdpTDEMqcoh9ZtHKcaYqjrFsRd0AAR9EUFPt9d5nserGMpYhximqqv/w979q1aWHAEYd+DAsVmDUzvWI0y2F2z8KPsISiZRKj3ADiw4XT/AfQYjqKDqQjdNV+NuunWSA/fAMMGwiftIgbHHGHsZgw76fqMZLlIyTPJNnT/VTXUO7BYrQQcAEPRjBL3f13VpkpK0tdXYl9zHDHpezCwaQQcAEPSDvLYmZQ7nEkQ8rD3mPPYJXVtxC4GgAwAI+iGCLnd97Oet1VB8mzP5/C2ilp9GywQdAEDQj/JQ3Kk9xTmhl14kqxWR/Zk4FY+6RIIOACDoB1kscxJvz0HPY8u2fgzXsBe9uY3APXQAAEE/yOEs955aEKtB5nBua3/eFTeDPmR13kMHABD0YwS93CQLQdSuqlXyZfXgPc62R7e4sCkOAEDQj3EP/Y+9ZVPfmkqfHQ8hinbfN7+KEnQAAEE/yCX3h5h0RClbc1HZ9gvvzeZwLrPoBB0AQNCPcsndusQuJjUPEy+LFevNoqkWgg4AIOgHCfp9qLPmebO6Lip1lKualNHmqM4ldwAAQT/Ia2vjJC4avNinMopKTDPo1VvVUD8RdAAAQT/Ke+gliUUNaX6J5nDJqq7r/Lxk5bU1AABBP8bq15s5jJclWi1SZX6QoJrKvgC2ZhbLAAAI+jGCvpxMZtCzusj+NbxpqEWXYgtBBwAQ9KOctvah+R5062V/D71LdJlxLxr2D2cn6AAAgn6I09ZE/hH00lWeP9tj88YudwAAQT/KJfd7fQn6fiC6BC95ew66yIip85Q7AICgH+Rwlj3odZVadCvRoy05uEi1WIsTdAAAQT9E0PWhlll0b0uR1i2nfffr/JbvZ68VLrkDAAj6Id5Dj6ewzBk9jqAyx/OiVrOlolX0UvK5/4GgAwAI+usPupxqFvUUVVWseykvl9xdYm/xVv5M0AEABP31B72cXEOszWbQtXi2suVRi3a3bGyKAwAQ9IOch37Ts3l87rlKT1ouOQ6RMBsfyp0xoQMACPoRFsvcW9pe5vOpDdkPTm0t7A+7s1gGAEDQDxJ0O+WZ732B+y5uEtqyL4nzGGTEW/sLQQcAEPTXH/T1xkp/yi9Bl01m0KvlrBKfvNmtMaEDAAj6AR6KCyfNbtcZdNkfcxexuESzMnwNRW4z99ABAAT9CBP6Sb3sIVfbJ/QgOmKQpa2Lz29xDx0AQNAPsinOPHpvSeO+X6aLj6YiYx1hTuvvBotlAAAE/QhBv7O4yPCrjCR6reGnayopWSuLlO3sBB0AQNCP8B76SSSbZ02xinpMny9RvK+W4pzQz849dAAAQT/CpribxdR7CRKKaM81RCmjZqvVmrApDgBA0I8R9HuzqK4hBBHxGn0bOUnOYckp3wUmdAAAQT9A0Nc7yWP0qFLM8/xD3FXixzmi58CmOAAAQT/I6tc7URtxHUFTcJe4VYvmn7rWZuxyBwAQ9GMEvX6w8tiKRrlYKSm7+zpss+KmQZjQAQAE/RBBbzdSapNe836IqmgzsaskL+5zQr9lQgcAEPRjBH0LT02SxZqimXidRa9BZGhq3EMHABD0YzwUl0/+SYNac7G8aOlNS5JmcbGY8q2xWAYAQNAPEHS5d58Rz6nMCX0Gvc6g99BjnIP6Em/ZFAcAIOhHuOQuD3nO5lVjtfZ8SMsSsodso4pu+TYQdAAAQT/CPfSTSPX92FSRnoNJNKumZqa62m0i6AAAgn6ECf3Uc5P9/nkLMkq2LQ9TCV61PMlZecodAEDQj7D69TQDLmEP+tV6iSpSUpKYZD+05V3lKXcAAEE/xCV3tTiLXnpO0kaMy1p7LksWmXP6bSHoAACCfohL7iFXv4Yy5/TodUQvtrq0te+vsJ2Fe+gAgDcY9Ms3j8s/93x5/ObymoN+3YM+WhD3fGlhTTm3aqUmyZbGnTGhAwDe5IT++IVXP6HrHMk1b7p6KovEj3E/R9XKvjzunHkoDgDw9oL+w+Xb33/h28sPr3tCL9pF81Kspaa6taAqw7Q1r+8SEzoA4K0F/Te/+HF5vPzrgH55XH6cP3qtQW+nknKZA/mSZfhmq5molj7isFXPjQkdAPDWgj69//79F75//2r/uvvq15PLy+V1D8VUJEWV+auMaEs5M6EDAN5g0H/1P337VUzo68NMea7B1+2nz9t+QktPxfIiHiSUWyZ0AMBbnNB/+2+94v+A/Kme8ra/cm4uQdM+rXcvc1CPalLtzFPuAIC3GPSD2YN+o1HLElNus+pWpNTxPKEXLT2+2wg6AICgHyDo9sGzWWolbE2Se+xi+2b3/X76JZ4HQQcAEPQDBF0fbIlXqyGLimtvsavuQVeRsL7j+FQAAEE/QtDjTVtyapaC7tvioo4RXoKustl5EHQAwM8M+l//Y9D/RtC/ZtC/K6dq8ZOn3kLQ0tTTaKJ524M+lONTAQD/p6AzoX9Fv3x+D/2aPncfJZjUXsyyJI1P+3aZlDk+FQDw8/zuv7jk/mv+mb6a7+Jpa/J39s5YxbLjCMMTOnHoaBPbOBQKBhx5hQLvQ/kBDMKBFOkRJnY6D+BoEFTQdaGKpqqZbrr3JAfugWWCBQf+684aWUhag5iFsad+7tzLnL5d1dzkq79Pdx8Wq63Q3qT5JJrdjOHQ537rf7v6Q/5KqVQqlfoF+tNHHfoX93/Mn+gJ9Rf5TLdim3rVXnhTdoI5X1TIyqm98X/kb5RKpVL/1/rV1dWr+y9ePbmu/359d/0RoN9dX//91afQ53ffXv32uf7av7n66rj97BPoz5XIOpMw61xWuvlqj0ynt4oP9defIi9/84zPz0ulUqmXBvT7u/u7JxdCfpTnd9efIOmjvr363XP9tX999RU1enrpXsj5YSkrz047c/PZuFIskJM1ta+vDxpPn3hIAj2VSqWeDdDv7l9dfwrdf5zod58k6fXnzxzofPvmyfXNZ29ubPims4rBppflYc15qgiVd1ptevv6rzdf33z5tHpDnEBPpVKpZ+TQr++fWo/E/riDj/enT/zcgd5fs4iciWTA38bfmc5C+MMb/YKG2KamVTcqHVAfrTu1dVnrTh7r5PC5dgBdWudBPw5Gl2AfGsbPNfx0jy8T6KlUKvWcHPp/mRz/39Ln988b6H4L71yqe5s0rXLVSrW518buTtXZcOHSMKnSDxp+3APYnkTFhQaV3QvceQNtY8q9NiFht/0oKhP/FepeSRZ7Q/rvg5VKvBaC/EzDz/eooyTQU6lUKoH+MoE+bkXmTkWXejV1ddaDdh7iey86RKtxR4M56WE7Gwx2dx086o96PLw901B8Gw5d2hGuuTCc86oBdPJO+PqpFBjqInJmGYYsrMZaB3XbkaXo1hDsjALC0YAsMv8jSyvrp3s0c70hT6CnUqlUAv1FAp1uibV3vKw7waz3h86Di9XCsUy9rfVwUi7Fus0qpbRubdudGvxxd9h7eexx1spcIorCf49NChAeDp0Yvr6JN55Ks+/kMjZEljGrntDFkcXrw1tFdFQDtTIhC2lkoYEsKyYR+l5RQZC5/6AHPfYoYqdCv9cEeiqVSiXQXyrQC1EXg4luNN4SzdhvFvCVVtSPVrpKJ1qubLxv3nxpna1UGoC1btQuPaR2VWqu+C6ArLXtdTmjVQZ9WOXu8Pt9iSESlRIL4RXfhWs/wGulyLIUufe+wGtd/85S9q20CdhHUWDxUHU+Gn3fw6JHGbZ2z1XuqVQqlUB/sVPu59hBBofubQPDF8UBbyeYdOi0c4FNBsW3cOmtTy0c28vtWCMetnIaaC3E9X3XBfdsvMBe160C2oKKACR3m6D5aqgLnM023ldMpiNah6cH0oFmiywklyyE2iCyFLc+MQ421BmXLMjXYOO5YVx06YFCoCPC2ixOlv3SagI9lUqlEugvEugFDl2YGAhtBQyGDbbDtUrMrrOipTc5mk7wm2CeQedqQdx1jonwhjKgA81uAP98sINg7xd4v3twucNhsxQbhZ3GAJ5tk33rHLfWYzE8m8DW89lgto+ikz5kabXaAuhrpA0Tb51jNn/x47hQbHSYdGqVx8AwUIOUHW59S6CnUqlUAv1FAr2/hte1slWAulU/N/ZGNkHyQlMnPDAsuwHRIsSuwHXMo7dpVITi8ailrXgVGc6MS9TIJabdob3OfTEKgAWjrvM8YO17GOsBSo9KfEa9wIAy67u4f++KCFIvWZzaqGNIhCzzksIwIrmMq67LuFbEsndRcgz3rjd1JNBTqVQqgf4igV5fB6nJS/O++2z17PYO4I0J91l3kHk1Wn1wgVXehgHXTrDhInFIzKbAdgVZOYC+SKxPiq3n6G3HUvTe66bOqBNsdtht2xiWvogvsSWL9PCiJ9nfC3erCFroOBs9ZnGKC4IsjWo8SL1xnFAD6x7vkbkd3jaFqy87Lty0XBSXSqVSCfSXCfQJoMOZt3dWhjbe9qquGrwu5suLjyPmvuMCWD7h5lfsSQOai7QplxvrsnfS4nWHaecd7rpcgA7qt23AfQ+vzRd8ugmaVOLu9147/D/vJXaw6d7/SWfmiyGHmS+OVPDpI8oGY9QZC//ZFv48Co1yWfYeU+4ke/h/VBwupU3LKfdUKpVKoL9Qh34bW8DY4jiY0lasR+fynV3WoJtX6X2Q9xa3y6u1yn5aHI9dKZdl6jUMsxOs+FkEXxMZPU6h+QB0AtARdFtCazYa7qY8Ce0nrdUez6ZxGocLXPZBtBmtgVH4UUdDC0ZFVQnfeituxwigoxpYMaN/WRRHG4aGSLXhk25WTrmnUqlUAv2lrnL3w+QMGHMPUz5j6/c0ibPXG9x1PCGNWpzYWsKdw1/zWQ8+h3d23QiVwIFagKzYjJNcA+gzgM4w4EVh78u+gdyXJfJD6bSXcezKMPpWvYyxNLa9x1GxCr/9mKXhReVxaXssqccFdkN1EO0w8idt8OktTqU7tMZT3ESUut3U3LaWSqVSCfSXCXS5HVriQDeAPDaAtSLksSSuSIM3PmQThkUXjfviaIh72+6XdrOyCCAedsiZKmmpl/XmzS/2vcJ0R6S1L3n/nTL+e+iXm/GbeddVY1V6jZBjVoPT3uLePIgNxB9yEONyGRgXcL94GcuK4oJ3KkuOJr2VTrbZA+Lxgbib3kgCPZVKpRLoL/Qe+i3McSDb3EYpZwAdNviI41uowKO34fvq1mDhY6576NYux7oD2XGO3GVS/DSAcW0cD0upwu3i0NGb2AWmG1HeVz8XnsD9GQXA8RCb1GatMZ2+nLXuGERUE76ax861MqTs3ZtNWHX2pbT9i73zZ5Est6J4BzY4cbJ4YZlN9gM0uzCwDtY7WQdmnU26+QbOOis6a+hkg+ov0ImDCYwDGzYxTgwOhwEFugUSQhItIbUSQRU0BR7Ggc95NTjzjL1MQ7N1T/dU1XtPT3rUNPx09Odegj9k9ArwgOx1GFwF2b0EdCtsFG5JfxGMAl2lUqkU6EcJ9Px18lNA2phGldg5D+6qA9/J5P0muTmkVAN7vJNoJBbLxCylWpko8QqdAMeBeTfgmGHm/WHI3cXCXCyRoV/RP3AAMoCe4aQ5Vx6H+NciNflguPTOh7EXDt37Bhde8rzHx5G6ydJTkSm46CrYT57npfsBfpvhAPfJoQALR2/HfDHvFegqlUqlQD/SRXEMtO7qcJH21/fJ1WWtphjFbdu0hwXp3dsSrQ9tbvaAuQ8wy/mwq9xKHDNxqB2+ecBXRwZ14zy79UU4OW5iyFw+l+CkM0PDoVh4s814bTDwjeHiYLkrA7wy9UolwuHQO6pJrfrC1XEuZcaWR5FssrmPVoq3DDTruHgu7YP3KXavQFepVCoF+nFGivt6GjjrOohcrn2DcW6xbV0K4p2AwcAtzLHkUU3o1QL1cPOebMVtO+46qxbwNzvrtnXM1unQM0psxYQ8sjOpZuF2OKBYFvudR9yGwNF3Jl2VitNVUq0u4u7huXSdzWbLgDTVNM8JANB9WRVXmVdVKqhfnGl4Pj+iTWP2jbyYGwW6SqVSKdCPNB/6YCrTuu1LcDjmMa/Vluxevc6Fc+JcqF6St5J8bq3mkmqzLVQunzsAPTbGiSvdz1JrXLatxZHQNYiR0/Pw4GNuZDbg3RURxoHjwvrQ0DsAmxNgbpLxdixA90Mic6zR6ydveNWHVIegtUKgu91MjkFl/bAmOcvOiJUWXYovpu5DV6lUKgX6cQI9Xgk9dgsgdbZLVPb7uXvzepitjMjwMgz0NnvZ22G9c3FkGTmZiTuc+B3HwBO7BL41hneDM88J2M0cipd98PDfbgdTz8iuGb8w5SlvPMr5rekNZnvfZhg5G87Q45hBXV32EkuHB48hAuSyRKDxd0zNwi3rzjDebM/zbuLhRzZw6KObHq0CXaVSqRToRwl0uQhMzbJ7PTMMr40iNVrYZ9cjd4UDyMCwb1nykhdV4o7r4NOEQzbOcbmcDQK2G3h2k1FcrEGnoIStc6aUuTO7nFIEhy3TvJQs22yqz6XNseM0fUahLr2mWuD/4dB3S9z4xkDyufscuqmDg/QmOOZis7UxjHxyucO08/Fy4QC/L+ht9K5AV6lUKgX6keZDByThmmMwLra441YwaxjYnQlPxXcHfiZhDDeOfAuzn6bqe4DzTr5yaTo3qLkY24iSbYkyzbKb3bkZxNYCU+0XBtOhd34YnZbdTMnNde5OSzWm6GpiNFhAP9RDIhjuZO/JMdYMehk24TwO+jLC35LlmL8wDH1HsxaPa2+yDrmrVCqVAv1IgX5RbQ7Whx5C8AleOy0xYEpMvVXDqGwWPljEj90yIe5Mj7IkVYk77gY3mSvV/cYugdYTN6e34TeMQzODsVvpHoYbsDcOyF1ixRqA3zLP2hyCJoO/CzYGhqPzpfmaGoAeWnaZIeDHoS+AHseYjEWXA9i+ZVoX9h38bssdddbMhO7GC6OhX1UqlUqBfqzZ1loVuGBnojBZOejN5e40yyBxsp6r1ItPACjJ6pjrNAPONTRjxpLwrFQGj3NLgnQJjAvj9mXJkxY41x2TWBh3Zw5D7izkS0bHAOguTkyOeXi8G3fP3kDwh6xslflZEh4Bnl2spNjTNk/Uw1h1YeJhGR5O6vCMeYOOQfRtbYMCXaVSqR4N0G9fPr390FhdKnxvP+H29gjn0H8Va/fcip5KmqVyRDymCPjGmuHCaa0FdM/JBQ+ozk32oS5j3pOR1Qv+7QQenyFa4fXp1s3whuvpcjExgb2GG9/skiPdLS8xMSMryIyugAOSDUPHu2mrZd/BJ1j4VnIt3KCWJO7KlB3MeyXFBQRnHwNmfQjD1ADxWVqKruNKU6CrVCrV43Hot58/ewB9+i6iP3368umzB9GfXz5uoPuL3vwA0MFF74nHPMxsYHhpvgDoYC4PcsBZUD71Kc4yacq859i8MdFy6znhvmRes1bmgl1AelsS86yC2ndZtgKGbzz4LiHO1KIwOTrNPjoNvHVwc3uHGd+yKoDfJzQe+ixe0NQSTZ7D7yaUaGp5sw8w+Rw1aDGVaHuuL/ZFga5SqVSPBuj/hJ++/fB6v0N/iGZR5T8e+T70s9Obq9Ozs+vrs1O8XZ1Bp2fL6xrn8bK+vlrfXN2sr9fPcZIF1muWWIrivpura7zhbpzFZV46NYbh4IXL6OC94ahntrbmlLxlVJjmMu9dn65v8PbbNQ9uTpcz17wdrV6xdVR2jSJXZ1eoe2n07OoKzZ9dPz97c4OPZ3i2Uz4h6jl9fmEU6CqVSvV49MNXD6Fv/3b77B0w//Tll98+SLtf/fDdyUePF+h/rFtbU0m51JAjTbCxpcwYljl0hoARzoHDTAe81Ww7nDU8vHGyLHQT+OpcAO276mKoxpmKHwZyNcXkZj3sPI645802O00L0br7yjCtVsS1kJPsX4c03SuJJiaThzfV+mJZbd3iOCeXcjXdpgof38QbPlzyDvXGXfDeDZ84mGC7D7ooTqVSqX7y+s3Lz98N9CP8Tj4++VO6vFytVuerS+h8xZ/VCh9Wyy8/4Pr55VIIZy5XhyJvyx1eeePqP3ewotVlA4lTbpI3DPTGTCuxVGGulWRkBps3yz2s/fL8fKno/O0jLBWcs6Lzw/FSbKn6UPxyaZKXzt/efHkocb76+7n+oatUKtWj0ZPPHkDfnfz6vUD/4rMH0UfH+J942dcw6cnmAIM/RbIxoflGEx5N319s/6B/6CqVSqX6EfrifUC//fLkyRF+L7/45L/r55/8WH188k1cF8lLClWxIZod952nKmbXjP/Xm4v0/clffvb/Vvu/PJD+qatUKtVPHui373PoT/Rr+lDdhJPfBwI9SLxzfghD1+RiauV+conB/TX97uSX+j2pVCqVSoH+yIH+TSXQk827vRhTJRnTJW7yv9m7fxW5jiyO4xv6AYyCTR1sMo+gsMFC0b6EE0WLQ0UbbCrtAzjyOyzMI0xgOKBzBs6hqCqo4pYq8IW+oB2bQQr2tjIrsDbsy3w/aKARCgYlX359/1S3MJf2fBB0AABBP0DQy+ev3C/PqbdR0+UUtaHS3C573fptIugAAIJ+gKDbm21f6KJai0Xx4nWzqJdb3OfZ9XX+nqADAAj69Qdd3qRSk35+cnyEh4jWIVmlb4/eny8EHSYvocYAACAASURBVABA0K8/6K8e3obXdjmJZZ1iMnX/Y1K2mJK03frPBB0AQNCvf6GP0+UQVpGSxzh/fse77DN9jIdUzmqvF66hAwAI+gGC3k57wheVluJyzsoiajGrivZWrd+uLHQAAEE/SNCjqcZUXS4vdletM6vK2H/ueWwNAEDQjxJ0025rXS/zXIpkzfdVZ8Q0nkMHABD0wwRdxdxz/lC1iMzeXEqIz7VpnwQdAEDQDxJ035WWS9hWNbYinoeUEbP0fEvQAQAE/QhBX2/6vsiba16qmXpsl+vnol5dhxN0AABBP0TQ05tW9qTr5Up6C5GUVXsX2yRSnAk6AICgHyLocTNDR3J1t7Clx1xi5v1DsahcQwcAEPRjBF1OWSyNLr43XVLRsHqftfSzWFMWOgCAoB8i6PXGdrmPqh4fSgyztSbdurvMznnoAACCfoigx4sxYtShtcx1Fend6ng0Fe/agqADAAj6QYIuXWbOpUS3zUsqouNTep9L5LFxDR0AQNAPEfR8amsuzcJNxHwVEw3X6m5FhKADAAj6IYI+TpEkaV2658vRLFvXOr0N8Xo27nIHABD0QwT9VT6V8TBM8lD1lsXTmqVY6F53HlsDABD0gwS938TQKTa6FPFe5D6Xsa2ty9mVoAMACPoxgl5vRpjoUuRyY3tRWdNqo2QbVVeOTwUAPK2gf/P/ub6gvzyfRMuiq4ta3jTPasNNRVPp1Qg6AOApBf2bg/5vf35TnIuNaK3nsid9dhUZ1mIrzZU3xQEAntZCP3jQSy6lLuF9ZndZ1rRkGbJlI+gAgKcT9L/+5d/v7t7d/bnLv/jHtf3qe9D7HvSyVE8ift7CXfPMI0VLvbPQAQBPK+j/ueT63Z+7+/W3awy6n1ytVC/d3czFTe4jXQ5SHUrQAQBPK+jf3f3wt6/64dfvrjDo5WS5pGpbd3n88GAaYbVEn4WFDgB4ckF/9+xr37m/u/v77/+8vqC/enhheU2itbh+9PJL1tKqeFG53PBO0AEAT2uhP/v6NfRn17jQX8WLXkrOrWmYnT3vs9yypnUUDSHoAIAnt9DvDrnQX8a/rGrJktYp5uc+YyzW8zJqkZafc3wqAICgH2Chv5TTXu7RNZrZ4yc7t9xt8TxFRVxvG0EHABD0Iyz0F5fv1nW87yk+firnGSlkD3r3vef1df+ZoAMACPr1L3R7q3mGLcVi1irSoi3d8tbFusi3xkIHABD0Iyz0k/jUrBLbx8dNR65L6pdXwKZYSr3NLHQAAEE/wF3uclLpXqqqpxmlWU5ZVCXF5Vm2b7kpDgBA0L9Y6L9d43Po/aTaSiTLTVpea6vdU5f9bxax/JqFDgAg6EdY6HvQ61zLlFryYnUU6cuyr/S8jSzjVljoAACC/sVC//EKg+4/DWsStWs3Ow8t1ZPKiNallfI8EXQAAEH/40J/d5XPob+t+tDSGC4eI9JSy+iSH1tzt+A5dAAAQf9yof/3x6s8PjVvac0lko4tklze6i5Nksf7qvZavifoAACC/oeFfneVC/0mN5NpMtbcopeZ1R6K7mO9m+bbYKEDAAj6ARb6HvTNqkhtI48kdcsmrfhYp3gqzxeCDgAg6IcIek055pLNYnaVLYtE6pq3blE4nAUAQNAPcg3d930eJS8lNlGZa0nnbq65m87nHJ8KACDoBwj6K7tZwluRmkq0PejLgzVL3bXfWyXoAACCfpCb4k5RpHeVy+ksZxUx//RQytl6J+gAAIJ+lK/c62nkto/yuuxdD1PNvzwWjZKTKUEHABD0Y7xY5tU4ufhZUx6m/V6raDWpS0t7342gAwAI+iFe/fqyvtFexETKHnaJe1FdN/GUSx0iBB0AQNAPsdD9jcovDx+3tRX1nFQkjVhnlJzdGkEHABD0Ixyf+nK9UQs/j80kDxVXSck+3+9+v/LYGgCAoB/j+NSX20ljs5p8n+ZxOQld+zJGN61FZSPoAACC/uVC//0aF/pykq2KxRRVzdNt/5y8hElSFjoAgKAfZaHfVLu0vIp6j2FhschYZ5VtzUbQAQAE/RALXX7yZuJ9ltaHSfU01ratU33GshB0AABBP8RC9/+xdwevcZx3HMbn4INy8MXYxRt8qI3BEETqe5WT1UZ2S6F/Q6qLIFB6CegkqKENtPKllJJAIPhgaElSl6SiKe2lB21Y+MG+78L77mjeF88woyHRwA6tXRN66YzsQyxpZXlWcnZWz0fCyFI8XhuFh+/ueGZd29ipJI/EJV7EpUpcZPOiEDEsdAAAQW/HQreLVcSL+k5rRiQNq4iPlKj6RPfQu5CgAwAIehsW+oos1ldtj6VMjKpqbsPYKpXo3GaOoAMACHpLFnoVdMmttpKLUcpEqdUD63ycRNqJdgQdAEDQW7HQi8VRXuRxFBZaREwS2tDGcSGpGonjpDgAAEFvx5Xi9Lo2YpWypdFKax1nmYgWZeJEsdABAAS9JWe52/erilcBlziJXJZqm1ddj724kqADAAh6W+62tmLWfSij+uXzKEqcNzpLrXJeF0ok4yl3AABBb8Xd1m6VX0tpjFFGyrQqelpk1rnUVwNdi+gNgg4AIOh7FvrDabwfevy+SfxIxIjYXLwTZVyWWZ1a7ctyQRF0AABBf3ahb07jQo/nlQmdqxZ6FsVKQhGJVaHT2KlHod5QHxJ0AABBb8FC/60alSorXKKMrmMe9ZJIskfOGufVQvgmQQcAEPTpD3qy6KQsRmLSSFIRp3xuXeTC0G57pVYtQQcAEPQWBH20LrpIU2+qmqf1QhcXZTrSRqJEq4V48tfQ564e5gzf8wBA0An6xEFfqW/OolUeKVfN86rpyseSKAmdGCl5DR0AQNBbcVLcil8UZZIy0rFXcd10pVNjfFYHPYk2Jn4N/WLw0Wd/GO+zd4JX+K4HAILOQp806NGiFuPzSIe+PsW91NbEYaJc/S/TlVuVyYP+46++7A674/wjuMp3PQB8G84ebI6gt/PCMnbeplJ5+pS7SFi43buh28ypYnXiC8vsBv3S9UsH+/PWTwg6ALDQW7bQp/HSr7fktiu0jiNdehV7k0dGe1eU2sePfBhuFMey0DvjFvqlLkEHgG/Jm/c+OMC9Og4EvYULPV2XOKqfco9EMlFxopUSL6Pwf1+XYbIR/oigA8Bs6vW2e/sNzgTH8++PuH3qyw36yqNFXTg/8Dasg26qqS6iY1dG9U3YRhuOoAPAjFrp3Ti/z9IgIOjtvH1qulTkWhViVOTyaqpbHcWxlcSokUvVRkbQAWBG3Rgs5dvPqjc7QX/+Qn+8No2voS/aOItKrX0qYWKzxIi2WT3WI53lCwQdAGY56HufcL/SY6G3daHree+sVl5pmxZKKT1SYmJXbfQwigg6ABB0gt6OhR6uyyhL8iyRzLrShrFSon1Rfah1kRJ0ACDoBL0NC32lmFcq0ZlTUS46lsiEUTXPQ5OJGC28hg4ABJ2gt2KhZ/M2lEJSZ3Pv4kexDm1cerFpaIzipDgAIOgEvR2voReLmcu1z5S22ptEjPPOekkLqy1BBwCCTtDbsdBXZHGUOBX9R5wRHRtxaaR1XkS5iuJIE3QAIOiNg/4FC/2lBt0oL5IVRkTnkdJZlHrrSq2qnxF0ACDokyz0B+O98YArxR1r0It5k5RK21JVC90kSjtRqXg9shJ6gg4ABL1x0L//xcevj/cxC/1Yg/5PvfHE7YXV6sfVhdXbuz+e31hYrT5xi0u/AgBBbxj0vz043OvBubYu9Cm821potFNWi4vCSFsdll6JtqZIEuW0aB/eI+gAQNAbxfEvf79zmF//bur+Stp7t7UguHv37s27N6v3+oObT37yRP3x3Zv/+mOVZIIOAAT9xR2+v8+dm76/kqMu9Ie/mL6gnziCDgCnNeivfu9Ql6eviUdd6JtTuNAvXL169hue+cmuixP+BgQdAE5r0NuHhU7QAYCgE3SCDgAg6ASdoAMACDpBJ+gAQNAJ+gsFfSpPiiPoAEDQCToLnaADAEE/fQu9z0In6ABA0Nu/0P/LQifoAEDQWegEHQBA0Kdhoa8RdIIOAAS99Qt9h4VO0AGAoLd/oT9moRN0ACDoLHSCDgAg6Cx0gg4AIOgsdIIOAASdoLPQCToAEHQWOkEHABB0FjpBBwAQdBY6QQcAgk7QuVIcQQcAgs5CJ+gAAII+bQudu60RdAAg6O1f6NxtjaADAEGfgYX+kIVO0AGAoLd/oW+y0Ak6ABB0FjpBBwAQdIJO0AEABJ2gE3QAIOgEnaATdAAg6DMSdE6KI+gAQNBZ6AQdAEDQp2Khc2EZgg4ABH0GFjqXfiXoAEDQpzvomyx0gg4ABH0WFnqf26cSdAAg6DOw0PvcPpWgAwBBP1HnXj1Rl4+40B+vBZdP9pGcI+gAABZ6c2s7zw96v17opw9BBwCCfky+G9xZfuvne95++dSxfGHtYf9a/7lnxV3rP1x75lhvjftNGn5h7Y071R+WoAMAZjPol4PPd/695+0bjuEL13au9Z+/0Dc3d/Yea+zDavaFnc+rPyxBBwDMatDf3vz0Oyfq2u6L5M/f6Cf7KD7dfJugAwBmOej95f4J2zzKU+4nbLnftqBvEXQAIOgvtNCXN09Y/1j+k8ksn+RCP9PM3IVDgr7VvbT11+DqXMNj8z8jAEwU9N5Sb3/Qe0Ewd6qDPg2Wp/Ep9yD4pHv4U+4AgAnMnW2oXuiDPT0fXOnlZ4JPGh+SoLcg6K80/U4LfvXV9XFBH/6wWuhzL/kRAQB2rRy00Ae9KX7EBP0Yav7OsFu9vbCnv6g77jX0ztZwuDUcNjvwT2k6gFOvmtP37r/ZyLu/qZ9g3zvRtwf3X2t2vPsf3CfoUx/0C8Hvu52qvy+sW6e3U7+PK3p3q8lxqwN3hu9WjwsATreLwUf7Tmw7kkH9nh/w6fygTx/F9vaJj3uCfixBv9RpsqQ7nWH968blvFO9d5ocuDO8/uXPWOgACHrwXu/G+Wau9Lb3ZznvNTza+Ru9GwS9FUG/3m1iN+Xj9nk90Otz3Rsd+PrwNRY6AIJeBX2p12yj5/lg30lxtd72oMnxlgbnCXo7FvqwO02qhf4DFjoAgh68lzcM+pPn3Q/6TKOe95Zygk7Qmy30P7HQARD0/7N3v6FxHgQcxx/SlKV2qzpqzYUIa7qaUSjtWKi6wSgUJQP/dP5BpDp80w5ioXUiIr7o3rgxzCvHNggbgjAow6KgSEFlE+Ry5C40B+fBcS/24iChK9mrsL7q9Lm0W5Pmnrv0yfO0z3P5fLa1+ddcclv27e/p5Xm2FPRECbqgxwt64epLFjog6IIu6BY6gKALuqBb6ACCLuiCbqEDCLqgC/rqo9wvWOiAoAu6oOd/ofs+dABBF/Q+WOgzFjog6IIu6Plf6M7lDiDogt4HC/2ShQ4IuqALev4X+kULHRB0QRf0/C/01y10QNAzE/Ta5KKgC3q8hf6yhQ4I+r0M+vort7SfuH1dtlptrDYt6IIew9HGs4IOCHows5je1dZuPbd0U61Wvvn3rauvlmtjY5O3TbseuqDHXOi/EXRA0MOFPlbrYKkWYWndzxuuh15eqq1eKv2Tgq9Ndrvae9cqLy4t3qp9+FStJuiCHmuhvyPogKCHC33v9PR3pyNEviI0Visvdpjo65I93X7Jrd8CrD61GP6im9rPTf586lMn3npG0AU91kJ/1oPiAEEPZtat76XO+7zzKzoecl/74nB17506scbYoXdeXmPmHn+2gn7fgx71S5uf/uBBcQDxgn7prV/H88xUeWxD0MfKSxfXeqXX7Q/eNjws6LkI+tFY5W2UGqGIojdLhWazGa/ojULDt60BbMVUbePD6cZq5TveamjdM194aK3hIQs9f0Fv/mU0rkKjUOhc5fDlsd/r204sA9AWLuNYghPlyQ0Pihsr1waDtc0eytKnKugJBP1XMQ+Nh+v86tVCoxF1yL3ZKDViHsV3LneALQmD3uGQ++Ido1zQ+yrog8HM5e/F9OYvPmgUooJ+tHn5zbjv+PKl8OMCIHbQa5NLG4NeC7L7P1dBv88+uBoV9NJo6XVfUgCCvumgV09XUzU7vonett8q1Y/idDW9oA8+GtOfg0uRQW82R5t/Dy7Efdf2OcA2XOjjqWo3vWfP21L9KDK50IeDb0Yv9OY3St8OHvVFBSDomwv6Xze1oLcgnN49b2F8fHZ8X6ofxb7Zf+Qs6KVRQQcQ9LtY6NXxVI91/y18/70PuId/pX3o/4CgA9C3QQ+CM6eOnDoT/tD++eaTZ9Y/ucVXBOdnN7G9T84eODWS/I2vffLJ4GFBB6Bvg/7J99RF1m6rrzjQO+jV6r5wQKdx49km6ACCnpiHR1J1JDgQ1rrnIfeTKy8E+9P9SEYEHYC+XuipGtnUQl8N+si2u3MEHUDQcxT06iaC3j7kLuiCDiDoOQ/6yY8sdEEHEHQLXdABEPQsLPQXBV3QAQQ99wv9moUu6ACCnv+Fft1CF3QAQbfQBR0AQbfQBR0AQbfQBR1A0AXdQhd0AEG30AUdAEG30AUdAEG30AUdQNAF3ZniBB1A0C10QQdA0LO20F1tTdABBD3/C93V1gQdQND7YKGvWOiCDiDo+V/osxa6oAMIuoUu6AAIuqALOgCCLuiCDiDogi7ogg4g6H0SdA+KE3QAQbfQBR0AQc/EQndiGUEHEPQ+WOhO/SroAIJuoQs6AIKeiYXu8qmCDiDo+V/oLp8q6ACC3gcL/bqFLugAgm6hCzoAgm6hCzoA9zLoI+d6eMRCT86u3T3sFHQAQbfQLXRBB9ieQX8keG3i9929FwxZ6MkYCn74/e9089y3vhzsEnQAQb9rXw3+OdeqR2uFr8xp0DO40IeChfniwny0heITwQOCDiDoMYL+lbmJN7p4vDVhoScX9K8tnP1cFweLrwo6gKDHC3r98blWtHfreQ16Bs8UNxQcnP98JXqgv7+n8pigAwh67KB3kd+gZ3Khh0EvdiHoAIIu6Nm/2pqgAwi6oN/1Qq9a6IIOIOj5X+grFrqgAwh6/hf6rIUu6ACCbqELOgCCLuiCDoCgC7qgA/RZ0MuTi3cGvby0KOiCLugAeTK1dGLvBpNlQfegOEEHyJPyxn0evmhxWNAtdEEHyI+hi4de6eBQUu/fiWUEHYA+4NSvgg7AvfBQZ0k11kLfTkFvjDYFHcBCz91Cf3H7Br3QkYUOIOg5XOjb9/KpRyOCXnhb0AEEPXcL/fq2XeilqD9DL5X+JegAgm6hZz/oQTB4YeZCpF8GWfu3CYCgW+gAYKH3a9CHdw1Hs88BBN1Ct9ABEHQLXdABEHQLHQAsdEEHQNDzudA/stABEHQLXdABEPQsLPQXBB0AQXe1NUEHQNDv/0JfsdABEPT8L/RZCx0AQbfQBR0AQRd0QQdA0AUdAARd0AEQdA+KE3QABN1CF3QABD25he7EMgAIulO/CjoAgm6hCzoAgp7MQnf5VAAE3eVTBR0AQc/AQr9uoQMg6Ba6oAMg6Ba6oAMg6BY6AAi6hQ6AoFvogg6AoFvogg6AoFvo/qsEQNCdKQ4AQbfQBR0AQc/aQne1NQAE3dXWBB0AQc/AQl+x0AEQ9Pwv9FkLHQBBt9AFHQBBF3RBB0DQBR0AtkXQqz0IOgCCnvWgz54e7+m0B8UBIOiZDvr5anugX+v+z7WV84IOgKBneqH3/jP0qlO/AiDoWQ56fgk6AIIu6AAg6IIOgKAj6AAIOoIOgKALOgAIuqADIOiCLugACDqCDoCgCzoACLqgAyDogi7oAAg6gg6AoAs6AAi6oAMg6IIu6AAIOoIOgKALOgAIuqADIOiCLugACDqCDoCgC7qgAyDogg6AoAt6BoJe2VMUdADiONcOer1b0FuCnmzQK9E9X13ou91PAP1t/5Hk7T/TDnqrFdnz+uEw6EdSMZLlO3vnA2l4qech9+JPg6/vTuGW/S4BoO89P9d9odcn3EfJ+cH8jq6H3CvH3UcA/e7YsaeSd+zf79V/3C3oh+ee/s9TafjTk0FmN/rO4CdP/PZLyXv1+NniZ7sFfcfCcz/6Qwo3/MfHfP0AZMNQENz4MHkff3hjud7qFvT63PL/bnycwi3feD44l9V7e3dwPMzrlaRVrlSKA5Vuh9wrA5XKfCXp221/JoFHQgBkJejLy0+n4d25bj2fq9cPp3KzE8uvZTnov5s/uCcND1YGBrrkfKCyI41bPTtQEXSAzAS91TrcSkO93u1BcXOteiq3+kYr00H/2fwXi/9NWKVSrCwUP1PpNtDbb3Tl/YRveOHBYlHQ4f/s28FrHOcZwOGJrLSyY5TYQZAFUXxQIBAEKzCkObpQ3UtPFQr0UKIcDD4kWAeb+Jb6llPTEArNxQbnZAIJORQMgQ7DssK6aOFjjntagQv+D7q7cWQp1oy9k1n5m9XzMKx3ssosRDK/vO9qIJqgD2fl3jR0+qUTen8qb9pb60Ue9MW0dt2Dh+pfUYmgA8QU9NEvqM2O0xj0l0bQAQRd0AUdAEEXdEEHQNAFXdABBF3QBV3QAQRd0AUdAEEXdEEHQNAFXdABBF3QBV3QAQRd0AUdAEEXdEEHQNAFXdABBF3QBV3QAQRd0AUdAEEXdEEHQNAFXdABBF3QBV3QAQRd0AUdAEEXdEEHQNAFXdABBF3QBV3QAQRd0I8L+t7iw9q7upvupXvdsq/o/vRlgg4g6FX0Kr72q4Lejzvo6W/2dmrW7e51d9NzJUXvnku7O2la9xvvnd8VdIB4gt7vrfamotMrrnZvWv4Z+YSeXj3zSv3OnO/OzRUHfW5u5/VpvOsbJnSAmILeWdvc3NjY3Nj86djYODg79HTiF5439vdWNzdqfcPx2ebluCf0v+x2u3Uvvh92R7P3ubKN+874mMKn6LuCDhDRhP5oKnr9krV6r995NCVb8QZ9Ifns03en4W/vp6+XBf2N3d99dmUK73vlir9CANH49oubWze3hsft4Z+3x8fo6e0nTyu+8O1/H62WBb3z6H+fb908fKVnr1vphX98mFw8fd/E99MzZUFfTP/gBx3gVLi4UO8LC/NbvbWyoK/2Lh9/pUNnk7+wcDHyBfD82TfP1u+15O30QslGfXex+07yx7PT4K8OQDSuXbtUvw+T9/qlQX/Qv5xM440vXTqF8/lC8vbOhbKPuhfTd5Lf+lEHYGK/T97rrZV8iN4fBd2vU51Y0LuCDkDFoHfKJvTOg46gCzoAjZjQy+5ae9ATdEEHQNARdAAEXdABQNAFHQBBjznoC8lK6879u/eGx727938+7o6O0T/Nvk6WBB0AQY896PPJQsjCIBwc2WBwcAxPPklWBB0AQY8/6EkW2kXuhI8FHQBBb0TQ81Bo2YQOgKA3JOgha2XHC8smdAAEvSkr91zQAWCmg27lDoCgNz/o6yZ0AATdhC7oAAi6oAs6AIJeR9Ct3AEQdBO6oAMg6FEEPQg6AILuPnRBB0DQIwi6lTsAgm5CF3QABF3QBR0AQa8l6FbuAAi6+9AFHQBBj2FCd9saAIJu5S7oAAh6BEG3cgdA0E3ogg6AoAu6oAMg6LUE3codAEE3oQs6AIIeRdBN6AAIuqALOgCCHkPQrdwBEHQTuqADIOiCLugACHotQbdyB0DQ3Ycu6AAIugld0AEQdEEHAEG3cgdA0E3ogg6AoMcT9CDoAAi6+9AFHQBBjyDoVu4ACLoJXdABEHRBF3QABL2WoFu5AyDo7kMXdAAEPYYJ3W1rAAi6lbugAyDoEQTdyh0AQTehCzoAgi7ogg6AoNcSdCt3AATdhC7oAAh6FEE3oQMg6IIu6AAIegxBt3IHQNBN6IIOgKALuqADIOi1BN3KHQBBdx+6oAMg6CZ0QQdA0AUdAATdyh0AQTehCzoAgn7CQc9KblsTdAAE/QSDfnapmpXkrTy0Qsl96LcqXnlpXtABEPST85yVe4QEHYBZDfr29vXt68Nj/OeRk+ulJ9tfbIfilXs7+/LWn170Ur84+f6rZFozuqADMKtBz8L+YH94hGz4kA2enOSFJwdfHvK8lR/f89EufhBe9FKD0Tvnh07+PLWP3wUdgFkN+nJYX263h8fTh2NPlo+ejI5W3ioY0cNweH/hSx29bvte9qOgAyDoE2pno99sG/9y288PT0/ywyfZkZMQQp4VjOhh9OqLX+rpyehyy+Ffgg6AoE8a9NAOVWRPKn38zn0c/GoEHQBBrzShZ1FZzgUdAEGvEPRc0AUdAEEXdAAEXdAFHQBBF3RBB0DQBV3QARB0QQcAQRd0AARd0AUdAEEXdEEHQNAFHQCOBr1THvSOoJ9g0FNBB6B60FeLbfYFvc6gP3zlfLG5q91/CzoAFYP+oNMrNJzRBb3GoF9Nu92dQukFEzoAlVxL/tN5jjVBrzPopR6mf01e81MJQIXEvGSnKujN+JYAgKADwMuaCJ9H0GflPzYATC3ooR2qyor+VyBkla8Z1jMTOgBMHPS8lVcz7HaroOd5K+RVWbkDwOTuDO6sV9NuFRZ92PN2xauu3x/8KOgAMKHH+4+Hx/jhmaflL+wPWqFw5T6ofNnH+z+4FRwAJjP/0Y2Phm48PQ49LX/hm0HWKgp6e/DdB0f/lRtF13rmhb9/kMz7xgDARBaqxzNkhRP6evjY/dwAcHKWllZWllbGDyu/fFr2wkryVuFH6FlYHnyS3Kpy2dHDq74rAHBC5kcTetGH6OMJ3W+2AUATgp5lpRO6oANAI4KeCzoAzHLQrdwBwIQOAEQRdBM6AAg6ABBD0K3cAcCEDgAIOgBQS9Ct3AGg+UF3HzoAzMKEHkzoAND8oFu5A0Dzg27lDgAmdAAgiqD7DB0Amh90K3cAmIUJ3codAGYg6CZ0ABB0ACCGoFu5A4AJHQAQdACglqBbuQNA84PuPnQAMKEDAIIOANQSdCt3ADChAwBRBN2EDgCCDgDEEHQrdwAwoQMAgg4A1BJ0K3cAaH7Q3YcOALMwoQcTOgA0P+hW7gDQVic0lgAAIABJREFU/KBbuQOACR0AiCLoPkMHgOYH3codAGZhQrdyB4AZCLoJHQAEHQD+z97d+zZxx3EcP+uSwy7ID2KwkAosVaSIpWu3MDCzIB4GGoTYyNqxHSLBAAtS/5b+C9/p99Pd4iHqkBmpa5dOPSeIh7YQqcLR/aLXS37AMdMN9+ZjbIchBN1L7gBgoQMAgg4AfJWge8kdAMoPus+hA4CFDgAIOgDwVYLuJXcAsNABgEEE3UIHAEEHAIYQdC+5A0A5Qf/9v1noAFBM0I+Orh19hne5A0A5C/37a5/x7ZGX3AGgiKB/9/bt22snlw/37257FjoAlOG3vz7rzz8sdAAowdghAICLUHRJBwAAAAAAAAAAAAAAAAAAAAAAAAAAAAAAAAAAAAAAAAAAAAAAAAAAAAAAAAAAAAAAAAAAAAAAAAAAAAAAAAAAAAAAAAAAAAAAAAAAAAAAAAAAAAAAAAAAAAAAAAAAAAAAAAAAAAAAAAAAAAAAAAAAAAAAAAAAAAAAAAAAAAAAAAAAgItlcpark8mWwwQAAAAbdvv2rbP88qyy0QFg0OJMbTytLjlQADBk01jWoy+pD+KVoAPAsNUxy18U07gh6AAw8KB3szNechd0ACgh6FnQAUDQAQBBBwAEHQAQdAAQdABA0AEAQQcABB0ABB0AEHQAQNABAEEHAEEHAAQdABB0AEDQAUDQAQBBBwAEHQAQdAAQdEEHAEEHAAQdABB0ABB0QQcAQQeA/2m8tTXZ+nDdXl+3T6/vf7jlMAk6ABeh+g6BoAMw6FJvP6tuVXeq29Xp/ePLl6qfnlWTl4+rl++euNM/haADMGCXq93jpmvyKM27ppulUZfSLKWcu1R335w+kabdTnXVsRJ0AAbrUvVz7rVtm1e57f+0vo31T/pqrU6f6Bv1QqEEHYBBB303HVyZzWb/vH704MpB2uunPIIOwICD3geojfVlrf3ktj19YhqCLugADDzoq2mcYdruKZSgAyDogg4Agi7oACDogg6AoAu6oANfydb2eGu8vozf3f/r0Xi87cu2EXRBB0DQBV3QgY3arh7fvXn33r27Nx/29w8//eP7Rw+fVxPHCkEXdGCwLld7KXdtzqnrIp184UdO62/7yCff/nHyRI7jPd+1jaALOjDooB/GQf3B6OTy0aO1g3jgDIKgCzow6KDvpOY4rcf4qr/pZ3p/s4pV99EJJC26fQsdQRd0YNhBb6fpyyeQ46a97wyCoAs6MPSgn3XCXcS+N8Uh6IIOFB701ISFjqALOnABFvpr/4eOoAs6UHbQUyy9yx1BF3Sg/IVep0MLHUEXdKDwoLfzeNr/RRB0QQfKXujxyEJH0AUdKDvobb/Qdy10BF3QgbKDvmrr1ne5I+iCDhQe9Ih5vLLQEXRBBwpf6DGKXy10BF3QgdIX+iieWOgIuqADxQc9CzqCLuhA6UHvRnHdS+4IuqADZQc9x7K7YaEj6IIOFL7Qcx0+toagCzpQetBjnt5Y6Ai6oAOlB71OOxY6gi7oQNlBz7HMfjkLgi7oQOkLvV3EcwsdQRd0oPSgN6sHziAIuqADhQc9FvHaQkfQBR0oPehNvu8MgqALOlB40NtFt19NHCsEXdCBooN+3LQWOoIu6EDpQY9FWOgIuqADpQc9NWGhI+iCDlyAhe5d7gi6oAOFBz3FMnwOHUEXdKD4hV6nQwsdQRd0oPCgt/PwXe4IuqAD5S/0eGShI+iCDpQd9LZf6LsWOoIu6EDZQV+1dX/CtdARdEEHig56xDxeWegIuqADhS/0GMWvFjqCLuhA6Qt9FE8sdARd0IHig54FHUEXdKD0oHejuO4ldwRd0IGyg55j2d2w0BF0QQcKX+i5Dh9bQ9AFHSg96DFPbyx0BF3QgdKDXqcdCx1BF3Sg7KDnWGa/nAVBF3Sg9IXeLuK5hY6gCzpQetCb1QNnEARd0IHCgx6LeG2hI+iCDpQe9CbfdwZB0AUdKDzo7aLbryaOFYIu6EDRQT9uWgsdQRd0oPSgxyIsdDYW9DSNPR+LFHTgHIKemrDQ2VTQU5omQRd04JwWune5s8mF/kihBB3YfNBTLMPn0NlY0LsmvfAPRkEHzmOh1+nQCZeNLfRZlx0pQQfOIejtPHyXOxsLetTxYzV2rAQdOIeFHo8sdDYU9LRapB8cKUH/m71z52mja+L4XoyNl9VeREEFVCCsp3SVjkSiRGnIhSLcRBMF0VEmRSQoSIP0fIBXej7MVDM6pzn1+SrvnPVyDdgGloTdnb8CCDCxPMczv/nPOWuLRKKXB7pihz4Qhy56KYeOKSiJlABdJBK9PNCNCtW6OHTRSwFdMcEkUgJ0kUj08kAHyOBcHLropYAOKQjQBegikehPOHTw4V9x6KKXAjqJQxegi0SiP+TQfdgThy4SoAvQRSJR7YFOAvQ/oM7MZHUE6AJ0Abroz5SbGbmatIFA1z4sysj98ZrtXEkcenVAn2UJ0CW9RA/lh8RAgD6u3sKCXhKHPnXjy5rrOd0Mc/GDef7Vg9k2650dnm2M19nGYQuB7hqjfm+ksq/s9K4CKkBvXhd8udq962VucVM8RcDmrkLlcZw6Zb3pj4narLcxsdxsnJ148opPzXPoFIJctjZVbs3forh31uk7zczdTIpeb+5eqs9573HCQhii3KtXYXse0GdnubRPaCVnHoinAL1+1nKuN+ZxuSZuflb853W4Zq473HHpcW/I5r1jMJP2WsHsy/tmNw/okOGFOPTJMC8ziD/Wvg8GF8NjwPLdbXBpwDpYv06nXud39H2ihKJxIl+/aQ3QZ24V95MDF8HB0sHyZ//o+Pj9+YUL6PYo3Bz9XmPqTkuB3u/dwM7up8ENuWW+XOjilvOthzq3PjM3v3cFp8yPnQ8fPm5eFHFb9cpqMde/B+hbOovGizJ4K0BvINBDXBWHPrYNLtudbxf/bRkkQrJMcbwGOhWfkJTJ95b2StZ17gIdFyAYJxU2EuiYIt4pV1ft46/BcEhGGxdLwx8WURGOQlvElT4N18pC34zS00Kgdy4fzeJgbcW49HGrXQrQIOcT0c7e8GL/qtubaTPNyxqwwcmxxJEpqg24UAFqLOQSxqAFOBj+W7a8s3eBDtn4chOo1wb0O1sxD6jSp8bcNPf4imI03R46yZuzjEmvUa+zvfiBUOkC5H7iFEZlYkTpQvGD3GUc30bT3tqtzCyBDl1tx4lCaiLQ4ZZD75eNzuFwnQOKQKj5KQjJSF3fT9M8HAU4yY3mkJKF9/8Vpb7fgLazbUCfH63Zj7Udw1zS1uVPmtxSkTdAChVaRcO11aas9ZPiVaTH6eIBGavBRcteFpxRfoRh5neLb1IXN0U23fun6JtulhsGus1gbLmx4Ftx6A106CqHb+LQH+gZi3bwZHGF2FUYLkQhxTFxYWLSsCF3Fl0r7pjZY2oVxXHEN1kA94Pl9flbZck59O6EXfSmAh380qqVzdH6u67ieFoDMdeoNOa4adKFV7uUiyFwQOMs8dnTAenh/vWCCNBrMtoa4WJ9i5yjNMylnNxqc8pczW/IuGWOYwetYJRPenD6xf1162bvneIRb+/o0fTPETwussOBvcgPXf6D6/TgEJL9vH27C2KgU2YmvgDJ21dU+Ge8/b31d5O0vvfWq7AGLJ5OcY8/vFdTdaYCetd8kutk7jPnBT2211fQapUneRxBwRpWpEbD9qvPnF4cSf7KuRenCwvsK3Fze8Ol1kzbgR4DnnCtGbH4x+qOK0lKcXGPXUR1ERQKruJ5GdSo+MrNkyv2AZet6Hy//tatPUCfmXc43x9CSsTL7Rcg16DdUDC6Zs1omR2lqEBUN8mVNfT9V8GlNhnIYlPpyxYSKj/JOBRs0i839iK6mx9lerCNSBOlNNLn1b4769OpK9B73kfr9l7GyqIdVpYd3D0h2Ql3ye3SwevJx6n20HP4JQ7999V2ITl5HxFXGgdzNwCD4FZW/b5dzLcg5bAfh4niPqCwlQXJWgx0vsXQO3M3/3l6pNmsZUmexmVrdAfkvwXU/R4sRWkSc0CzC++6RxKgv2qcu88XGdNJdcM4Qrfj+3D+YIF2BSPnmSVu7PXpq9eYoxOTzXnfZf7akSWV+XFERXYEAOMLDt9CgcUo9rucJHbth1cO7WsJ9CVYSSZpRZ9WCXQbHE28RxjWDOhd+igO/T6cL77hDnihm8eEBlQACNOogJAhy0znZuD452FBIAa6aSfQA53Qtue9HR4dcWzYqqXa0uTm6HZAlWN6N1WEm7u1Rno7gO5wfvhzE63iRUutVm65cZql5tsZ1DbOfGb60faXdiC948rN2y1+apDPrS5TetpqU/a8qAsLgcu7Z8VcowC6rRnQB2Zh4qNNYLFKoCuIJ8SZunUDusr1rpyN+B3np6lWKkuLXnnq9LrOMlJIcRZq0t/56TC/4Ry6aaVDx1StLB+78VWS5a5cGY7Oo+PpzFuUZmTxeHfDq+1IqQ1AdzifH7hhZZZGj0+fYrG5f/Mz7t92TpqP9M4cx2z/s0bg/NDsBoLHZQeg4pwi5OaJy825+y/PikNxtQP6FNM+VSnQ3YbgBCW6ZkC3XSUO/ZZGOEfj8KMeT/MbZclGeUKE391FBAeqpSN3QHZdJs3C1G2ePzGcztK7zYw0zC3iRa+uSG8B0Bm/8xeaTOIW3E22npA8/EfsN/MuEBVIb/ILybl2ZQ8JAz8tup8npYcrNxqjMGGwb7m9ii2VoQC9jUCHHMSh38yvfuHO2V1YfHyzfLcsoY0XwOLWtveRfN1GoGMU6NQPyZ2Em3rMPiagEZd5xK9lJRSgv75uuHfBa53FT6fT6Ph7wE8ZykqkzzX1xLs7YcM4h25I9hnd7ig7uAlKMw7b5q63A+LQ2wl07II49OtFZqK+i4my3GoI4JniqsS2MnZV6QNOrG4NdehUhvE5vdF10XI2nQOKx4z0ufoZt4YD3Z1t+OrOPbrRcaCeteJu38pg7CvS7z3Pa+Zrzcx53hc3a0+f1/5clRsA7p5zxPdvIFUC9JY6dDnlfmP8dbLj9rKKA+tQgbSbvMdZblQQRe0cuVcqN1skjEPADz9qWOWbDXROn6/HCAuxrap/cyMZPzZH7mWAm2fS+x3vcAsV4xxMYLCickNRmOMU8RegNxHonH4g16GXYpwOrY2rw3npKknrNMIIBOhViNxV6aFPeO55NQtYo4HuluIzqTx2O+dUVfKAwahLuHLWPJPO/c//0OSpO1mCFXa8htMjpSAQoLfSoYf4Uxx6mV+HIdvzgFR1+XXlNEC1dOT+Ikg3iL7S+K1uO+kNBjovxDfSaYhQIZ4Y50FAmPtG7zWM6LN97+SzwixiBOuqh1ioJy+CAL2RQFcZyGu5lwVpSas80mgq5vmUEqA/qkXScVfhcs1MemOB7hZhGSG0iFVnD0aIOjc62fAadHqXH8kXoCzlagNVlxuc+Io0AvQGO3TYFofujudufATI0TDOLQjQXzfQmehWYxyjXq1VlW8q0Nk7rxbrwW5TVb3Wits3jHOi8+YQnR/HRw1dLjXV2vNHSIDeRKArdugDcegcgQ3APEL4O+5cgP4EpBsVhYCbRWoK0P9uN+xtsj2P1MsMtwxGQJgDHPSacdxntued7ACkaJ95KYAAXYB+J0QqVOutd+i8thtAiVIqUiBArwXQi6GiTgOl18t3nRSg/730+aDyVAPgy7VvQHGOeOZ16n/anZ+t/5ANo9HhGgG6AL3KkXsG52136JxgA6RQY4R/j+cC9EfLBgSRr2C7NuelGgn0vreO5LOJDl5yr8q9RVti4q+1u7Lh3v0JCwmyfQABugC9WofO6/pvyx06F4gLRTma/7N3/j5tLFsc352xN3i98u7KhauEyuhFlLdKlxuJEtE8Ay4CCUqDjOhShgLppbi3iXT/gCfdP2aqczTTbD3/yjszJj9ewmVnDYad9QwSMggWfGbP+ZzvmbMzD/esWgD644xUSMWV/MuXxdUOAr03juZCciHZevFUAQKUSr30nejE8xOlclApiAD0APSHVuixeLfZCt3ynOeVSp+U5wHoq4n0SmYMpp5o9O4Bncw+r4CD2cRvzUMxASX3neiW50n2lN06AeidBjpuNtANz1XJjNoTAei+AZ2mjQk2ElM/onzngG5OPpCQC/EYq8HIhEpL8JrohucQ49PzPAC9m0BXsXi+ySX3G54rZDIA3UegixQUXMALL27irgGdeD4FzAQ+TjYMjLK3UnhMdMNzETPBxFPzPAC9k0BHMVEvNlihU2D4hKTP2dOunweg36sUCyyDuQ9F944B3fBcjFLBHq1b2xIdX/r0qOLPPJdx/TbQAegB6CsqdORigx9bMzyXpt7Ont7BAtBXHZJBJr0gereAbnhuzt1+TD6ZWloJX/yU6MSQA4hZK3gegN7Vx9bIOzZVodOcfoKSgWiDhwWgr16JBci1D0TvFNDJ2lMsiLG6eswVFsSUw5WPO8wYnqOttwegB6CvC+gcdjZWoW9Znot2eFgA+j10m8BciOvWR/kuAb1neS4fmedEdAk54GcPj2p5Fr2BUSrbwfMA9K6uoePGHs4yjk4hJgdrh4cFoN+nARohhva3uncJ6GY/mQSeIBk2T68J/OAd0fvRLlIu0hKeB6B39LS1Uiw2VKH3ow8plMCe/AGSAPSHWFtVvJq1negdAnovmosqxSdoJgWmYWIeVPRrDKJdVeUgRAB6APo9gF5zB8mkOurGiQcrTOhEcJIYUgSgr+qEBKB2mA8YwkidtFy2dQfow2iOKjMHbz/FXIuUU6D1SqKTaysRa8EgAD0AfWWgqxHcfQPpUpx26JjhRh72B/C0PQ7mJdApYbxXCRFu+bRqlJeMwXW77+XOAJ1YihjjE3WTIpO5wGeeFd2PIL7ffjLfXOS+vhKAvh6gD8aDtY69aC7qjAQJHkZ7a/03xuM2BlnKdjDD1RwMbvrofvrd5WELsEFAP8O6hPEuCyJ9CDCDEkugV+Zr2zO0yjWlBlKMH1pN9K4AnYLhK8mlZqtR6ecpbjznqQBeeVV0H0bvVLlix8H3cAPKeMnyM5nNfBsC0DdGoUfRe6gruVclXm2iPu9HeyV5WPMTJcgp0VAIM25GbIZ9xUuNAHoZr2ATgD6O3kgOK8QnG78BU2u24tuwRgRlgxVrXMutmCAJtN3qPUe6AvRx9BwT3bxf25ZzaIKh5D+Mb3Pufjh4KtIS3vkj0QfRR9MQh7Cqs0jrLPH/+UouECqzIS4EoLcA6L3oZLa93nF8qWu7MDIxOl7zv7F/2WtdlB1Hhyv06EJlYA15OUlGSEMgUhCSKOllJSfJJOE8k2BTaug80AfRucrSpiGdQhBAWvLJqJRkN8BlGAepzBdikhQU4VdhullGL9SbNrd4dgTog2hXZyk0bIgzNK/MzCeTokKsloMcZznnioRn5VwxY5gJGPviMJR4gCzRlqSa0tw6S0LOQqZCJcgppDK+oqRIkrjMyFfkKoXGAPQHBno/uljvSpOye2jVPQKiGEq51tYWKaB13cfD6DXEFJKgaUQCnfORQZKA/dnscnp4+Onky8XlbDbbv5CaWC7lKOHkZY2dzD+g03/bbE8eWKqNPB4xgrcAY7ZXi6v3dly93zdGpB9ALOI81UrKpvMDmcDdFhfduwF0CoX7wEE2opMpoKg0L2KaeammZupvxtc5H5lJB0fBmVbA/el034rOoGi6gL4MN2mZZDbcXFK0Odr96itkv8sL8qVKWrOtsJdGAPqDA/0SLuL1DlNTvvsmYozi63rHJFNtA3o/Gk+gVE00ILkXZSYUkci78uTF1fzDL1fdOT3fuZiBUChGZdq0c8VHhX6tGyh0MiCpjSxOJCiYbr9fnN920Z3z1xdTBTIucnMmVaNDo4kUsT5osRW7AfRh9Bcm0KTgrispQWcJl1pNpzvn17fMORDoeZGBaQR3mPRUKA4LP7bQGEe/Q0apSoN72f4oJUAkHpSa7p8vTm+57vzq4ILyKrnU6VWzfCEA/cGBPqv4uiV6bd2S7jIF6230ZkK3DeiD6EQkTR65UWCObsxiRu61vbOUgIM+Ddv217evbq798fVihgpznhqZrqG7QDcKXTqdIv+1dpgVhUQFB4v3Nz5g7Db+Or4b8fQIQGFZUoxvFKWYifPn7V1a7QTQCU+KZQ2qW8Ro1JAVNPPq000Wt/SZHx1nfnpmWlNGdr3F4doMSunHqbnGT6q8UTnQ1CkgLZDCzejd1TdnucVXfr8+ovRXTrK0YYdvALp3QG/JyFoH9HH0GniTgjvhXKs8Ns1wv1kXHQyHv1CjNx4PB1v2je693qd0geSGcncyHxX6AhwUumkjtNq84JTf6JOdG2sNbwsn9O2BtcKfFN4F56pRoZJ+shSqvX1xXQA62XZbxyCaOA8QzgWoF6dfZ37r1jmP/nxJHkZu49Q/oSCpDn3YFGsc/YGTZotTZLJsZDbQefe7Mbmx0G2+Mu5bQ84vyE3KEsy9ZcrvAegB6JsEdJrKUpTAXG99UyzTWVEB7hv36g3vfDP9Zbg6n6GWRaadK2FeKnQtUlkfzxXRPOEEdTic218c3r3MvbXMlhavkJAOWrvX3dMKE3je2kJsF4A+jH6z7aS6Ac8J5wq+GHwM/okhW2M76R/+M1OiVC4nuJlyDOy1v9PdCHTM3fNSk8JCOlFKHby1efOdzjKwZvt8iIAxN12lrn8nAD0AvSNAH0dvVKEr15CkKFOGAkH/y/6yyzvpW6K8II1pkO62eOZllzswrBzieVKSPvtGcyf9bOPU4pVCzkUDkc4gl9Baid4BoNtOSPeCu+nsSssbnI/rAGJ3rDgDkWeifoleSYjhqP27YpFA1wWgck6AFLA4R2VL7S57eGxZsy6mSrM4Q+MDVQB6APrGAL1n9nwtpXNHHDlYlij4r7kJBg3c2CLdFt6diOQf0PtRr7aQaLbKL02RoxHNv5tw8QoUB9cgZWVbqQ4D0Nc4DqBE4eg8gJXOcrA4H7ho6Z558yTS8/q+bWCVDxK9Fz2jDMW5Cx2YVHkJcPzRrOw559bGCNdTqyDcwk0AegB6R4A+iI7R9Ko74pyCRgHV9q6jOP/BkwdLlY52UbD27/mo0K+wfmce039wuLOsWzTl7BLpFc2WSN0QAnYbsbY+uuY/0GnONUsdWxXt6jmvcDtyxLl1G5r01xJyXU90ARP0QKLPCJ6uHbhpKpBwbortzxq9MSvTP3+y63xmxQIC0APQNwLog+itaeVybFFhoAWvTCvcsLnqM7HJIp1DfZ+Pjwr9I4G2ruTO9b+t2ccrqWZjwRlUXEvHbUzSCgp13FJL+g/0rWhbxa4NXma1JQZYkPP0Gt1X5iS3HJHVXj9r/TmqZl0qdg03JM9FmiA8JyMMVvKVz2cAhHRRfyZ0AHoAeieAPo4OsAC3vXQUhaQ8h/23TYrtvyJdqTLHumNavWyKE1jnEnoE82hvsHUPV4/mCt33wWYqzVRLJbr3QCeBrnLn4hZiDuJ4iehGsXZAU26q7nXrORKKtq+im+1GuOOmepTB6Iwp6Nc0wv2j3UwWQEhHzOqnKAA9AL0LQKd5vKhKRzqwyiwAn0X3aJu2SD80Ah062OVu+qPqXEL8fT8nJBp83pYFuO4dziCG43bKNu+BvmUfWXOZh/+xd+48cSRbHK/uhsFT0+qHJpgIHBlhOSRyBkiEFokXTAAG5AQZOXOIg5Ug2Jsg+QNc6X6YE52jqqTj/iq3athde7WWT2nnzL3VQ5UZDy+7Z6q66lf/U+dh/eRpwPFW/QPbzLrT6Fij1gESPepT9DVflq4MW27ILzc17KoF7gCP9MMrNy1tAnoC+lMA+lTt2RkFRdFap6mzjrbUYhpgze0GLhusVxHoBGXHnHNWuOgk9NaRN11VQmApHYxWog8d6FP1xd3HGCI3vdNpYejyH04ep9HBlMawp+iRS/Sp2rUNmbDlBrAlB5DF3s+6o/Q1Zn0CegL6EwC6G8bGx6AHTTCCDOFw8SAoN8du7WgVgd4Db3IXmIRu4flERpswY6+T6JGeog//DP05Fn1uAgaBSLdYXKuNfzh5HNGx1B0n0U1JMZ+i/xHkF7QNJWzgZl8t/G421JnJklNcAvpTAPpU3dkm2EU38wW2NyRu1xN4okCXmYROsxxQV9ow72qrwU5i7MyBA32sLrGmsMlDMIOjReA0Vv6chXGMQ+M2yr/Gmy5urLYClxvIgVoolcDmZKz2MWP3vgnoCegrAPQ19QLaPmDH7LMpt57nU5Hb9QRHgAnoi1xr284QgipKd1hglGVUBw70DXWOTYjcRF8MzbxTi4zB/ECn5UKqc2y7F/Hm+vXVDuogga7dO6EbJTH4U7UPK6nQHV4T0BPQ/7p5/YD8KP4+wWokGZ4nhb74xZxweQNtaI2vtrMx1u0YNtBdfxbe9zwoXq3w7u3ri3HpAGs24Isowy+xSnRv0girR2h1p2u8FBn7OdBX0Ms9txUkoCeg/7XTj3BmQ3xUfMox3Ba6feYKPQF90as9d8obgkprYmH3I/SVGjbQp+o32/QBA6ARZ/RmYevxunoLPgn8z237mPW3sbrF+bIsFQYsN5iTruFCxhlgVYEOWNFOAnoC+l8GcV4nIYwJeCtlyktAF5E73sHIhKTgz7HB4wjBOHSF/gaKgMlj59Fk+wuXyHH3V2n42dpCFe8EIShDDvhy766/JbaNWE2gG8zgVKzwUgL6CgB9qvYo02GVHwuYqQT0iIDuRu8UaxuyHeugNTcR2twHDXTva1Vq3okBNVDdXwqo5qn6ameW9M8j13SGl3Ha3H1hullICSj053uohLz1VxXoNi9Bzu6WgL4STnE30AbgnJzGMHgmdvMkoAtNQZ91KyCNptuzZTEmdB800KfqHWYEHQsnwgLeStzL86Cvlr1gQy/jtLl7oFeW1w+YG12jGF9X1uRuRvY/SaEnoH/X5WdoygC/KvJAEDyZS0AXGr/KARViAAAgAElEQVTHtFv8lsyHoh/HVxZ9yEB3o52FVA0jsFn/XMa45f3iCqb6cA6taaPsMX/AhzXlYfvPl2Kzf2VN7jnZV2KvOQF9+ECfqB2sEFgjGCJl8EL0dk1e7jJW3z2qdccvkR20EGE005CBPlWXdsQ7eDmBXuYktO6uq3u2x9B7r17HaHP3ie9zzcftuy6rwSqx9Dgrq9D7EewkhZ6A/l17bVvL4yDvShBNHpri0MXaJyoC3Ia1r6wZn5/7kIHuA0QKXm7mYEf2q9Cyu6bGNdXInLHYBqO0uW+oW6z4kBqT+xhZOem5ukAnsGfpDD0B/VuPf2A8bP7Y81NDD5J3u1fos6TQJdaqa2xDJLqv0HKegC4p0PcpwHuBoC/6N4LepFcwop+nms1tDRSnxV1jQFYZTVjgg6A1aWWB7tbQi6TQE9C/3TQXWAXUZclNCTiRTBA98etSArqMRHc9FRCnQBm8SUCXBPpXHPEOXrrTpaCMmqpdzKzhbO41foxPos9d+jQEJL6vjZVcIVdYoUNS6Ano343gawyoy6K936yoQJ9fuUhAF2hjdd23mnfN8vkABcGSgL6mbog/rkJ0oHgnN3fWfeIINs4UK9yLr9cmatMGJULShd2UdOBcVaCjmUFS6Ano342gCUn7akxJuCFawemZOvcRPwnoEu0XClom+xHux+YqNVygu8lzY/i0rznWUAg6I66rD8BGNeRus/w8vi5bV0fsOdvcBcBtWEQXyNVV6Lk5S17uCeh/dvjYm8B4H5U+s7JONm5ZMl2eFLqQRKeWeEOmTwl6lRS6nNz86C3urF0EG7yT5cRb1rYF4Ho1Qp4f+oQxmu+yjJ6LxmOsLNC7kUle7gno3+6ZLQzYMeve1la2xLKb27bMuwR0mfYJQ0IVoIDXsRXKHi7Q17yNie31/DFD3zPRSUsVc0yGceWu+nPn+SGkMEsOukTZeIyVBbrW8CrqM3RaKtDx8UCYdzQAg8sFOkUx26bqpR2xiZXdjrkg4RBmB3Qsc5uALjOM27bibe7oPRs/R0b0IYetaWg5u8jc++RINJ/PhrqiijXH4MzuxJZGaKLObWP55dFmeCQ78QcKdKiYOU19A1+jVuiU5ctr2n1oJP3zYkVu06O1+8XlvQ4qDcQA9DW1hljyPnFGt/he9lb31reSu3ACevD5hZdkATVCKngf2So/WKCP1ZnvdO4wGyi3r0Q3URP1YAPMahXsxNZtbivSjfisr2BHJGzCGijQsWLuL6TSxp3L3S5XoaM/Scy5OfiHll9ac5eIBOgBBgvXY6V4Le0EdFm4/Ea89RfyPosu38hggb6hNoEXygYzfKfuJ2PJqTPmk/fnWOHXyPZuz+ZZrAL0w9yAKZrScLAKnd2lN+YuZoV+0wEtsaFxSGdcsXLvYoldv8SX0RmCcRRAVzbAJw5whMfCd3oCuizQ9zGkZF7Xmi6y5K+DBfpEndqK30RR2z/OnGc/auuPbTwdT9en4/F06j7xT2P/Hf9n+vcfuf+u46n4WKssqrEeqw/Q8mlfoS/sW+FLBwK9jwvot8TZM4wu4Uu8Cl2pw/vJxmSJ7VCdYsOFcM7wXB1Olto2DuOYYV9sGTDDdIvbCegRA9211z65DGvMbM0vkfXYgM/Qb5AvU9hhiXv/2j59L3plNJq1DZTeChgZ0H/FArnQFvT64UB4xEOAns8Vejz2K59woGPtpxnuxavQ/xftI1VMJRJbwKl6Em1DnZiKP1xw0LfSa0MCuvBaedtnGFDEqrbv44pEHzDQqav5nGcI5N0V8fWLv7fXxdHR8dH58bvbu63N87uXt193L072TnYv/v3wcHC+uXV3crFzfLB1d77529Xmrvv0autiZ+vq4GXLAh2hNH1kQJ+o56YJqIVekriDfpBC72fmS0RAd3LLbdzYCQ3X8cahu2FcX2pbu1fbWOFPGWZthrvqftmvJA6gP9CIDQvN+0aybmoC+hKAPlWvbIFdxy6WFZ3GdbI6VKCvq/t51AAbVpTnTVVV7Y+O3kznHuAeFskionWt791TT+ib9d+15H7Y+x+Re6D/TTLIe77owt7FtXebqCNo+OWGfE4c4Z1IENBLoPuIYkDW1WfeV0IXtB0z0Jd/T22zmpQysxNj6cFlAP02JHETViS+pCagi17XTcVPtujZxdJW+D4BXWbuXIRYt3wiFQdho9sftKLNfm9N07hHNvMP/0XTzOZfzD++Pbm/Z/5JQ84Ntemi67eJOmbPO70bYYWn0i88DOiWPkdlcj+zvPNjCx+fPNDZYwn6d2wRnMtalLaQDSPxu0QSj15OQP+/mDPnGUGj6tLhAv0Aqp4/5Pg99YX5UeDMo6kQLcwFOT0+CC0+Nv/czz+jfv6lffwldOPMnqFrt3eL6qxznnoCSz5Zgq6teF2ZMKCj/RyVyX0/AOi1uU5AZ7aIGe0+CaC78auoZinQL8O9JgFdevZv2yIgWVzbmbh6bKhAH6tdO5IJbsWl/BOs4CKqfhurV12GvA9uDZX4tQOBbg4jMrmvBeDVWMlRXlWFXsDBkzC5O6iaXPNBaw2eiHM1AV16tfxg+ATfiC3eJKDLrH0W6uVmq1hwmzDCh6hyDozVGf2XvbPnjZrZ4vjYTnZZx/La2mIrkioRKCVVOkC6JUqTF1IACUoTgehS5imQQkEaJD7AlfgwpzpHM41rf5U75oEHbnPPcHWcHa/P1IiNxjPnN//zmgUMBczwQDyZLwjoKUFMwwi/z5otHJOZX8JDBTpXq4+PR6HQN83CYdqwg5v6mMSoQJfez1doUz5AWfcgf0YK9K4BSsTLFYAPYkpz90CHzAV4FvCduPn1QKeEq5crnJ3GpdApAK8KdAboDrqytXEo9GmXJ8VnRsNnBXrkQPcH9rWr2Kw4mFMZVzHTcIEe0Ph1pSuWgRG/Ad1lyO1Ypzk/9gF0l3C/nRa0H5dCv2dbsqYKvangZiQKfYsCOr/mgPL9FhTo4if7kCo+QIkVPY3qcA8U6Atz0aZ5xDjHTqHHBvSA5kdgSyt/Qmdmn3W5U9FkG3EpdAW6BNBdZj+ORaG7Jg+YrDzv47cV6NJAx5BJViU8jQqPAwX61GzbkiIGuucT2tiA3vJpHlBQDxMBZ+YCE9Y5MG+fqUJfS4V+Gum8RnGgA9tdDJt520MPSQW6vLkM6ESaQ4mq0EWAfo4l5lETneJS6Av/5Ex4oHfdiTfkf/u8ZWPoc1vMVKGvYVJcjXcjUegGA9yG3uAq0AcA9EuY8/VMqApdCuhBfWVWuNoKoyq/XZgdqPh6vBp25ZM8FmaffUy4OeClAn0N69AnI1HoW+ZxgJcWM7fTx2NCgS6t0P1LNCDD0SrQRYD+NXKgU1PSTUwbtzBHyHd+7Qvo25gwlwOXcBjTA0iBLgR0rOnNKBT61JzAMqCMhM7kP6ACXfyXZw4DCqMV6ELn95SqqIGeY9k+jgzowG8ZZZD0AfRLx7rcEziKye4r0IWADhM6GYVCn3qjNCG2KXRpbxXo0QPd/4dvcaJAv5/VmT4qogY6QomxAZ0qdnwQVvRcPjNtZl6zMXSoWgX6esbQ4U1ULZZ6BHoT0Mq9bJ8r0OMH+pZ53SwV6PcGdOeBHjXRXUlfBgj0CVzJO75n5gNbttZWpEBfT4WOo1HoAZoOS1KgD0Khn7gJ3+lEgS5n+uJOisPIprMEAR1x2UdK8szsYELIVDcp0Nc1y30sMfTTICetAn0gQAd1ud8j0Cnqzq9eode4G1NXwGCF/qYPoL+wnMtdgb6uSXETOlWFrkAfIND5FEcF+miA3iWUf4ro/oQB3Z/hfoDeJo0CfaQKXXBmvAL9fwA9V6Ar0BXofSXFpUQbCnQF+uiBXuHbUfRyXzHQseDazirQFegK9P+b6CnATIGuQB890DPYU4XeM9C7+d3qclegK9B7BDqiAl2BrkCv8EYVeu8KfWbV5a5AV6D3tmyKsBUX0JsKFOgK9PsFuvUK/akq9N4V+h0/S0SB/mdAt5rlrkD/tQhaE5tC54cNLK0CXYEuq9Ddtir0nuvQF+bWZa1VoEsCXevQ4wK6za2FZlXV6paK9iKiDlke6LYCJsyG7QQV6Ap0SaBTBreq0H91eugF6FvmECpQoEvu6Il2iosL6HlOeZasbr2HmDpkLcyLgPGpzbK5U6Ar0AWB3ibwRBX67wb1tpdGpcSOXlKg/9GOhvRyd934VJ2Hfj9A7+bP+y1fVWMZBBcT0GfmymW8Q3DiLhToCnRJhZ7YRwr031zu7qwXoPOjlxTof/LLnxDZZqR5W6ICXcT0WSgcz3M62lndOjp4EhGhZuYasoBpzXgkP5RcgT5ioENC/1ag/3bD6EMfH8IDHRToouayxoDnGXxVoEuYPocFl7FgiwaNrn9O6CtvS9gTWjdL+X61CvQRA90mpC7339YcGvmW0Ar0HoA+txxiqLA4jWpPh+xyZ4uq/UnwR322srXYjGjPPNAtq9CR6vZAga5Al1ToGTwfS1JcwPhUnBMp0AcA9AXN+ddZbd/HtWODBbq/GMi73PGT2TS6fgDdZewBbepmV4GuQJcEeoWPx6LQaQI5q9DRKtCjB/rCnLcJspqxxkqBLnJ+H2HJAd3ihG5GMecpEOheK/Eud3ssf+kV6OMFuvOn7mwsCh2WNsDlXvfxIRTowht6xG8otLWdKNBF7s45sEBPoaTHCvRfQMeMNzcFuVfi1fMK9BEr9KaCcbR+7Qqdlm1A6Q3+JX7DFOjCv7xpDinh6gARa1KXuxDQqXTEtj3DL6PQBsEKHUPKZOXrMBToIwa6y+zHUdzCTfMJU9bj3vV+/dyDoFSgy1qsfdekATH0Lk1LgS4A9G0+dgdYxDUfZcVA32/T1PFeDfioQFegiyr001H4yboBKchNPIMUu9JlBXrsQL+0fNcOwARfx5WlNVCgz8wVscOFwOaADzQr7r+cSNye0QTl9ZQCPRDoZNcwKa7Gu5Eo9C10KesE8xA4EeeqAl3aYj3134l9nWHpruIKJw0U6N725cAVoiO0Y0mwDbvzh7YK6Xux28P7S4EedKj9L+K6Ad1ORqPQ/2XTnJd1hQXxNHcFuvR+7jR8PkQKpd1ToN+bd5LaCbxVoP8COlYhfS9KBfqqgA5Y2HUDOtb0ZhQK3X+/kubIfECE3OIrab+hAl36Ux5T3fI+4NhauQ8V6H594DuTp1hQZI18Vg70nDU3tRP3uSvQA60INmvocp/QyThqTabmM06I9dO6Ej/LK0oFuuBamGc2QWDL0PMUY5qoOWCgT81TKgNiHIVbaBD9550/oiWfg9uWdCb96FSgh+3SX8j2JcESBhdDhzdxGb3+jNKpN5eWlRk17kr73BXowgbrY0gIHWp7ENmODRfo58BaEoQ2cefqc//56vxCCR8WajN8If3TCvSwD7QHWWq5HGkanELHkSj0LXPuEiQWAwR4LSwzFOjSBgsSLnji+dLt6IOodmyoQF+YM1cTO57FJrQT2Y6vbM3MFOetZfvrFRYXwvdegR72SP2MpWMSPT3QtweX5T6OGHp3ZNDm3AAkBJyg9DdUoEv+7Ka5dAHjuS3WlCrQRVYXb7RzNsSBaWGv1ef+g6rXXR8E9tXpoXIr/+BdT6C3skA/tyUTgrXp3EYUtQtKipvQOLLc/ZGZAqV8rzhXuwNhn7sCXVYu7rVLVqBDipV7Elk0abhJcea9q1m1mfq782ocAbyQZydiEdAsIaMd8bfEegIdoURhoLNv1Ay/xbNNgTH0d6Pp1/gSs4DQa57SpazMUKDL2qsPbeb47+hKuIgsojtYoG+ZMyxbPisuwSNNc//57jwlNs29q5MFNLJ7NlCgExRcQLSkb5JAh7K594/TO9ArHEvt6NRsU4kBTrBKesiEB3qrQBeUPnxRNCDlXc8kVehCd+chnxXXPYYLvFSf+48tewl8mnsLbkLiL95BAh2xYFIOnGQbzzCgo3xXkp6BnsHeSBT6zFy5ImdHGhLW+EH2K3qg0xIV6ELKZ6+b5ck7MzM4jm3HBgv0bngY2yuuewwndKsDWn6c07MuSsHG+FyGL6U/1iCBzvcuwgQPxQzzd6C3XB0m4dCAXuHNSBR6l9kTIO1SwMzJPnK6irmJU6ALrWNvKHmPO2Z4HJtYHHAM3eRQ80WftgZn1On+tydphgU2vLmhgq5EPUlDBHrXWZ1NOcACrBhfPdCxZJ6otmiaYQHdeh3zdDxP6heOD6L7f1Bb0VL0B38zSIEuI3zuXB0wNS/FCq9iS9AaLtA3zGtM2MQFbFyFX1Wi/7j1u8i/PBGoxC+i3/x7WefAgO7/lm2ccEVkBTlJoEPJvVALGJzLvXLbY+kFMTWPuDPzPayFbYKSEn1m9qF2rQJdZh10k9bYITtgE7hQoMvZknfIOpmgSWGuEv0fc3MTYm463SmbeeWB7rhBb9EBfWqe2JJX6JJAf8inVA0P6JTBaIJeG2aGwLbj77xgNUlK9Jm5bmvg5ncr0MP28o6yHHiPu81g18TW5WS4QPcb+Z6vRP8+cs19U4nerU1zjWnOhinAUu1OJH/YA92/ZocHdCy5LiGSOWob5sRV7doBvU3gyYi6NXZngm/n7ndFckyxBzrVpC53GbAcU4BA98+nBN9GB5YBx9A3zHsKSF1IcS6oooauH4B9xnchPpun9EzQmbTZudxZz2x8QIeSWL6K5ah1w9aa4j/snT1PHEkTx3tn9m2G0c6MJtgIExkZERKRAZJD5ATzEpg3kVhYzgghsHQOcHLSfQCk+zAVVakrmXi+ytM9C7aeu0fugh14epjd5KQTZlF3V/36X1Vd9QoVek+/6wzQI2EQLOCcGmwuY4BuG2cugN7EkT4RCXRbb43r3vU4aTHQC/U3Dt2Nkxkw47uFRJ+B1Q5ccyLd/ESqWTVWwNlXReIKpgSYae+AzpI+L01VfM2mp7qUQQtz6D266wzQC/Wjykk7U4HIZa88aOy8C4EOC6ALvtEWGgkEOuSw6Z9QbDXQ120A2b3ynEK1yKLP/O9f1HPrB23Oc1idN7Zktumss+kaTnmldUDXxjxOGzIPW1avnW+e2gd03aMuhdxtS2p33LCMzU5yY1EwEdBxAXQJVa6rIQoy6EYn4r5/OrHNz9b6ahMkDfqAQyP+Fp8aBBMQuBv7UjbFm6bccKE+4xAd77GgBwe+Ad1ZoxbwFNca8sqF2kLnaxlMqGxfY5md7gTIBura3eFl9kk1XjS0MBKgI4b4tn1AL8mVhmoS6CN1SXnsDmICY6x9bFnWZqAX6pQy1ILgiNHxPxYd3evz+gYnDII0OqXMV42h6kxnrptX1fPseWFdFMfxiz1EH6lbmDgmQthm/Ny+xjJr3VHoS+oHhoK4ofVJQ/zQUORQmkPfa1nTTNuu0QAdXwroZnXe2sIsFEieHhx6yJR2K3SVUard5QulTr3qgP3/+0Rqm0DyJMNwLCccN3NiDdDdkyMo9KzEpAasdvXhiUtuZtisgfRXzF3XHnOBaJlCZ6PQjzpVwlIZdyOIGwa6yuFDM5spC7n3eK1lsqavBnZm5kspdJtAh5AFQMfSCJCdBdCbluiHZlndEp1sk769RaV7/bEpPkGCKNBGQJw3cwsSAh38mou3pE5xys5S1yE2k0QfqPeo49LplKtjj86xRKGXGVx3KIc+UPsoiRsCxhD34LiRu44BunYDfdjkS7mX+hw6q36aA3qktozJl26eVwHm5aaPRGk10I3etLMQBJdhW8Gw0Y2hzC62/oU9SUTQSEVOjSdugugSoCOH6BfQbbivTNyVRtjMsNmRurXVOL/fGcKJ0QX+nGMJ0DnU3zqk0CNzMRP0c591gE0CWm9ibWYK3WXVUzhr20YsqQ1n+7DGgB6pI23jl+zeOsKMzn0ESquBbnzuHknK4jDABPFs8XbtYXyEpJKQgHL4swmiixQ6htovoIuekZmrYk6XDfzdNuJOoXNwDkzKdy0DulHoB126SxfqmnoUSArjbC4QPqlibqEXqU/GWF1FccPqc/tc4C6+lEI3PIcqBRbsnM1b4pWPBQntBnqkbjCrSGI7mGo6WxTGGTyvYK8SSHSIAwhybILoIqBDyN4BnXXCzqviEA8aiCgP1HcM4jJwhZom5V3LgA52aHSHrtKF+kxZpSUaPUYI0dxj5zaxSL0n52wWHurWAb2eb/AiQO8PDM/BXLBi99axHeK57yVN2q7Q+wySChSbEs6xegGNHhUDr1P1kVrHRFIWBzqIIc6pAaK3FugEznoDxKTkRi49a1aKOL+uqZT9ywFdD7ul0O0MpFIyfbOuPS1Djftz93CK1CqGzkjxEFoI9FtwhoCaALrZgCOj+ghE+waY4MUC6M9xGz7FjEtBBUpglYJ+bqJH/XuT9vczUIcScvzU6DbqHs27Swbo2Dagmz9mg4aCvtw9fDP3sZpN9XC32U/8mjQkATrmdNKpZJehKw9RS4p7gIBTDcfzmlihdku3hbUS6Bs4eYFna0tKrVRGG5KI50GVY+6nn2850Pu1iioluxAw5GA0+tKzbUM/Mr96/c2K30Q3Et1mgGQhwQeiD+Z0N2c8RWwb0O/DfeiK/SR6/jeRRqCz8cixcy4BkU9LJAq5D2m/U/WoxvqHEIpysYboDElGhuhzJdKLuqdz/CqBrp8/5N43fmeT0gSl+jzI2dNmSS0H+kyiy/RmgJBro9GfiRp9u783K8iw7neq3jZ0DytR0Y4lehzw20/znYBCbbdRoffVCHXifEhGhsTzDvweqMKO3XS3VBg2EA14aaDncNKt4pVIndkmvjI4xLqMU/xyM9etuVCH8FoVurP/cjUn0MdmTbZYZ7GORVEVAM5439MWPW0HupXoZSqrKQ0IQ9TfzPFvfC/6kXHoo7MVonSCV367r0Jd0gRLobsJMAipvFDjaJ5vPOIWAl3VrV4q10IFhsQ8ZxCjUH8KHi8bBZ/i59YBfYj7HXsxWqgDEmUCH2KHPc3nZjX7T//CQ3JXqbxOoCNMcA6gW5yrQ1udCCDjeYAxeevk2w50K9GrrCplO2GrGPHLifG+TQbFx4PaSm6ROQ3j3EMu/fMO9NFIdC1zNxRrHGqjC+eIbAzUWzthuHVAH6k/0Blzt81lQppvfHyktuvHhNoZcQevIu7SKveTjj0YHaj3Nq0l1Hv2CVQP6YN6ul8yQNedVegw0Xfq+xw43+lBmqPT/B52iyo7lsVTH996oNv2HzpBcQQ5yTSdv1eNHez+oF6cz8dU6WkYM+TlhecBxkJ9Ylmhu61Rju1Ta6CVM3P6o/ET/dtXCHX7gD5QF0yJQKJjzvOUW9q6aOg5k64InFVrnnXTExTFDemgaz2dCrVPGSGJTMxmbjEJEdfM1hb9p+3DcXdD7ubSfWR/tBg/1j3NcJ5zmcUge5Zgyxgh0XSxAPrz2c4GTElKdCQMAesDMP/RHo+L+pd8v0UEnaW27gtD3vbdagq1Rz3hitnna0CpcTe7Z+qhjP/Rl66PEEL7gG7+nDXKGNxv0VPAwZP/eOOHDjCsnIIusP3u/XLJwhz6ZddaOo1tkVUoNjELEzZ+qTqx1vno8rix7U5HaWeBns980wzqj1i1pRrnVZnlJQTSvQKKU7z2dshN+4FudlDaKmVmOpxkZbV5abd/nl0ZF6PZfzZ2K6Qws+sYaNtjds93q6lb5hJIjzAHSBTmxLs39XXg0f7mu9ptJ9ALdWIb5QZOiYU92/c+euJBUj8wJx04BTqF8NGvBRJOWzvv0jz0+5PzjUPSQtVnG7trTKbA+Kf1HZHcM42XRvaOfaGn7i6DrzXkjolG/Hp7dH8mRwI7jEa1F9sxdpflxn5jKc7RdnH/4u9DpvYDvX6HhQkHUqKjxjgkrJEePc3RRKP7f7d6YOQ+Br0Eke8BmcGh91bTV6cGQaUwaVT3EEcMc2M2b2ZmNpCvVL0Wku7WoZfFB5uQo6sVYd22CJ5IdOOOP1WYYlA6BXoc+jYFWDgPfbVzTZfr2Xkhk5QTuhbpSWKQfn15fzBGv0VTf2lp9HNVV6/tCepoUVwQcJiSkXT49t0fD+s/WvpfJYYD879/rur6xhcue3kFku7tvwQhTnnL32V8BUA3XuUOh9InhPWeaA7DEr+eXtk9ftzD9GI0uv/5nXebzFzB1NwO6oYEWMuoKbUB6OqLHfsrPse2IAuxl2rmj2f3pvHbi3BhLOfnqdk6JncbKy+BXqhLO93adbQ4hjiFD1dPMBRzVPa5TNhZ1lnX3n30zvRECv26cwrdhmTZ1jkiPIIVECcZGKeydnfxT4uNlupP9K+r9PLWASQsilC+1pB7UGEc55MckInSndNt9+89W/7A1qPVOH/EHtV9pI49XrDXAHQD2D0cciktKgU2aojDvGK6Xp15VWMpLgO15vSA/u3TnZDNgYB8mMRYafj13dgGhW6nMyHF5SOOsg1tVHHSM0aDX5e//5dS+PX5V5Xu2ekyEWPC7vuWnwrdSnR39Adr+cxXj33dNzag24fEqCvnV5Q6DtkzgS4BujYKfauDY5HsKM4UH0MLW0SBmExzO+95AvurW8s3v7kJLm8d3VGQkKVMmMUB/Ye98/eJYwfi+HpNFlhW+0MUVC+pDuUpZap0BCklouFnEY5EaVBO6VKGAikpHiV/wJPeH+NqRnaztf+VN7MbCCG/fJdwa++tpUhwIC43a89nvvZ4ZmGz3JvsE4tpVuWS/BMZD/cutv76zkd9f7W1tX18qnLDVssLM90DYvhn2vic9dwHoHPaNtTFNM+Fd04opuP98sOLz76Vx9L62vqdsdT+4Pq9zq7eHvGcgVrmVYZN/bOv5kQQQCcBccrNOqfR6IrCIACUBVtNfbj49+VP/v7x9tb25g4XWrOghMA4DfIeOkt0IxzaNcQxrxROtlyb6ilE70+UTO2vz/AonvJPoDsqdPNw8RQ6y4x9mtPOd9eah2z5dItkes4l5Ig2MCrzJEkm+uTvy00al6eHE0Gv5OUEuEUIaEoHyjUAABTMSURBVFXmIstoBsWoFhbo7U0BDocwK/IcNWkICnQmjfFuRl6OuNQDarJaTFZLGedGT8ON5oLhhc+zuRdAp1l6DnHmvOnezACmU1pKjZCXW2+3zn/xFu+3NjffvlM8JYzCnGCetjC/u9cVBtCbZt/SmHiqMChVWhukQFjp1tskE/VovPllvN7DCS+dCWjLv0ILJynI3bhkOPjWD/1GomuHThsaEWxh4eQNzUa3T7HCv3dsQKbaxetr9O4E3Q3oKNXHRWxcTNGaVYVz9bFbYGq4VIg8J9MaQysOiU4NwBUgGo20tGpFP06KIuNX2hobiwz0z7bTXLlRp0Uh2Xg1kPFuBn2pdJ63ZsPvO+9f8hylOfHaYP0AOvm5XfIb0xG9iYgpGhbakglwfzQaTZ6Nx5fj2+Py7FFOPxjt83rilZXluShSVugU5n2vOEsYQGcyVFwGbboZ3ZrYQFZs5LnWFgxaCnF0M4zmBYT8T/GCymXBluJOkr9+MGktlY9A51N0p142fH+iKAH4EGf11zcBVptKwQZ0CXwv0OHAQ2rvBLoT0K1QTxdQofMS+6h0pmM19eAESQAKiNPq8xBl3rJIXL+SAQ9srpU61ojqOdA/e/XG3sRryKpvRka8hzbJdVqYs9uDWnCG+5LHBusJ0PkYXUvHDkdf0UljWlRJnsfYDNDmq9xTTY+fRo1NbCerKm32ufTnHDgVLNDpmW5zH1XEab1NEwgDcbpdMDK/NUrZLhwGuWrbsfzYUneGAB+L4PONYuV0o5iPcaBEM9rkXMu11R9/lqXVpn7B+WvAJEOXKzOGk2s9bCvupNCFfryQQKex7ZJS+UO90dxCgZZOwIdXPJplxSBv83bcqZRCAr0H+i3j1Xx8cackTM2b5tOZ7XZBDpvV+txvE/YE6Bw0pSicy/3c9sK15mXSxsIy2UiSjZtBXyeyaiCVaUAnQoUCdDLZU6y0y9nbzwPha3K3bof32flbCoGmWjcmU/qFj+Ua1qMLrvriMLEsb9lkAg28bvJsVwnqD75h+Wpbv+D9cQ4GpQXtskliFAgc+Xf71ekMXeC/iwn0lZXomU64/4r6vQHX9xxmZVELtFyNFwPo9zNI7pXedwLuC9DJzJd8GVils4VzjRznXRV1u82nAT4INs3OlnIMiIMBOo0DzKdMjPuuq4Fvv57+D1Uw8rJcA/2Xjox0a+jH2+5QJcri6OBlmzO4sry2fDOub/I92T0CrEuRaXSqUAVoMoBz/zYwXICuBT5dUIXO10NBAKReACmN4XwA+qyD9DmFpkd+98buEdBJ3I1rLsEJf4ZOMzMqHKCvRi9YPqkYPFgvFPzu+nkbZDV6YPlGMTrNIEZ6JriON+zuvnxz9ybA8psnRwcTsIoLVHGFKrdtJA1SffBwWjkWltlexKS41ilFE5SqjmsPlpjUO14f//oNdNJ8gly77xbsD9C5TqeqM4g7fvABKfTVaNnoCnCmXff7APqap2a6NMJqt7iHkV4bWwlZE9oRjg4PvoyT17zlgyCE4DsSjnk5fDgvzK6P2sCxsMzfi3qGziEqYKVU3P0Ko8DiXXB96b0BeswVZY4ib2u49xDoTUJyaVRaD0B3tthyQfPUB3dDbt9XoHO3AJTgHCo2aetgYlFWRcZ3AG6dhNuqKhttPlWBKlP8dsf1zoBuSKEfL6pCZwtd6TTzgehGwgD0mXmuodHnvvO8V0Anx7uDG7qOEQagu66XMYB7K+B7VejKV6A3HeTtBmp3BHNqMwBYiMWXLEsublFYaxtt7n6sCjEfoL/y0he7KPS6VB8WVqGzV/oPIVO6+4MtiQPQZ9vbYP/YnJ97z/NeAZ0d744uwZguF09QQKdxXGDJN8e7XjT+brkzt14ZRbp6qnmVYpP6/yWdjhMuuQTudLOT3hRy84+fc8oF6Ebqi8VV6Jzq/tiqjGuM1gPQgwQ6xAqD2G/vG9B5uu7YPEMdD0B3XzNGCfV7ue59BzpNrDHo7HfDxJmuAZDUL9QjT5NrHRX6YTAe5H6I/p+icFDHth6AHiDQU7A2jP323gG9IbqBDDAegO44PkXLoATUaToA/adE53k197AHYgRp9nxNrnVKiqs8rIgzb40OUJm64+trA9BnW4E1ZhsYCM/7BnSesB+MqnTd2a57cAp9nYiOCSJ2KtI9BzotgVPIQc35EgVgbaSCyFdH7HQPPVlshd5srrwY1Xn6B0rMDECfN89T3iGDUHjeO6CzkhmDrkClMADdleifALgdWpdE9x3onJ9hctLocyU6H94pdemtH3YBOlQ4XmiF3uqMHOKqnqXw1QD0LrfblYZS1Weh8Lx/QI+WOHNbC9AdrZ3wgM6r/B9dcLJ7OgD9Z0THuDBzzM9gb1IBjP0tZuG05Z7gwWIr9CZojq7IN6RapwPQQwE6R+86k2CeR8FU5Okf0NsMJisyZdMB6O5ENyiwQwHhPdDZSCcUKdoZ+jTNeninso36aNljZ+J2hq7GwYHkjw8SeNvceRhUV5UZYQD6tAtQA8han6xHqyuhGKyPQCcH+OKIxBToLhRniEBnd/N8omTRHdL9Bzpz9UwrydfI798lA6fDFTHuRT47YTeFDoNCp9nzgOsTKZGaOjYdIJ3YZHZCBLrOOwmAuDgHFAnCYRSS1XoJ9FZMKWG6wFOQQGekf3qHKFI9LwEaHtCjlbXoEnXJd4rv2yU3bV7Im5xEXk8mxyz3hT9Dv/ZKx4CFBNuJSgepRyECHXOcvxeHNEZjS0L686B43lOg8yN4pSkarnHuIj1QoLPJHoMuCuimW4vPleK+EumPUAtyyfdqI+6pClmC5pXnh3dOSXEJHg4KvZk9PH0Akmw+mzx3n4MwVwEC/aHqYMu9bZtYWtiMAtpu7zHQo5X16Ay4upeq03mDKUyg87b7yjPAJO7C26S2tAEAnZ/sRwMbmb3H4twIcc0ZDXD0Mlr325s4nqG/HRT6TdT8fAdVs8mDcw+ZzZPgnsNadIolNK2t54tzWwmAgzfBZLf3HeiNstkFJVM1zyvpNPFKOArVfZG7+QsglsbOH+l1qfZCqPhN0+rlHkCZcvGi+zASufoaoEgAPkbeTyTHbmuvF7iW+x2hQXx4avgWjrU4zwNBequyfhWcZ1ribnXZTCUWZ3bhMV+1FArz7Si8edtfoDOezgFVAfNqjADKxErz1nGoeoS8zYOHCFIi4crOMf8EtRH4OAi7rdAavzKmEM0xuvnz6qBGKEplSJ77bw/Hfuibg0K/vccTnQIRA+eV8A7cVsBQEIrnwW25r0RRrfIMmoZG82A6cPdjwjnkW1EU4OWMHgOdSy5GBySZC5hL4ThuW02h3cTsB6xHCOnjfVBSAph4TgoCuCIaSLMZyPohl/yERXrh3tLcebc91gqKXAE8Jlr6f3jnqNA/DAr9llui+XO+YyAWBbRO4153vlLNb2HSUpZwFmJg9YisVCSFAavv2SM1tmrUeYvzEKPQPgO9PbKCFun6f/bOnqeNpgvDXq9tvPZqP7QFFVAZEVGmojNIKRENhLiAGEQTxaJLCQUSb5E0kfgBkfJjpprRTLP1/JXnnNk1kBDABHjeZ9f3pShgg53s2ZlznTP74ebrHkynmallL6GxMBlV7bjLL2tcGSvdsNKN0K9+xnv5OaPNJI3VSVUKYm7S1z9QmvF69gXXAvnQHb8pfbdUkXQyg9A1dehDdOi/zLE+K11ZnXg985qHBLngpCGl0o4vhJU0wyqXmaio/XhslZZpEiuZv9aBrnL+CWlTL7eFzrtVHFv1Fro7RXhsFCndylf8RDE3zGToiVwOVquebtiqH/esir1Qmde8iI33SK6M8ju+UlKpoDK3Y2oElBjHVtEuV+qFyh631t7zEmWj4/WqpJPZOnSzjA79t0Ue2rvZWMo8XqQ2/VWuK5G6qSRZPEw8nzp0uXNJNq+go9x/+eg9Vf3S95OUtil/haTkVvQtNec+dWTV1XnthV6cpDg2Unk+39z9NfTEJzxTLvapOZeHw0aj+nfFypzSpRQe30VF61cohKS7gyq9u++lKpdyZ9RoVCrd8E5e/yBt00tpK/Lm887DdUfuSOfNXJqfFUonswhd+eISHfqfxk/j6y43G37PuNT0opUypSVpQs/zjJJm7/Aym/Y3FUxHrho8f59SfyFpi/iqvxdN5cXxearOPaHM4qjCOp8DobtDVvzxhVSqptaKF77cyDRzTeWvT2PBmP13jUY9UhdvxMlXabhk7VmhRfMFLxxx84cvzvI936ewbe+MWhVMN5lTOmXkRef0v+7TORzKmp7nNY3ZHdO7LlRmYXQWoVtPvEWH/odWgwfQ+U4iRUhOt9Sov4CjispASyNi3+tQfjLqw+FB8c+1W1UNVStgA/VP1nYHUmrV8fzQSC1e5Dw5viMc29xPciE39g8qrfN5EHqp9M0P0mhKvS80ca4PugjZS8nm0g4+k86zKo+FO7paODql+UNOj83L1MRlI2KkjT0vSblR3zv74hqWrF25yHUDypAnl3wGLjvdupPanhajoraRltIJvdJ8WG9U4ly4p3Xonl6D0P/oKber354qJZodP7TFJPvbWVaMJU0zNvb9TqSEUmZl/8DZfCFoVz1WQTGENndWaMLpPCKp04wRz7N63hSFzTsiN2Zl2Ki4zudD6MWZXqT0xNg8Sd2KzXOPexZqkmTzxKcvG2ecirN2jbJN13UQB8t7UuV5x0975eyRz1E5L7KHvp90tJKUbrY/rVc73bDSqcuKqF+gtiE13KkXjp49IBSPTq6kOV36wn1UpdqomY6he+oHhH7fAOLAHPzYkFKpTpqG2o2g8rOf5axTqxxKlgrl1Ot0yOQ0zfbebJa1clCPLqMVFFJf3zw8pXJF68ilJQqdLu/xLWdORvSCplB8Pm4v9SNllDldPeEBXfVYzYfQWemcKI92FqkajrxYPqflpFKYJpCyJk4XUzLT4Ptmo246LxYF3YG+9bd7kTSqyfnm6U3ETbqReS9NU2odlKKWdnv7/LxwQrWnkCt7GueHEWVkkVCGCXlT+QDFzef3SvHrN+75XBpNAfEirYyRe1tfrgNeM6FrT2HJ/SFNcd44WCKnG2o8O2kc94SVXBvyXQ6k1rpYCrzndjHaXfSpe3Ece1GitZEq2tg++uxydhAE7ZpFK3Nz5ODoeCC5PYhdxEInZzXbJyxw4cPzU1LIFqOUXiULm9eh8pkXobtKlf/+uSEtZd4ojUP7N3oq5GRknCYRSd1O3jgv1aUKvhM0t13dT7sbRlEhTLUQNxFkZIpZfs9Vobe1xYmJHlO68aOIL8hSuTxNLj8V0cqCGhyiaBUD6+hwsqEkTaYoinxKFTFvanGeBaXqIg7ubB567NIvBSTVWubmdDI8KJJv5bZ9xhvLbOGkuIcnGVt3/TLZoCGiRJ7SEIo6cUlIfr/nrFSqIXkkxR0aSqR+8tQg3jkaTd+1fi1GmciLmfJu9GmPrG64qOGIJfHMJC7C9DolzGBv9Z1711pEa46EPk29mx/fk5GM1jwCwkI4fAHVIybPi6VUKXshlcKdnKaen36ttc0LsqIm3ryKNwynkOnMCWV+XQo5WVlZUDxLX5X7PY/mDrWtxuZ2MIlGF5tlugnq8xnZpdMbny8GA8tVDC8IuqRR0kmIW48pF3NdZDfU928HjYravDHzjWXeoEN/1OnuUMvB1upATPhqM/qjDRmH+vNmJ7ofwb9lRS4nHX38bVguG7Wzmsr8ZmGsXHr4OPoh04nMKRmRnPVMcOlDiUzFkRivfivWIusSrrkSuku9buKMRpOEGijqORcjPwxD2sWl2NW0xZTTw1g9t6pFvhKSfjOJPE0Z2/rix/BW41/zZcHyDNnN1X1lKWyuKta/5ZnFJPUXF5PFm2d8wUnJ8Br7ROxdDMtL9Fvkv1bdQtTN2kVOeLc1+rwtksSnnEz1DyEoZJRBTPlQ8f0xJr7Y/jb8XCSnVmVrmxmEroRvR+jQZ1pBLPuCi6WtreEV5SRKPMYtiGn5R4TJbSyEHQ+vLqbjsN3vt+YjYO3+9fre5trwcnSmjZ5xnfV4dLm1tXQzdesTlHkTOk+cfrH/Ti6XRch9Jc0X6iITsnWoXK8pykbT/WUtKYl+4nM5zD0pufxw9aoYCkE2d/nmy3j0JudW3apppFzMcncbC/5euaepZjYx9eViZ3Xr6uN07nSzflDbEHWzrHuzVkMpY8rw7f7x8uFo+sxw7fzOaKys0EXUfISO+I4OfdbcdDdQ/zu/WruPq7ebtw23kHXnLWLZQva8l9csHc2h0Dnz9q9HwXi4SwaSvHLlTrEoSdMwjf2y2/SEou6KymQl1NnS5fXka81dvlm4vclraz9u5ZatneXByvfDs8Ot8omf49Gvyb8/F9UPdUizXXjWrUFAWOidx/qhVOLWr0+0DJE9aV4uzHeAA47YEyrjNv9+LfP3fAq93Kk3xdna8ng/d8ujMs9zqVxrzidmFx8cwj9YWfu6PI1Da6Hfnde5Q3PhaUVtd2Eu0023v3BD1m4H7VuP69IWZI3h4x/rbcxaI2iAJ48gR6OV3R5JvxM0ul2E6nbAZqG+MZhjofMIIDVfbxsXeBfHb5jvb3vb8jQ83V/mR2fjxs1tzNrkcswgnhSt3/JMK+Drsm97K6v55AG0c9+1gsdYQKAAgND/NTuxm35fsLmzzbyoAz0B8DfeBwBA6P8iLSKYNpfFU+XDPv8IYwWAu65uzQDCBACE/v/t2rFaDAAAAEIHAAAAAIQOAAAAAAgdAAAAgNAhdAAAAABCBwAAAACEDgAAAAAIHQAAAIDQIXQAAAAAQgcAAAAAhA4AAAAACB0AAACA0CF0AAAAAEIHAAAAAIQOAAAAAAgdAAAAgNAhdAAAAABCBwAAAACEDgAAAAAIHQAAAAAQOgAAAAChAwAAAABCBwAAAACEDgAAAIBbpCbW+UNA6AAAAMB/n0hG3oP4E/EVQgcAAAD+2yhplX0IY+wZhA4AAAD8t9k9Xdl+mJXJz0aGQAEAAAAAAAAAAK9KEGTBw2RZC2ECAAAAAAAAAAAAAAAAAAAAAAAAAAAAAAAAAAAA8E97cEACAAAAIOj/63YEKgAAAAAAAAAAAAAAAAAAAAAAAAAAXwHVmf61T36kKAAAAABJRU5ErkJggg==;" vertex="1" parent="1">
          <mxGeometry x="980.01" y="212" width="55.91" height="31.45" as="geometry" />
        </mxCell>
        <mxCell id="eZahiFkefNz_Pke4YgP0-5" value="" style="shape=image;verticalLabelPosition=bottom;labelBackgroundColor=default;verticalAlign=top;aspect=fixed;imageAspect=0;image=data:image/png,iVBORw0KGgoAAAANSUhEUgAADwAAAAhwAgMAAADt0CPhAAAADFBMVEVHcEzwkwDjdAD5qwBXK67iAAAAAnRSTlMAgwIiH6IAACAASURBVHja7N1NiuNWFIDRFqbR0GQQaqil2EtIICbDWoq25iVokOzDg2SW4gWaHoTQCeX2fffpls9ZwoWP9yPJ/vQJAAAAAAAAAAAAAAAAAAAAAAAAAAAAAAAAAAAAAAAAAAAAAADgix8ul8vPxgAFXX5tX11+MQ2oZLq0f3q7GAmU8ePa/uXNKgxFlt/X9g2/GwwU8Hlt3/T2k9nA7vtt/0XBsPvjb/sfDsJQdP39whoMdftVMOzYtDYFw8ftt72dzQl26bW9w5/mBHv00t7lN5OC/fnc3skxGPZnfW/AjsFQdQPtGAw7NLU7bOYFu/J6T8A20bArc7vLHyYGO9pAr/cF3CzBsB/Lnf26x4IdLcDtbpupQdUFuLU3U4OyC7AlGPbi9XsCtgRD3QXYEgyFF2BLMFRegC3BsAfL9wZsCYa6C7AlGAovwJZgqLwAW4JhtJdHAvZREoy1PhKwj5JgqPmhfi3BUHgBdo0FI03tQZsZwjDLowFbgqHsDto1Fgw0P9yvaywY5vR4wPbQMMjUAmzmCEO8RARsDw1jrBEBu8aCujtoe2gYY4kJ+C+ThLI7aHtoGGEO6tceGuruoD0Khso7aHtoKLyDtoeGwjtoe2iovIO2h4Zsh8B+7aGh7g7auxxQeQfdmnlCpim0X3toSHWMDdg3hVB3B+1BEhTeQXuQBJnm6IBvZgppluiA7aEhT2v20FDVIT7gzVSh6g7agyTIs8YH7BAMSabWHIKhqrlHwA7BUPYI7BAMhY/ADsFQ+QjsEAyFj8AOwVD4COwQDIWPwA7BUPkI7BAMhY/ADsFQ+AjsEAyFj8AOwVD5COwQDIWPwA7BUPgI7BAMhY/A/mEFKh+B/cMKFD4Ct3Y1X+jq2DPgzXyhq1PPgN1iQV89+/UqB/TV9Q7LqxzQ19w34KsJQ0dL34BvJgwdrX0DdosFPfXt1y0W9HToHLBbLOho7h3w1Yyhm6V3wDczhm7W3gG7xYJupt79usWCfrrfYbnFgn7m/gFfTRk6WfoHvJkydLL2D9gtFvTSv1+/iwW9JNxh+V0s6GXOCPhsztDFkhHwZs7QxUnAUNeaEbBraOhiyujXy5TQR8odlmtoKB3w2aShgyUn4M2koYNVwFBXTr+uoaGHKSlgb0NDB0l3WJ4jQQ/HpIBdQ0MHS1bAV7OGcKesgDezhnBZ/bqGhniTgKGuQ1rArqEh3JwWsM8ZINySF/DZtCHYKS/gq2lDsDUv4M20IVhev66hIdokYKgr8RLacySoHLDnSBBsyQz4bN4Q6pQZ8NW8IdSaGfBm3hAqs992M2+INKUG7DkShDqkBux37SBU6lMkD4Ih1jE1YA+CIdSSG/DZxCHQmhvw1cShbsCbiUOc3KdIrd2MHOoG7EEwBJqTA/YgGAoH7EEwBDoKGOpKfgzsQTBEOgkY6lqzA76aOYTJ7tebHBBnSg/4ZugQ5ZAesDc5IMwsYBCwV7FggPTHwN7kgMoB+00OCHPKD/hs6hBkFTDUld+vV7EgyjQg4M3YoW7AN2OHGIcBAXuTA4LMAoa6jgMC9ioWBBnwHodXsUDAwIgXsbxLCVHWEQGfzR0EDM9uRL/epYQY05CAN4MHAcOTOwwJ+GbwEGEeErB3KUHA8OyOQwL2MjSEWIYE7F1KEDA8uyGvQnsZGmKsAgYBexkaBmgChrKmQQFfjR7qBrwZPTzuIGAQsK8ZYIBZwCBgXzPAAEcBg4B9jgQDLAIGAfscCQY4CRgE7HMkGGAVMAjY50gwQBMwCFjAkG8aFvDV8EHAIGAfBENFBwGDgAUMA8zDAr4ZPggYBOyLfqjoKGAQsIBhgGVYwH6SAwQMAvaTHCBgAUOuk4BBwAKGpwrYj2LBw1YBg4AFDM8V8Nn0QcDwvJqAQcAChucK+Gr68JhJwCBgAcOTBbwZPwgYBCxgELCAQcDAexwEDAL21wwgYEDAIGABw97NAwP23yogYBCwgEHAAgYBAwIGAQsYBCxg+FgB+4dvEDAIWMAgYAGDgAEBg4AFDAIWMHysgN+MH6zAIGArMAhYwCBgQMAgYAGDgAUMAgYEDAIWMAgYEDAIWMAgYAGDgAEBg4AFDAIWMAgYEDAIWMAgYEDAIGABg4AFDAIGBAwCFjAIWMAgYBCwgEHAAgYBAwIGAQsYBCxgEDAgYBCwgEHAgIBBwAIGAQsYBAwIGAQsYBCwgEHAgIBBwAIGAQMCBgELGAQsYBAwIGAQsIBBwAIGAQMCBgELGAQMCBgELGAQsIBBwICAQcACBgELGAQMAhYwCFjAIGBAwCBgAYOABQwCBgQMAhYwCBgQMAhYwCBgAYOAAQGDgAUMAhYwCBgQMAhYwCBgQMAgYAGDgAUMAgYEDAIWMAhYwCBgELCAQcACBgEDAgYBCxgELGAQMCBgELCAQcACBgGDgAUMAhYwCBgQMAhYwCBgAYOAAQGDgAUMAgYEDAIWMAhYwCBgQMAgYAGDgAUMAgYEDAIWMAgYEDAIWMAgYAGDgAEBg4AFDAIWMAgYBCxgELCAQcCAgEHAAgYBCxgEDAgYBCxgEDAgYBCwgEHAAgYBAwIGAQv4b3buGLWtIAjAMDJYRao0dqEj6BQ6goo4hY/wTpEjqLB7FxJYe8oQHAIJJujtzr55C993BMPPzoyfDQIWMAgYEDAIWMAgYEDAIGABg4AFDAIGBAwCFjAIWMAgYEDAIGABg4ABAYOABQwCFjAIGBAwCFjAIGABg4BBwAIGAQsYBAwIGAQsYBCwgEHAgIBBwAIGAQMCBgELGAQsYBAwIGAQsIBBwAIGAQMCBgELGAQMCBgELGAQsIBBwICAQcACBgELGAQMCBgELGAQMCBgELCAQcACBgEDAgYBCxgELGAQMAhYwCBgAYOAAQGDgAUMAhYwCBgQMAhYwCBgQMAgYAGDgAUMAgYEDAIWMAhYwCBgQMAgYAGDgAEBg4AFDAIWMAgYEDAIWMAgYAGDgEHAAgYBCxgEDAgYBCxgELCAQcCAgEHAAgYB+/GDgEHAAgYBCxgEDAgYBCxgELCAQcCAgEHAAgYBAwIGAQsYBCxgEDAgYBCwgEHAAgYBAwIGAQsYBAwIGAQsYBCwgEHAgIBBwAIGAQsYBAwCFjAIWMAgYEDAIGABg4AFDAIGBAwCFjAIGBAwCFjAIGABg4ABAYOABQwCFjAIGBAwCFjAIGBAwCBgAYOABQwCBgQMAhYwCFjAIGBAwCBgAYOAAQGDgAUMAhYwCBgQMAhYwCBgAYOAQcACBgELGAQMCBgELGAQsIBBwICAQcACBgEDAgYBCxgELGAQMCBgELCAQcACBgEDAgYBCxgEDAgYBCxgELCAQcCAgEHAAgYBCxgEDAIWMAhYwCBgQMAgYAGDgAUMAgYEDAIWMAhYwCBgELCAQcACBgEDAgYBCxgELGAQMCBgELCAQcCAgEHAAgYBCxgEDAgYBCxgELCAQcCAgEHAAgYBAwIGAQsYBCxgEDAgYBCwgEHAAgYBg4AFDAIWMAgYEDAIWMAgYAGDgAEBg4AFDAIGBAwCFjAIWMAgYEDAIGABg4AFDAIGBAwCFjAIGBAwCFjAIGABg4ABAYOABQwCFjAIGBAwCFjAIGBAwCBgAYOABQwCBgQMAhYwCFjAIGAQsIBBwAIGAQMCBgELGAQsYBAwIGAQsIBBwICAQcACBgELGAQMCBgELGAQsIBBwICAQcACBgEDAgYBCxgELGAQMCBgELCAQcACBgEDAgYBCxgEDAgYBCxgELCAQcCAgEHAAgYBCxgEDAIWMAhYwCBgQMAgYAGDgAUMAgYEDAIWMAgYEDAIWMAgYAGDgAEBg4AFDAIWMAgYEDAIWMAgYEDAIGABg4AFDAIGBAwCFjAIWMAgYBCwgEHAAgYBAwIGAQsYBCxgEDAgYBCwgEHAfvwgYBCwgEHAAgYBAwIGAQsYBCxgEDAgYBCwgEHAgIBBwAIGAQsYBAwIGAQsYBCwgEHAgIBBwAIGAQMCBgELGAQsYBAwjGbz8PTLVwHDcPU+PZffrk9HAcNQ+Za/XI4ChlE8TOVfrwcBwxDP7/fyies3AcP63U/lc68ChmH77VawgCGs3/IfFwHDsP12KljAEHS/msryBQsYlum3lBcBw0o9l5JQsIAhwmO5xVHAMN4B688XHQcBw4gLcJ9DloBhmQX4w0nAsDLbcruDgGHMATp+iBYwtNqVOU4ChhW5n9Vv7CVawLDYBevDWcAw5AUr/I4lYGgzzQ74LGAY9gGO/KJSwNBiM1UEfBEwrMJjqXESMIz6AJdyFTAM+wDHPcEChsUf4LgtWMBQb1tqHQUM2abqgM8ChmEf4KjPsQQMCQ9w1BMsYMh4gIOeYAFDrV1TwC8ChkSbpn5jPuYQMKQ8wDEfcwgYEk5YUWcsAUPGCSvojCVgqLNvDvgsYBjzhBV0xhIwpJywYs5YAoaUE1bMDC1gyDlhhZyxBAxZE3TADC1gqBHSb3kXMAw7QbfP0AKGtAm6fYYWMMy3Ceq3+VfBAoa8Cbp5hhYw5E3QpbwJGEadoJtnaAFD4gTdOkMLGBIn6NY7tIBhtsB+G7/lEDBkTtCNM7SAIXOCbpyhBQxzTaEBnwUMC7orsQQMw07QpfwQMIw6QbfN0AKGeTbB/TZ9jCVgmGcbHXDLL5IEDPPswwM+CRiWEt5vyxIsYEieoFuWYAHDLLv4gBt+kSRgmGXqEPBJwLCITYd+G/4iScCQvAK3fE0pYMhegRuWYAFD9gpcypuAYdQVuGEJFjCkr8D1S7CAIX0Frl+CBQzpK3D9EixgSF+B65dgAUP+Clz9ObSAIX8Frv6bYAFD/gpc/Tm0gCF/Ba7+m2ABQ/4KXL0ECxhWsALXLsEChhWswLVLsIBhBStw7RIsYLjVXc+A3wUMXX3pGXARMHS17xrwQcAw6g2r8oolYFjDDavyiiVguNG2b8BXAUNHu74BFwHDsDesuv/KIWC4Ued+q65YAoZV3LDqrlgChlXcsOq+xRIwrOOGVXXFEjDcZuoe8EHAMOoNq+qKJeCf7Nwx2bNKEIDRhxQUSEACKtCDCiQggYIiicrfwE0CucMs++W8GjjNzLDSNWZYX02xAJauMcP6aooFsHSRGdY3x5QAS7sazgf8xRQLYGlXUwLgGWCp1hnWN2NogKWLzLC+GUMDLO2pywB8B1g6pT4D8BNgqdoZ1hdjaIClPaX4PT6GBlja0S0H8AqwdEJtDuANYOmEuhzAd4ClExpyAD8Blk5oSgI8AiyF1yT5PTyGBli6EOAFYCm8NgvwBrAUXpcF+A6wFF6fBfgBsBRe1hD68B4JYOlzaX6P7pEAlj7W5AFeAJaCawEGWADH75EAlj7W5wG+AywFN+QBfgAsBZe3RTq6RwJY+lii34N7JIClTzWZgGeApdDaTMALwFJoXSbgFWAptD4T8AawFNqQCfgBsBTaBDDAqrfn87J7JIClDzUAA6x6u+UCXgCWAmsBBlj11uUCXgGWAutzAW8AS4ENuYDvAEuBTbmAHwBLgT2TA1iKq8kGPAIshXXLBjwDLIXVZgNeAJbC6rIBrwBLYfXZgDeApbAGgAFWvU3ZgO8AS2Fl+z10yQGw9Lb0NfChSw6ApasBHgGWgroBDLDqrc0HPAMsBdXlA14AloLq8wGvAEv1At4AloKaAAZYAJ9zigWw9LZ8v0dOsQCW3lXgjuPIKRbAEsAA6492KwF4BFgKqS0BeAZYCqkrAXgBWAqpBxhgAXzSLSXA0ruGEoA3gKWQJoABFsAn3VICLL2rhN8Dt5QAS29qAAZYAJ91Swmw9KYbwACr3toygEeApXoBzwBLAXUAA6x668sAXgCWAAZYv91QBvAKsFQv4A1gKaAJYIAFMMBSgcr43f87EsDS6wqdQu//mwFgCWCABTDA0rUq9DPS/t+RAJZe15YCPAIsAQywAAYYYFVZVwrwDLD0v+tLAV4AlgAGWAADDLCqbCgFeAVYAhhg/XJTKcAbwBLAAAtggAFWlZXyu/uPfoAlgAHWX6wpBvgBsAQwwAIYYIBVY8Ue5Nj9JAfAEsAA6y/WlgM8AiwBDLAABhhgAQywlFlXDvAMsAQwwAL4um/qACy9rAcYYAEMsAQwwBLAAOtHGsoBXgGWAAZYAAMMsAA+4VlKgKWXTQADLIABlgAGWAIYYAF8kZfdAZYABlh/sSfAAAtggKXfAvwAWAIYYAEMMMACGGApsQZggAUwwBLAAEu1AH4CLAEMsAAGGGABDLAEMMASwAALYIAlgP+jEWAJYIAFMMAAC2CAJYABlgAGWAADLAEMsAQwwBLAAAtggCWAAZYABlgAAwywAAZYAhhgCWCABTDAEsAASwADLAEMsAAGWAIYYAlggAUwwAALYIAlgAGWAAZYAAMsAQywBDDAAhhggAUwwBLAAEsAAyyAAZYABlgCGGAJYIAFMMASwABLAAMsgAEGWAADLAEMsAQwwAIYYAlggCWAAZYABlgAAywBDLAEMMACGGCABTDAEsAASwADLIABlgAGWAIYYAlggAUwwBLAAEsAAyyAAQZYAAMsAQywBDDAAhhgCWCAJYABFsAAAyyAAZYABlgCGGABDLAEMMASwABLAAMsgAGWAAZYAhhgAQwwwAIYYAlggCWAARbAAEsAAywBDLAEMMACGGAJYIAlgAEWwAADLIABlgAGWAIYYAEMsAQwwBLAAAtggAEWwABLAAMsAQywAAYYYAEMsAQwwBLAAAtggCWAAZYABlgAAwywAAZYAhhgCWCABTDAEsAASwADLAEMsAAGWAIYYAlggAUwwAALYIAlgAGWAAZYAAMsAQywBDDAEsAAC2CAJYABlgAGWAADDLAABlgCGGAJYIAFMMASwABLAAMsgAEGWAADLAEMsAQwwAIYYF+IAAZYAhhgCWCABTDAEsAASwADLIABBlgAAywBDLAEMMACGGAJYIAlgAGWAAZYAAMsAQywBDDAAhhggAUwwBLAAEsAAyyAAZYABlgCGGAJYIAFMMASwABLAAMsgAEGWAADLAEMsAQwwAIYYAlggCWAARbAAAMsgAGWAAZYAhhgAQywBDDAEsAASwADLIABlgAGWAIYYAEMMMACGGAJYIAlgAEWwABLAAMsAQywBDDAAhhgCWCAJYABFsAAAyyAAZYABlgCGGABDLAEMMASwAALYIABFsAASwADLAEMsAAGGGABDLAEMMASwAALYIAlgAGWAAZYAAMMsAAGWAIYYAlggAUwwBLAAEsAAywBDLAABlgCGGAJYIAFMMAAC2CAJYABlgAGWAADLAEMsAQwwBLAAAtggCWAAZYABlgAAwywAAZYAhhgCWCABTDAEsAASwADLIABBlgAAywBDLAEMMACGGCABTDAEsAASwADLIABlgAGWAIYYAEMMMACGGAJYIAlgAEWwABLAAMsAQywBDDAAhhgCWCAJYABFsAAAyyAAZYABlgCGGABDLAEMMASwABLAAMsgAGWAAZYAhhgAQwwwAIYYAlggCWAARbAAEsAAywBDLAABhhgAQywBDDAEsAAC2CAJYABlgAGWAIYYAEMsAQwwBLAAAtggAEWwABLAAMsAQywAAZYAhhgCWCAJYABFsAASwADLAEMsAAGGGABDLAEMMASwAALYIAlgAGWAAZYAhhgAQywBDDAEsAAC2CAARbAAEsAAywBDLAABlgCGGAJYIAFMMAAC2CAJYABlgAGWAADLAEMsPSPnbvHdaSIAjAqW8KBIwiYwEvwKmYJL+ARzBJ6FV5CB5A76JHcvUqEQCAB49ddfesPn28NdVRVt8sGGGAJYIAFMMASwABLAAMsgAEGWAADLAEMsAQwwAIYYAlggCWAAZYABlgAAywBDLAEMMACGGCABTDAEsAASwADLIABlgAGWAIYYAEMMMACGGAJYIAlgAEWwAADLIABlgAGWAIYYAEMsAQwwBLAAAtggAEWwABLAAMsAQywAAZYAhhgCWCAJYABFsAASwADLAEMsAAGGGABDLAEMMASwAALYIAlgAGWAAZYAhhgAQywBDDAEsAAC2CAARbAAEsAAywBDLAABlgCGGAJYIAFMMAAC2CAJYABlgAGWAADbIUIYIAlgAGWAAZYAAMsAQywBDDAAhhggAUwwBLAAEsAAyyAAZYABlgCGGAJYIAFMMASwABLAAMsgAEGWAADLAEMsAQwwAIYYAlggCWAAZYABlgAAywBDLAEMMACGGCABTDAEsAASwADLIABlgAGWAIYYAEMMMACGGAJYIAlgAEWwABLAAMsAQywBDDAAhhgCWCAJYABFsAAAyyAAZYABlgCGGABDLAEMMASwABLAAMsgAGWAAZYAhhgAQwwwAIYYAlggCWAARbAAEsAAywBDLAABhhgAQywBDDAEsAAC2CAARbAAEsAAywBDLAABlgCGGAJYIAFMMAAC2CAJYABlgAGWAADLAEMsAQwwBLAAAtggCWAAZYABlgAAwywAAZYAhhgCWCABTDAEsAASwADLAEMsAAGWAIYYAlggAUwwAALYIAlgAGWAAZYAAMsAQywBDDAAhhggAUwwBLAAEsAAyyAAQZYAAMsAQywBDDAAhhgCWCAJYABFsAAAyyAAZYABlgCGGABDLAEMMASwABLAAMsgAGWAAZYAhhgAQwwwAIYYAlggCWAARbAAEsAAywBDLAEMMACGGAJYIAlgAEWwAADLIABlgAGWAIYYAEMsAQwwBLAAKvJfnj/o+8BBlid9d3734v86/tngAFWR3y//GOdvwMMsHrp538v9PkngAFWF9vv8J9L/VeAAVb7/fittf71M8AAq7/j81/H6DeAAVavfnMJBhhgBfXpg/X+BjDA6tbvMn8GGGC1On/+eMFnEAwwwCrkd1m+AgywWuwwrFryvwAMsBrsy8o1/wYwwOpvgJXrGgwwwCpzAc5yDQYYYBU7QP/eCDDA6vMAHX+IBhhglUU0AQywGuqycd2/AQywepxg/XmIBhhgNdOweeGPAAOsRjptX/iBcyyAAVbhDTjyRSXAAGtPnzIufYABVt4OQ9LSnwAGWN1uwHFbMMAAq/gGHLcFAwywio6gY7dggAFW2RF06CAaYIBVYQOO+hYMMMCqsAFHPccCGGBV2ICjXkQDDLBS+7Jr+Y8AA6yK7cQzAwywKnYpsv4BBlgNbsAxjzkABlgVRlhRX5IABlhpDbsBjAADrF5P0CFjLIABVpURVswYC2CAVekEHTHGAhhgVRlhxZyhAQZYtU7QAWMsgAFWPTgTwACr1xN0wBgLYIBVaYQVcYYGGGBVdPMAGGAV71wYAcAAq8ET9O4zNMAAqyabCWCA1ekMev8ZGmCAVfEEvfcMDTDAqqrmATDA6vYEvSwAA6yiXUMZjAADrF5P0Dvn0AADrKon6H2/KQQYYG3sEuzgBjDAKtewtHOGBhhgbesY7WAGGGB1e4Le9RgLYIBV9wS960MSwACrNpkJYIBVqFMGCQADrG6vwHs+JAEMsCpfgZflDjDA6vUKvOdDEsAAa0vnihQABlgNXoF3fEgCGGBtKQ+FCWCAVaBjHgozwACr2ytw+iUYYIC1oWsmCyPAAKvXK3D6JRhggFX9Cpx+CQYYYNW/AidfggEGWOu7ZMMwAgywer0CL8sdYICVuYxcHgADrMydMmoAGGB1ewVO/U0wwABrdUNGDSPAAKvXK3DqUw6AAVYLV+DEpxwAA6y1nRvgADDASuyalcMIMMDKWV4OE8AAq9cZVuJTDoABVgszrMSnHAADrJVdmvAAMMBKasjsYQQYYPU6w0qbYgEMsNZ1zO1hBhhgdTvDSppiAQyw2phhJU2xAAZYbcywkqZYAAOsNmZYSVMsgAFWK1QeAAOsbmdYKVMsgAFWIzOslCkWwABrVdcCIkaAAVavQ+hluQMMsHqdYaWMoQEGWK3MsBIeUwIMsNZ0bogEwACrwSF0wr+7AwywWplhJYyhAQZYaypDYgIYYPU6hE54TAkwwGplCJ0whgYYYDUzhN4+hgYYYDUzhN4+hgYYYDUzhN4+hgYYYDUzhN4+hgYYYDXk5AEwwOp1CL19DA0wwGoI8NYxNMAAq50hNMAAK0PXYihGgAFWdEMxFHeAAVavQ+jN35EABlgfdiyHYgYYYHU7hAYYYIV3bk4FwABrdZeCKm4AA6xeh9BbvyMBDLCaAnwHGGCFVlTJBDDACu1YUsUMMMAK7QQwwOq3c4MsAAZYK7sUZXEDGGBFdi3KYgQYYEU2FGVxBxhgRVaWxQQwwAqsMJIHwAArsGNZFjPAACuwU2EXAAOswM5NugAYYK3qUtjFDWCAFde1sIsRYIAV11DYxR1ggBVXaRcTwAArrAPAAKvfjqVdzAADrLBOAAOsfjsXhwEwwArr0igMgAFWk4BvAAOsqK7FYYwAA6yohuIw7gADrKjKw5gABlhBHQAGWP12LA/jATDACupUHsYMMMDqF/ACMMAK6tysDIAB1oddAAZY/XatIOMGMMDqF/AIMMCKaagg4w4wwIqphowJYIAV0gFggAVwpqdYAAOsZx1ryJgBBlghnQAGWABneksJMMB61rlhGgADrA+6AAywAM70lhJggPWsaxUaI8AAK6IBYIAFcKbH0AADrGfVoTEBDLACOgAMsADO9RgaYID1pGMdGjPAACugE8AAC+Bcj6EBBlhPOgMMsADO9RgaYID1pAvAAAvgXL9mABhgPelaycYIMMDa3wAwwAI4168ZAAZYAAOs/2e1bEwAA6zdHQAGWAADDLBeCfADYIC1u2MtGzPAAAtggPXKnQAGWABn+z0hwADr250BBlgAZ/s9IcAA69tdAAZYAAMMsF4K8A1ggLW3K8AAC+DtjQADrL0NAAMsgAEGWC8F+A4wwAIYYL1w9XBMAAMsgAHW63YAGGABDDDAei3AD4ABFsAA63U7AgywAE5oBhhgAQywXrcTwAALYIAB1msBXgAGWAADLIABBlgddm5eB8AAtpJI0gAADXRJREFUC2CABTDAAAtggAFWTL+1d/+4jSRXHMfZGogElIwd7CyghLkusQzsfIKVDUwyOS9BHoHBTM5AAsg5hY6gwL6HAjvbBbyAgYHXu5pl/6v3qvvzPcEDUd+u935V3bwlMIFBYAITGAQmMIFRi8B7AhMYBCYwCExgAoPABCYwCnJHYAKDwF04EJjAIDCBQWAC1ynwT9YwgQlsBwaBCWwHBoEJTGBcypbABIYdeDyBF5ECLwgMO3C9AtuBQWA7MIFBYAITGAQeQeA3BAaBCdyFf1nDBCYwgUHgkQTeEpjAsAN34ExgELjeHZjAIPD0BW4IDAITmMAgMIFBYAITGAQmMIFBYAK/zos1TODcAt8RmMDIZ0cFAp8IDAJPXuAFgUFgAhMYExT4lsDf4NkaJjCBCQwCT0/ghwt/xR2BQWACExgVCbwnMIHRj1sCExgEHlHgGwJ/gydrmMAEJjAIPD2Bjxf+ij8QGAR+hSWBv8HGGiZwEBsCExgEDj+pXqwJDAITmMBoyQ2BCQwCjyjwFYG/gSVMYAL3FfgtgTE/gRfpBd4TGLlZ5he4IfDr/GwJE5jAPZv8xYrAmJ3AZwITGAQmMAicWOAFgV/nJ0t43lwRuP+UHvgP3wQmcHqBtwQmMNINmKfpCBz33yr+nJDABO7dIxAYBH6VOwITGOkEfpiOwHF/zfBiCROYwH17BAIjigoEvs0v8I7AmJvARwL7rjv6siVw/x6BwCDwq9wQmMBIJ/BhQgKHfVf2yQqeOXf5BV6m7xEIDALXLHDYV+02VvDMCUuILv5eTZzABwKDwL0Fvsov8FsCY24CX7z2GgL7KCWyRbwVCHxxjxD3SQ4LmMAErldgn8SaPXEfxbq8xvSPGAKDwDUL/IbAmJnAl79sG3Zb7PIKo97o90ms2XNF4IoF9kEOAlcg8F36CgmMIMIi3tOUBF4QGDMT+PJXfaIum7QROOh9whcLePYQeIAeIUrgZ+uXwPkFvklfIYERRVTEe5yUwD8QGPMS+HB5icv8Age9T/hk/c6eOwL37xGiBN5YvwRO/6ZA1Fn1gcDIz21+gZv8Ar8lMOYl8Ca9wC0eMVGvI1m+uMkv8ILAXkZCroToyyK9wG0eMW8IjFkJ3OaeYtBRVxuBY95m8DYhoiLeCgReEBgEHkLgu/QVxryO5GUkREW8bd4UiEnKCQwCD3JPMUbgVo+YmLcZXixfLCoQ+IbA3mVAqoTomD4pb/WIiXkdicCIEvgwMYFDLkM/Wb0IepuhlcBX6XuEGIE3Vi+CLkPv0wdtrR4xMW8zEBhRAm8mJnDIZWiLF1FvM7TbPNL3CARGFDGXofMHbe0eMRFvM3iXAVECn6cmcMRlaFehERXxthT4Ln2PEHGX0k1KRCVE7a45RQRtZwKjDvLfkqhB4IC7lC/WLoIEPqZPylv2CBF3KZ+tXQQlRIf0QVvLHiHiKhaBEZUQtRT4Kn2PECHwk7WLmAGz5S2JGgQOuEu5sXYRJHDLtdek7xEirmIRGEEJUVuBF+l7hAiBLV0EJURtb0kEBG1tHzHl71K6SYmoAfM8PYHL36V0kxJRA2bbQ9aApLz1z+giFmYjcNtD1vJBW+seofxVLAIjKiE6pg/aTvkFfrFyETRgHtIHba17hPI3OZ6tXAQNmAQmMAaj/E2Offo5vXWTX/4q1sbKRcyA2fqMprzArXuE8jc5CIyg/rT9Gc0ifY9Q/iaHhYsggduf0RQP2tpvb6VvcriIhaj+tP0ZTfGgLb/ALmIhSuD2EW/xoK3Dz7hzjwMx5I94SwdtZwKjHkoPmO0j3tJzeocmv/RXsZ6tWwQNmPkF7tDkl77JQWBEDZjtE6LSc3qHJr/0TY4n6xYxA2YFAnfoEUrf5NhYt4jpT7skRIXn9H2HCt+4x4EYrgjcv0cofBDsHgei+tMuCVHhOb3Tz+geB4Ig8AA9QtmDYMfAiOpPuyREZef0U6dfsehB8ItVi6/cpU+IygrcqUcoexD8bNUiaMDskhCVndO7CfzWMTBiWOZPiJr0TX7Zg+CNVYsYgbslREXn9E5NftmDYIsWQdvbKb/A3ba3xjEwgsg/YBad0zv+io6BEUTJ7e3YrcSb9E1+yYNgx8D4X+7SJ0Ql5/SOTX7Jc6QXaxZB/WnH/PQqfZNfUuBnaxYx/WlXgZv0TX7Jc6QnaxYx/WnXAXORvskveY60sWYRs711HTALBm37rr+iUyQEkX/ALDind97eCIwgtukHzHICd27yy50jOUXCr7lLP2CWm9O7C7x2ioQYKuhPr9I3+eUEfrZiERRD5w/aOjf55c6RnqxYxGxv3fvTYnN65ya/3DnSxopFzPb2kF/gffdfUQiNicfQ3fvTYnN6j+2tUAztXSRExdDd+9NS9z17NPmlvmvnFAkVbm+FgrZTj19x7RQJ046h88/pPab0Ut+1E0IjKIbu058u0jf5pWJoITQq3N4KBW37Pr+iL9ph0jH0sU+Jt9mn9EKvMzhFQlQM3ac/LRND92ryy8TQQmhUub0VCdpOvX7FtRAaU46h88/pvab0MjH0s9WKmBi6X3+6SN/kl4mhhdCocnsrErTt+/2KQmhMOIY+9ivxNvuUXuQ2tBAaUXb0295KxNA9m/wSMbQQGkF29N3eCszpp56/4lqGhcnG0H23tyb9lF7ioxxP1irqtKPAnH7oWeEbITQmm2Id+5Z4l73JL3CZUoaFKDv6bm8Fgrbev+LoMbTPcSDKjt7b2zL7lF4gxXqxUlGrHU36KX38y5RCaATZcepfY/omf/wUS4aFoBTr2L/Esef0ff/HoIuUmGiK1X97G31OH2B728mwEMNNfjuW2af00VMsFylRsR1N9gxr9BRLhoWK7Vikn9LHTrFkWAhKsYawY+Q5fT/EY1CGhSBu09sxcomDbG87GRammGINYscy+5Q+coolw8LrXOW3o0k/pY/7RqEMC0ER0TB2jDqnHwap8I0MCxNMsYaxY9QheCA7vEuICaZYA9kx5pw+0K/4gxEYMSyzj8CjzumngUocMcV6sUYRExE95C/xOFCJI6ZYT9YoYobgw3xKbFzjwOSG4H3+EgdLeHeucWBqQ3D+Es+DlbiWYWFiQ/Apf4kPg5W4co0DExuCj/lLPAz3jHGNAxMbgvf5SxzQjp1rHJjWEJy/xPOAJa6NwJjUEHzKX+LDgCWujMCY1BB8zF/iYchnjBEYkxqCNzMrcWcExoSG4PPcSlwbgTGhIfhhbiWujMCY0BB8mFuJjREYExqCN7MrcWcExmSG4PP8ShxhCH6xNnEJ2efLUYbgoUscYQh+sjQR06Aehi7xLvNVz7GGYCsTQQ3q4CXe5C9x5xAJMQzeoJ7yl/gweIlvHSIhiG32DrqGEhuHSJjIELyZZYk7h0iIYeAvt55HKHGZv8S1ERiT6KEfRqiw+ZK+xJVDJEyihx5leBv2IGk/xjNGB40gltnb0ypKXOugEUT29nTgHnqcElcOkTCBHvqQf04fp8TGNSzU30OfRyrxJn+JOx00Ymiyt6dVlLjSQaP6HvowVonb9CU2rmGh9h76PFqJw/XQo5W400Gj8h76Yc4lrnTQqLyHPoxX4jZ9iY0OGnX30Od5l7jTQSOIbfL2dLAeeswSVzpoVN1Db/I/Y8YssXEPGjXHWOdRS1zmL3Gtg0bFPfQh/zNm3BJXIixUHGONvPRu85e400Gj2h76YeQSr/KXuBZhodoY633+Nv8w9mNQB41ae+jz6CXe5C9xJ8JCpTHWYfQKe7f5n0YvcWUDRqVbcIGld5u/xJ0IC1XGWA8FSrzOX+JahIUqY6wivd82d8rWO8ayASNoC37M3+afi5TYawv+h1WImC34UKbEbfoSGxEWgrjOvrstFu/yl7hzhoQgttk34EWTv8SVDRhBLLPvbj3a/HIl7mzAqGwLPhSrsPmSvsSVDRh1bcHngiXe5i9xZwNGVVvwoWCFzZf0Ja5swKhpCz4XLfE2f4k7GzCC+JB8d+sYRJctcWUDRhDX2Xe3TmfBpUv86BIWgmjfob7PP6iXLvG6/S1oGzBiQqKH4iUu85e49hoSgmjboQZsHR/Sl9i0zLH+bd0hpkP9FFBhyy4hosTvJVioIcc6h5TYqkt4DCnxowQLFeRYQVvHNn2Jjff4kb+J/hRUYfMlfYktmuj3lhxCmujHsBLf5S/xowYaufU4B2YvH9KXeGkSLYFGkB6Rrd+FNyojS7x2hQOZ9fgUWuL1l/Qlfm8ARl6DH4NL/C67vxeNwfxFzAb3GF7iu/wl/qHBP1ppCDH4McHo9i67v4vmI3+R0eAM/v6BwZ9TjCIf+Ysog7eZN7c/moM/JynxI38RtX18SC7HNwzOI8ffXzs/em+FYWT+9ruXI35M/5B5zCTHd797o+OfG8sL4y++37bRn5OtvPvf+nufrJP57Sb8s/YZhfz4tcKf8zV+zf8pfJ9vb7v+tcI/31tXKLcLfxXkc0I3/vuU+drr3yd14/r+41d77b4ozV/v7+//krrC5rtfSvxT6hL//EuFPxp9AQAAAAAAAAAAAAAAAAAAAAAAAAAAAAAAAAAAAAAAAAAAAAAAAAAAAAAAAAAAAAAAAAAAAACT4D8P4/01cJnAFAAAAABJRU5ErkJggg==;direction=south;" vertex="1" parent="1">
          <mxGeometry x="934.3249999999999" y="197.205" width="32.89" height="58.48" as="geometry" />
        </mxCell>
        <mxCell id="eZahiFkefNz_Pke4YgP0-6" value="" style="sketch=0;points=[[0,0,0],[0.25,0,0],[0.5,0,0],[0.75,0,0],[1,0,0],[0,1,0],[0.25,1,0],[0.5,1,0],[0.75,1,0],[1,1,0],[0,0.25,0],[0,0.5,0],[0,0.75,0],[1,0.25,0],[1,0.5,0],[1,0.75,0]];outlineConnect=0;fontColor=#232F3E;fillColor=#8C4FFF;strokeColor=#ffffff;dashed=0;verticalLabelPosition=bottom;verticalAlign=top;align=center;html=1;fontSize=12;fontStyle=0;aspect=fixed;shape=mxgraph.aws4.resourceIcon;resIcon=mxgraph.aws4.elasticsearch_service;" vertex="1" parent="1">
          <mxGeometry x="963" y="290" width="34" height="34" as="geometry" />
        </mxCell>
        <mxCell id="eZahiFkefNz_Pke4YgP0-7" value="" style="outlineConnect=0;dashed=0;verticalLabelPosition=bottom;verticalAlign=top;align=center;html=1;shape=mxgraph.aws3.machine_learning;fillColor=#2E73B8;gradientColor=none;" vertex="1" parent="1">
          <mxGeometry x="962.5" y="410" width="40" height="40" as="geometry" />
        </mxCell>
        <mxCell id="eZahiFkefNz_Pke4YgP0-9" value="" style="shape=image;verticalLabelPosition=bottom;labelBackgroundColor=default;verticalAlign=top;aspect=fixed;imageAspect=0;image=data:image/png,iVBORw0KGgoAAAANSUhEUgAAB4AAAASjBAMAAABtXDrwAAAAD1BMVEVHcExVVVVVVVVVVVVVVVWTl+BcAAAABHRSTlMAx24bVmhpmgAAIABJREFUeNrs3QtyGkkaRWFRsACsZgEyZgF6sABpyP2vaRwdEzEd7W7bgqSq/pvfWYFI1c2Tj0vx8AAAqM3b8euXL619fHk8vhkNoBSv37P7fz6Oz4YEqMLx0P7OowgDNez7Y3z/jLCRAVbP9mv7Fz5IGFg506H9O9+MD1A2v639YYSAFee3/QIJBlbLa/sljrKAqv7lYKDq/leCgRWz/b38tvZkrIDVcfrN/LoPBtbHS/tt/mO0gJVtgNsnsA0Gii6gLaKBygtoi2hgZWzbJ9kbM6DmAtoiGlgVU/s0zrGAsgL+DgUDZQXc2sW4AWUFTMFAYQFTMFBZwBQMFBawg2hgDZyvDfCHsQOWZtuuZm/0gIV5uT7AGtHA0hyuD7BjLGBhphvy6yYJWJjzLQF2jAXUXUF7vx1QeAVtDQ0UXkFbQwOVV9DW0EDhFbQ1NFB4BW0NDVReQetyAMuxvTm/+tDAYmxuD7A+NFB2C2wTDFTeArtIAgpvgW2CgcJbYDfBQOEtsE0wsBSnHgF2EwwsQ5f8OsUCFmHqE+B3IwkswKZPgFU5gCU49wmwUyxgCfqcYbVmJIEFODSnWEBVtp3yq4sFLMDUK8DvxhKYnU2vACtTAvOz6xVg90jA/Jx7Bdg9EjA/vW6R3CMBC3DoFuBngwnUDfCTwQRmpts1sItgYH4mAQYEWJMDWIBNvwBrcgBzs+sXYE0OYG7OAgzU5STAgADrUgILcBBgoC5NgIGydCxi+TYDMDeTAAMCLMDAAmwEGKjLToCBupwFGKjLSYCBuhwEGBBgAQYWoGliAWXZCjBQl0mAgbpsBBgQYF/oBxbgLMCAAAswsABdi1heKwvMS9cex7vxBOoGeG88gTnp2uPw64TAvEwCDAiwH/gGFqBrj8OXkYB52WlSAnXR4wAKcxJgQIAVsYAFUMQCCtMUsYCyKGIBhVHEAgRYEQtYAkUsoDCKWEBhFLGAwihiAQKsiAUsgSIWUBhFLKAuilhAYRSxAAFWxAKWwE8TAoVRxAIKo4gFFEaPAyjMQYABAdbjwGK8Hr9+53h8G/CzD1XEejseH78z5D86le3xy19OUR+/Dfbx38bpcbx+/ctq48vx2bOfEN+vP9yEjBXhYXocxx/2Co8iXJ7jP15mjhThQV6o8/qPW/2jBNTe+v7bAc5Ac/MQRawf11ljLrfCePnJk/g0yiCcBwjw9JOT9j/koCpff/osfhPglCLW60//5kdJKMn2Vw2kQabm/CLWy69mnWdpiHxwx0hw/At1XoquG3CzeL4JcP0ex6uvYIy7cBzgJCv9hTpT4b07blhWjXIWHf5Cnek3FxjOojOf2o9nQ1G5iLU91F07oMO/NX9tlV3E+v0j9vypergN8Bhrq+gX6rx84m+3DU7bAI+xDU7ucXzugM42uMoC2luerlyNVBurU+0NPPo8snujUbOItWmm6kA+feyafbyRW8TafvqjPUlH5BMbvTnKfaHOS/kzOHT5t0ZvjnKLWNd8MudY639gD+W3dstuKMoE+JrjdZfBkQJOVnBsEeu6pQUFJwo4WcGxRazr7rcpOFLAwQpOLWJdu7en4EQBBys4tYh17eei4EgB5/5fQ4tYV8/UFBwp4Nw6VmgR6/qtPQUnCjj3jj/0hTo3fCwKThRwbM0us4h1y+UYBScKOPUYK7SIddPRHAUnCjh0DZ3Z47jxP03BgQIOXUNvIgN847REwYECDv22aOYvm914tE7BiQLO/LdGFrFu3thTcKCAM6+CI4tYN2/sKThQwJnn0JE9jttnJQoOFHDkOfQhMcAd/tUUnCfgyHPoxCJWj6sxCs4TcGvvecOSWMTqcTBHwYECDrxIiixiddnXU3CegAO/1p9YxOozKVFwnoADN8GJL9TpNClRcJ6A8y6SEotYna62KThPwHmb4MQeR6+rbQqOE/D6fv52LQ/7mgLcbUFBwWkCztsEBxax+p3LUXCcgOPq0F17HO9h23oKjhNw3ClWYI+j47aegtMEnHaKldjj6LgroOA0AaedYiX+slnPT0TBYQJOO8UKLGJ1/UgUnCbgsAAHFrH6fiQKDhNwe48anMAX6nT9SBScJuCwY+jAIta5UTABj3IMHVjEOjUKJuDVF/bX+LSvY3HSecKm4CwBh30lOK+Ite39/6bgKAGHHUPnFbGm7v9wCo4ScFSAA4tY/QNMwVECjvo6Q2ARa9MomIBHuQgOLGLtGgUT8CgXwYFFrHOjYAIe5SI4sIh1ahRMwKMEOLCIdY8AU3CQgKOaHIFFrPv8zyk4RsBRAc7rcdwnwBScI+Cor/R3HaH9Kj7Sff7nFBwj4KgANwGm4NEEHFSGDixibRsFE/AoAQ7scdwrwBQcI+CgMvQmL8BTo2ACFuCyp/N3CzAFpwg4KMBnAabg4QQswGvucdwvwBQcIuCgAHctYl3SA0zBGQIOCnBgEeuOAabgDAEL8Jp7HPcMMAVHCDgnwH3vTPMDTMERAs4JcOIvm901wBScIOCcJlZgEet+TSwKThFwToADX6jz8NYomIAFuOzXpO9rYAoOEHDO1wkDexx3+zohBccIOCfAJwGm4PEE/CHA6y1i3euVOhScI+CcAAcWse4eYAquLuCg18oG9jju9FpZCs4RcE6AA1+oM0OAKbi4gHN+WmWKDPC5UTABV9jsrSzAa3msd42CCbjCZu9mEotYd/l5UQpOEnDOdxm6umo1Z/NTo2ACHiLAkUWsOQJMwZUFnFOFjixi3bsMTcHVBayItfKz+QMFE/AQPY7IItYMF8EUXFnAilhrP5ufI8AUXFbAK1LNqjaL6zna2zUKJuABroGn0ABvGgUT8AC3SJlFrFnukSi4roBzvs6f+EKd/nt7Cg4TcM4t0i51WA4UTMD530UKLWI9zPB9JAquK+CcM6zUHsdMp1gUXFPAfhhp/QGe5xSLgksKOOcMK/GXzf43lzcKJuD4HtZD7s7iRMEEHH+Gtc3dWZwpmIDjz7BSexzznWJRcD0B53wZOPSFOrNugim4nICDtsCxRaz5NsEUXE7AOVvgvhvFj+DPRsE5Ag66Bc4tYj3MdhNMwdUE/BE0aKfglcl8MzoFl/p3BW2BU1+oM+8mmIJLCTjoEim4iNX9hI6CUwQcdImU3ON4mPEiiYIrCThpBT1FB3i+NTQFFxLwXoCrLE02FEzAwd9Eii5izbuGpuAyAr4kjdsu/HrtTMEEnNviyO5x9N8iUHCAgD+iBu4UHuCHAwUTcOwRVnYRa+ZjLAouIeCWNc9GF7FmPsai4AoCvmSNXP7i5EzBBBwr4Owi1p+8UTABZ7awHuKLWP23+RRcXMBPAlxtdTJRMAGHCji9iEXBBBwt4PgiFgUTcLKA44tYFEzAyQLOL2JRMAEHCzi/iEXBBBws4PwiFgUTcLCAByhiUTAB5wp4O8r4UDABJwp4GmaCo2ACfhLgkj0OCibgUAFH/7IZBRNwuoDHKGJRMAGHCniQIhYFE3CmgEfpcVAwAUcKuG+P4zLSbEXBBJwW4P3KPywFE3DaDNhGCjAFE7AAVx4jCibgLEZ4oQ4FE3CqgMd4oQ4FE3CogEcqYlEwAedxHm2Wo2ACTuI03ChRMAELcM0eBwUTcBpdJ8H38eYsCibgnADvS3xkCibgnFlwxHmOggk4hWnEcaJgAhbgmkUsCibgKEYrYlEwAUexG62IRcEEnMR5zJmOggk4g9OgI0XBBCzAJYtYFEzAQQxYxKJgAs6h61DtC31wCibghJlw3LmOggm4PtO4Y0XBBCzANYtYFEzAIYxZxKJgAg5h0CIWBRNwBueRZzsKJuDqnIYeLQomYAEuWcSiYAKOoOtkuB97/qJgAp6dNnaAKZiAa8+Go893FEzAlRm5x0HBBFyezegBpmACFuCiPQ4KJuDq7IYPMAUTcOHhPJvxKJiA6zJ2j4OCCbg4BwGmYAIW4KI9Dgom4NoD2gSYgglYgGvPeRRMwNxTs8dBwQRcmJFfqEPBBCzA9XscFEzAddHjoGAC9tzWDzAFE/DwAb4YCQom4FnpOqbvlUeCggm4IHocFEzAhQfVsFEwAXtoI+Y9CibgsQP8bDAomIDnRBGLggm4MDtFLAom4LooYlEwAXtiUwJMwQQ8cIAvxoOCCXhWFLEomIALo4hFwQRceGANHQUTsMc1aO6jYAIeNcDPhoSCCXhOvFCHggm4MIpYFEzAhVHEomAC9qxmBZiCCbgKehwUTMACnNPjoGACroQiFgUTcOHBNXwUTMAe1KAeBwUTcB02AkzBBCzAST0OCibgMpwFmIIJWIADB5CCCXiwp/QSNTQUTMDrRxGLgglYgNN6HBRMwDUmSFMgBRMwyWQOIQUT8FCPaNxDSMEEvG78shkFE7AAB/Y4KJiAC6DHQcEEzDC5g0jBBDzM83kJHCAKJuA1o4hFwQRcmK6juE8cIQom4BVPkqZBCiZgekkeRgom4EEezufMQaJgAl4rilgUTMCF2SliUTAB10URi4IJmFvSB5KCCXiAJ/MSO0wUTMDrRBGLggm4MIpYFEzAhSdKUyEFEzCx5A8lBRNw/GP5nDxUFEzA68MLdSiYgAujiEXBBFwYRSwKJmBWSe9xUDABr5ODAFMwAQtweo+Dggl4lShiUTABF54sTYcUTMCUMkCPg4IJeH14oQ4FE7AAD9HjoGACXh1nAaZgAhbgcSZECibgVJ9cDNnwCibgeek63O9DDBkFE3BogPdWLaMrmIBnHm8jSsEE7Fkca0qkYAKODPCzURtcwQQ8M4pYFEzAhdnpcVAwAddFj4OCCdiDOFyAKZiA8wJ8MXBDK5iA50cRi4IJuDBdR3Vv7TKyggl4gTE3qhRMwJ7CEadFCibgsAD/l707PG7rxqIAbFos4M2EBfiHCkAmLICy2H9Nm2Q3omRZdmb9CODgfqcBeu7DxSdSx1Qzu8IEA3hAFLEQDODgKGIhGMDBUcRCMIAdwaILjGAAr7TAz8ZXlmAAj8muY9/KjQ/BAB4bRSwEAzg3ilgIBrDzV/hqRDCAB0aPA8EAtsA1exwIBvDoKGIhGMDBUcRCMIAdvqo9DgQDeGxOFhjBALbAVXscCAbw0LtTEQvBALbAxadbm2AAr3LyWtk5ViYYwAOjiIVgAFvgyj2O6gQDeGT0OBAMYHCYb1mCAbzOsXuuPMmqBAN4aHa9Pi/uwnIEA3hs9DgQDODc6HEgGMDUMOGqBAN4pTPXik+zHsEAHhxFLAQDODhHRSwEAzg3ilgIBjAyzLgkwQBe68A9m2ctggE8PIpYCAZwcBSxEAzg3ChiIRjAvDDligQDeLXT1gy0EMEAniCKWAgGcHAUsRAM4OAoYiEYwLAw53IEA3i9o3YxzzoEA3iK7HqNbuZZhmAAzxFFLAQDODeKWAgGMCn0OKoRDOA5crDACAawBdbjqEUwgCfJ2QIjGMAW2F1ZimAAL8mEL9QpQjCAp8muT+JinjUIBvCaC7yZZwmCATxN9u1xWOAaBAN40SPmtixBMIBXXeBmoBUIBvA88YU6CAawBdbjKEQwgCeKHgeCAex8WeA6BAN42QVWxCpAMICniiIWggEcHD0OBAM4N75QB8EAdrgscBWCAbzyAjcDXZ1gAM8VRSwEAzg4R0UsBAM4N4pYCAawk2WBaxAM4KUXWBFrcYIBPF0UsRAM4OAoYiEYwLlRxEIwgB0rC1yBYACvvsDNQFcmGMDzxRfqIBjAwVHEQjCAg6OIhWAAO1N6HOsTDOAZc7LACAawBdbjWJ1gAE8ZRSwEAzg3fxg8ggHsQOlxLE4wgOfMwQIjGMAWWI9jbYIBPGnOFhjBALbARr80wQAucZr0OFYlGMCzZteb9WKeaxIM4BoLvJnnmgQDeNb4Qh0EAxgGhr80wQAucpSaga5IMIDnjb9shmAAB+eox4FgAOdGjwPBACaB8a9LMIDLnCNFrBUJBvDMUcRCMICDs+v8N/Ncj2AAzxxFLAQDGAMewLIEA7jQIWoGuhrBAJ47ilgIBnBwFLEQDODgKGIhGMAM8AjWJBjApU6QItZqBAN49ihiIRjAwVHEQjCAc6OIhWAAA8BDWJJgABc7Pua5FMEAnj/+shmCARwcRSwEAzg4ilgIBrDbX49jPYIBnJCTBUYwgC2wHsdqBAM4Ifv2OCzwQgQDuN4Cu0jXIRjABa/+ZqDLEAzgiPhCHQQD2ALrcaxGMIAzcrbACAawY+MqXYtgAFdcYD2OVQgGcEp2fVAX81yEYACXXODNPNcgGMAp0eNAMICdGQu8FMEALrrAzUCXIBjAMVHEQjCAg3PU40AwgHNz9jQQDGAHxgKvQzCAqy6wItYKBAM4KYpYCAZwcHZ9Hpt5LkAwgIOiiFWa4O+9/gHAZU+LBQ4jeBv78s7LZAvcDDSe4M8ATooiVm2CvwA4O4pYtQn+et8PRQB87yhi1Sb43W+SDgCue1QscB7B27C7w2mZboEVsfII/jrs6gDwHjnd8zaXAIK/3O8tFYDvH0Ws6gT/dr8LHcB3jyJWeYKfxrwsgCc8J81AAwluQz6DdtnvkoMFLk/wZcS1AeAJF1iPI5Lgr/d6RwXg+0cRC8GvfnA6ADgsilgIfvXLgzOAKx8SPY5Mgm/P7QTgsOz6xC7mGUnwU/e3wACecoE388wkuHV+CwzgvfJwtcAIfnlwZwCXXmDPJZTg575vgQE86QlpBppJ8D8bBeC0+EIdBN+u3s8ALr3AehyxBH/p+RkWgPeLHgeCb59inQFc+oL3ZGIJfu74WgCe9XgoYsUS/LXfZ1iu+T2jiIXgl88fPwM4LnocCH75GPozgNOix4Hg27M7Arj27e7Z5BJ86fQhNIAnPhvNQGMJfu70Oi75XaOIheCbjCcAp2XXdz2KWMEEP33q8lskAO8bRSwEv/z49ADg2le7p5NMcOtxTQB45oOhiJVM8JcOL+KK3zuKWAh+WeADgOOiiIXgl6d3BHBaFLEQfPv56Qzg2ve655NM8PPdFxjAk5+KZqDBBD/f/RVc8LtHEQvBNx8fAZwWRSwE3/brBOC0KGIh+Hb/ngBc+lL3hKIJvvcCA3j2I3Exz2SC77zArvd7ZNdHtplnMsFPnwAcF0UsBN9+iQDgtChiIbjTAjsc89/ozUCjCf4E4LQcLDCCLbAF1uOwwH6EHpCzBfYjtA+xLLBH5EMsBKefB1+okw2wIkdedn1iF/OMBliVsvgCb+aZDLD/zJAXPQ4A91tgB2TyG93ziQbYf+ivfiKagSYDfP8FdsXvHV+oA+DXC3y+IrjuAutxZAPc4VspEbxz9DgA/HqBj1cE173TPZxsgK8Xf1ql9JlQxMoG+Lr542ZpUcQC8Gsd/XnRsOx8gUsywH/ulj/wnRVFLAC//T3+FcF1b3VPJhvg697vqRCcdSqagUYD/NTnZVz0+0URC8BvaTxfERyU494XuOQC/PevAQ9XBAdFEQvAb3+L0OWFnJQp73WPJRvgv2F8uCK46rlQxMoG+L8fQp4QHBRFLAB/8xnGI4KDoogF4LcsPpyvCI6JIhaAv30L1OVjaIdlxpvdM4kG+H8/QXV6MQTPdzKagSYD/M8FfEVwTHyhDoDfFekeERwTRSwAv9uoM4JjoogF4He/xu/0KZbzMtvdrscRDfDLbwEfrghOyckCA/jdZ5AnBJdc4M08kwF+us8bKwTfM4pYAH7/A1SvN8EI/tX84T4F8Pv7t9ubYEdmqtu9GWgwwNcRlwaCfy0HCwzg7+zSAcEFF1iPIxrg159g9PsZGsG/lLMFBvD3fn56RHC9BXaZJgP89un9juB697seRzLA25vX7fczNIJ/Jbv2OC7mmQvwt59APiK43AJv5pkL8Nd7fryJ4DvFF+oA+IPbt+PP0Aie5IBY4FyA3/8O/4zgagvcDDQW4OeRL47g/zf+shmAP0TwEcHT56jHAeCPDDwgeProcQD4418gnBBc6ohY4FiAnzq8wXJ2Zl9gRay1AP70gODZo4gF4L8Abt//J/yO4MnT4RqX+QH+7YN/AoInjyIWgH8AMIJrHRILvBjACK61wM1AFwMYwZNHEQvAPwIYwZNHEQvAPwQYwXNHEQvAPwQYwYWOiQVeEGAE11lgRawFAUbw1Nn12WzmuSDACJ45ilgA/uk/BsHTRhELwO3n/xwE1zgoFnhJgBE8b/Q4APxv/kEIrrDAehyLAozgaaOIBeB/FQTPGUUsACPYUdHjWBxgBE+akwUGMIItsB7H4gAjeMrs2+OwwOsCjOACC2zsCwOM4PUPSzPQdQFG8IxRxAIwgi2wHkcBgBE8YfQ4AIxg172ZVwAYwYsfFz2OxQFG8HTZ9Ua9mOfaACN4uuhxABjBudHjADCCXfgGXgVgBK98YJqBrg4wgueKIhaAERycoyIWgBGcG0UsACPYlW/adQBG8LJHRhGrBMAIniiKWABGcHAUsQCM4NwoYgEYwS59o64FMILXPDTNQGsAjOBZoogFYAQHRxELwAgOjiIWgBHs2jfnagAjeMFjo4hVCGAET5Fdb9HNPOsAjOApoogFYATnRhELwAh28etxVAQYweNzsMAARrAF1uOoCDCCh0cRC8AIDo4iFoAR7OrX46gJMIJHZ9fxX8yzGsAIXmmBN/OsBjCCx2bfHocFrgcwghdaYBdkPYARvNDl3wy0HsAIHhlfqANgBFtgPY7CACN4YPQ4AIxgp8cCVwYYwYsssCJWTYARPC6KWABGcHD0OACM4NzocQAYwc6PBS4OMIKXWOBmoFUBRvCYKGIBGMHBOSpiARjBuVHEAjCCnSALDGAExy+wIlZlgBE8IopYAEZwcBSxAIzg3ChiARjBzpAFBjCC8xe4GWhtgBHcO75QB8AIDo4iFoARHBxFLAAj2CnS4wAwgkfkZIEBjGALrMcBYAQPiCIWgBGcG0UsACPYOdLjADCCR+RggQGMYAusxwFgBA/I2QIDGMEW2CgBjOD0k6THAWAE982uF+XFagIYwbkLvFlNACO46z3pJgQwgllggQGM4Piz1CwngBHcM/6yGYARHJyjHgeAEZwbPQ4AI5gGFhjACI4/TYpYAEZw3yhiARjBwdl1hJv1BDCCu96Q7kAAI5gHFhjACI4/T82CAhjBPaOIBWAEB0cRC8AIDo4iFoARTAQLDGAEx58oRSwAI7hvFLEAjODgKGIBGMG5UcQCMIKZYIEBjOAR0eMAMIItsB4HgBE8IopYAEZwcBSxAIxgKuhxAPhnQfD0U7XAAEZw8AJv1hTACO760YIiFoARbIH1OACM4HgXmj0FMIJ7RhELwAi2wHocAEbwiJwtMIAR7GApYgEYwekLrMcBYAQHz/NiUwGM4NwF3qwqgBHcM3ocAEawo2WBAYzg/AVudhXACO4ZRSwAIzg4Rz0OACM4N2fTAjCCHS4LDGAEpy+wIhaAERw8yYttBTCCu2bXWW3WFcAI7hlFLAAj2PGywABGcP4CN/sKYAT3jCIWgBEcHEUsACM4OIpYAEawA2aBAYzg+AVWxAIwgoNnuNlYACO4axSxAIzg3ChiARjBjpgeB4ARPCIHCwxgBFtgPQ4AI3hAFLEAjODgz7AUsQCMYIdMjwPACI6//ywwgBEcPL3N1gIYwV3fAytiARjBFlgRC8AIjj9mzd4CGME94wt1AIxgC6zHAWAEj4geB4ARDAoLPA7gbYV5IXiGg6bHMQLgJQaG4Bluvst/2rvXg0aOIIrClkQAgCcAISsAsSgACfLPyfvTb7OL1NW35jsRwHRVn66ey6BzCZiCh6KWCJiCc5HjIGAKpgoNTMAUnF9qJ71LwBQ8EkEsAqbgYB5UEwFTcC6CWARMwWShgQmYguOLTRCLgCk4eM+76F4CpuChqCcCpuBcBLEIeKp6pOBKXWhgfwdMwcHldtK/BGwKHokglgmYgoMRxCJgCg5GEIuAKZgwNDABU3B8wV0ImIApOHe3e1x9AxMwBY9FTREwBeciiEXAFEwZchwETMEVbDQwAVOwBpbjIGAKLuCsqgiYgjWwHAcBU3C6NFb+QR0CpuDsx3QhYAKm4NwGflx1AxMwBQ9np64ImILfVZ0gFgFTcHoDnwiYgCl4JD6oQ8AUHKxgQSwCpuBgBctxEDAFByv4qIEJmIJzi1cQi4ApOFjBglgETMHBCuYGAqbgXAX7oA4BU3CwggWxCJiCg+tXEIuAKThYwYJYBEzBwQp+YAcCXpVkmilYEIuAKThYwYJYBEzBwSUsiEXAFBysYEEsAqbgYAXzAwFTcK6CBbEImIKDFSyIRcAUHFzFglgETMHBCvZBHQKm4GAFC2IRMAUHK1gQi4ApOFjBchwETMHBJlo0MAFTcK6CFyVGwBScq2COIGAKzlWwIBYBU3CwguU4CJiCg2XkgzoETMHBChbEImAKDlbwWQMTMAXnKlgQi4ApOFjBglgETMHBPrrphnYhYAKm4NzHsa4yI2AKLkeOg4ApOLigfVCHgCk4WMGCWARMwcFKEsQiYAoOVvCDQiNgCs5VsBwHAVNwcE0fNTABx7Gj4LvU4YqCWCMFfNKxFDxkmrgQMAGbgoei1EzAFJyrYEEsAqbg4LIWxCJgCg5WsCAWAVNwsJgEsQiYgoMVLIhFwBQcrGBBLAKm4ODKFsQiYAoOVrAgFgFTcLCbBLEImIKDFazcCJiCcxUsiEXAFBxc3IJYBEzBwQqW4yBgCg7Wk/9sRsAUHKxgQSwCpuBgBQtiETAFB9e3HAcBU3CwghcNTMAUnKvghTIImIJjFbxTcgRMwbkKFsQiYAoOLnEf1CFgCg5WsCAWAVNwsIIFsQiYgoMVLMdBwBQcrOCjBiZgCs6tckEsAqbgYAXf9Pe+EDABU3BuAzfXBgFT8GwKluMgYAoOVrAP6hBwE3arVLAg1pQCPulHCi74pQmYgCl4KA8mNwLuwusKFSyINaGAf9WLLqIryrJzA7uCNgXPWOuCWCZgU3Dwha0g1idLwwRMwTPOOdQx3f0IAUfGUbCIAAAIp0lEQVRMwXMMOoJYCsNGG1ztgljTXWG5gg7Zad/7FWbf4e1IwKbgGctdEGu2KywTcMxF9AxLJYg12bbuCjpnrWY4QwtiTXaCJuCgKfjUrDLbNvC4E7QJOOki+rFZA7cNYo07lbmCTlLwe7Pfte3x70jA9ts5z9Dmt+FPyQTcR8H7XsPdvmk9bAnYFDzn0CjH8RnOo+rBBBym4PIdd6OBlYMpOLfk/Wez4XOGCXjEki0rWTJBrIm2cyGsvDUrHoJ3glgTjcAEnDf2VEtLjkMtuIgOHoIXDTzNCOwKOnHb3Tf6LZseAbcEbAr+Vy6N5NK0gR/GVIIJOFLBH40aeN+zEI4EbAqedN0EsabZyU3AN7fTmIVrNCc0LQTvgE3Bs547BbFmucMyAaeenUpXTo5jkn3cBBw7BZfeYh018ByX0CbgWAW/t2ngpjmOIwE7Pc3awDfdoS4a2AS8wovoNhesTavQFTQFz/r2VI5j9DMi4H5TcGHd+89mo5+RCbifgts08EkDE/AKp+DHLtuTLdwEvMb1K7y8fXAQHPuMCLjhFFz4+lQQa/AzMgE3VHBh4QtiDX5GBNxwCu7SwIJYJuBVKrjwCCWIVT9CEXD6EhY2sEpc8+pTcPrrF0Gs0ZscAXecgst+MUGs8gY2ATdQ8KlHA/csxR0Bm4NmrXwf1KluYBNwBwWXnT0FsUafUgi44xRc1sCCWMUNbAJuoeCyBpbjKG5gAm4xBe9b/FIa2NQxMa8aeJ02uWcD+xRlDwWXNbDjYGkDE3CTKbiqgQWxahvYBNxEwfsWtXnSwAS8zim4qoE3GriygU3AXRR86tDAXX2yI2BT8KQNfFaP/8+bCZiC19DATYNYdzMwAfeZgqt+H0Gsz2ACpuBJG/imv85FAxPwOqfga4sGbjvSLSZgizllA8txrG/NTcF3oOr6xwd1xt8UmIAbbsc9GvikgQl4nVPwR4vfpe2Sn03AFDzl/e0Dpwx/TATccAqu2o7lOKoOXSbgVgquuv45auDxVwUE3G9DbtHAHxrYBBzB7T9Q2eIscem74DcX8EkXdVJw2YGKVWqGJgLutaBV06MgVsWoYQJup+Cq6VEQ65Mb3ZmATcETTo+CWJ/kwQRMwRO6SxCrZKcj4G5TcFUDC2JVNLAJuJuCy1ZUEOuzELApeMLSF8QqeFIm4HYK/mjRwB+dV/tMwKbg+ZZUEGv8dm0CnoXb/VFS1R2WIFbBLZY/Q2qn4LI9WRBrRYuNux2rym5/BLHGXxeYgPvtypceDdx7rc8EbAqeTV3+s9nwzc4E3FDBp6ofXxBr9H0BATecgusCEIJYo4dgE/Bk2/KSPALLcYw+rghhdVRw2Qh82xxH9wbeEjAFTzYW3bSB2xfnQsANeQ02121zHO0b+Os3Bq6gO+7L+yYNvO++0tvgsxbuNgVfgytyLR/UudG4ZALuqOCP3L1nTUGsG5yhCbjlFLxv0sArKM+tCZiCZ6r7swZeyUrjbiKrfHvqgzojdzwTcMvLjX2XBv5YwUp/5QztHXBLBZd6ywd1Bm55BNxyNnps08CrKNCNCbglr5HLKscxcM9zBd1yXUuX1Qd1xm3VBNzyaFV7sSGI9ROnlsWAYV0nubkVxPoJzoE7Ne51tKpdVh/UGXZxYAJuqeDiV6c+qDPqqRFwyym4elkFsUZt1SbgAI5x5ypBrEHT0rvuCGAbNzUKYg16bnvd0VHB5cvqgzpjtuoPvdFxOCo/Vwlijdmq3WCl8C1rWQWxxmzVDtAtd+b6ZRXEGrJVu8FquTNPsKyCWCO2agfoltcb7xMsqyDWF7bqowN0Sz75jvA6w7IKYn1lq/7kYUuGsmUHT7EtC2Ld/7Clf1tOR7/90q6B1/eu8zMXWe87DdGwg+foXx/UuXsHu4CO5CWjfwWx7t3Bz3qhYwfP0r+CWHfuYP3bcWGv01S6HMcNnuEy/0aNn7Hbcf5deaOBb7DQrxO/6MfPr+sv3/5pb77OtCv7z2b3k/D3hdbA2Zx2h7+u7NNchypBrFsNTH9d6OtB97bQ8LenPyzq82wzkSDW7Vr4ZfnjPq19Gy3t4fDycjgc3ub70eQ4bsnb90V+fj4cXF1hED6oA2hgn10EKiZ0QSxAA/urV6AAQSwgGB/UATSwHAdQgRwHEIwP6gAaWBALqEAQCwhGjgPIRY4DCMZ/NgM0sCAWUIEgFhCMD+oAwQhiAcEIYgEaWBALqEAQCwhGEAvIRRALCEYQC9DAglhABYJYQDCCWEAwglhAMIJYQDByHIAGluMAKhDEAnIRxAKCkeMANLAGBirwn82AYASxgGAEsQAN7IM6QAVHQSxAA8txABoYwI+wCGIBGliOA0hvYI8TyG1gOQ4guIHlOAANDKCigQWxgOAGvnicQG4DP3qcQG4D7z1OQAMDKGjgk8cJjOUoiAVoYEEsILuB5TiAwezOGhjI5SyIBeTyIIgF5LIRxAI0sBwHUMBWAwMaWBALqECOAwhm0cBALkc5DkADy3EABZy9BgZy2XiLBOSy1cBALjt/zg8Es7iEBnI5amAglxtdQ188SaCAjTssIJetP2UAgpGEBoI5usMCcjkLUgIrH4L3niNQwk4OCwhmMQIDqx6CjcBA8BBsBAZyh2BvgYE6vvwm2Od0gDo2RmBgxWdojxDIPUN7iQRU8uoEDeTy5k8JgbWeod1BA7VspDiAXHZSHEAwZydoIJetKywgmKOXwEAuG1dYQDALAQO5vEphAbnsFu+QgJUpmICBXAUTMDALG1fQQDCLK2ggl60QFhDMDyaif/XEgIn4sXusKwEDuYfovecFzMXRARpYQwe7gQYmPEQvBmCg+xh8NQADU/LqAgsI5pv+BTo7+DfPCIh1sP4Fpua/7qLdPwOzs/vX98HP+hcIOEb/o4Svjs9AAqfdy99a+HqgXyDmHH34Uws/HTwSIIq3w8vT0/fefXo+vHkaANCK3wHzXXR8Ge7XtwAAAABJRU5ErkJggg==;" vertex="1" parent="1">
          <mxGeometry x="397.5" y="218.72" width="25" height="15.46" as="geometry" />
        </mxCell>
        <mxCell id="eZahiFkefNz_Pke4YgP0-10" value="" style="shape=image;verticalLabelPosition=bottom;labelBackgroundColor=default;verticalAlign=top;aspect=fixed;imageAspect=0;image=data:image/png,iVBORw0KGgoAAAANSUhEUgAAB4AAAASjBAMAAABtXDrwAAAAD1BMVEVHcExVVVVVVVVVVVVVVVWTl+BcAAAABHRSTlMAx24bVmhpmgAAIABJREFUeNrs3QtyGkkaRWFRsACsZgEyZgF6sABpyP2vaRwdEzEd7W7bgqSq/pvfWYFI1c2Tj0vx8AAAqM3b8euXL619fHk8vhkNoBSv37P7fz6Oz4YEqMLx0P7OowgDNez7Y3z/jLCRAVbP9mv7Fz5IGFg506H9O9+MD1A2v639YYSAFee3/QIJBlbLa/sljrKAqv7lYKDq/leCgRWz/b38tvZkrIDVcfrN/LoPBtbHS/tt/mO0gJVtgNsnsA0Gii6gLaKBygtoi2hgZWzbJ9kbM6DmAtoiGlgVU/s0zrGAsgL+DgUDZQXc2sW4AWUFTMFAYQFTMFBZwBQMFBawg2hgDZyvDfCHsQOWZtuuZm/0gIV5uT7AGtHA0hyuD7BjLGBhphvy6yYJWJjzLQF2jAXUXUF7vx1QeAVtDQ0UXkFbQwOVV9DW0EDhFbQ1NFB4BW0NDVReQetyAMuxvTm/+tDAYmxuD7A+NFB2C2wTDFTeArtIAgpvgW2CgcJbYDfBQOEtsE0wsBSnHgF2EwwsQ5f8OsUCFmHqE+B3IwkswKZPgFU5gCU49wmwUyxgCfqcYbVmJIEFODSnWEBVtp3yq4sFLMDUK8DvxhKYnU2vACtTAvOz6xVg90jA/Jx7Bdg9EjA/vW6R3CMBC3DoFuBngwnUDfCTwQRmpts1sItgYH4mAQYEWJMDWIBNvwBrcgBzs+sXYE0OYG7OAgzU5STAgADrUgILcBBgoC5NgIGydCxi+TYDMDeTAAMCLMDAAmwEGKjLToCBupwFGKjLSYCBuhwEGBBgAQYWoGliAWXZCjBQl0mAgbpsBBgQYF/oBxbgLMCAAAswsABdi1heKwvMS9cex7vxBOoGeG88gTnp2uPw64TAvEwCDAiwH/gGFqBrj8OXkYB52WlSAnXR4wAKcxJgQIAVsYAFUMQCCtMUsYCyKGIBhVHEAgRYEQtYAkUsoDCKWEBhFLGAwihiAQKsiAUsgSIWUBhFLKAuilhAYRSxAAFWxAKWwE8TAoVRxAIKo4gFFEaPAyjMQYABAdbjwGK8Hr9+53h8G/CzD1XEejseH78z5D86le3xy19OUR+/Dfbx38bpcbx+/ctq48vx2bOfEN+vP9yEjBXhYXocxx/2Co8iXJ7jP15mjhThQV6o8/qPW/2jBNTe+v7bAc5Ac/MQRawf11ljLrfCePnJk/g0yiCcBwjw9JOT9j/koCpff/osfhPglCLW60//5kdJKMn2Vw2kQabm/CLWy69mnWdpiHxwx0hw/At1XoquG3CzeL4JcP0ex6uvYIy7cBzgJCv9hTpT4b07blhWjXIWHf5Cnek3FxjOojOf2o9nQ1G5iLU91F07oMO/NX9tlV3E+v0j9vypergN8Bhrq+gX6rx84m+3DU7bAI+xDU7ucXzugM42uMoC2luerlyNVBurU+0NPPo8snujUbOItWmm6kA+feyafbyRW8TafvqjPUlH5BMbvTnKfaHOS/kzOHT5t0ZvjnKLWNd8MudY639gD+W3dstuKMoE+JrjdZfBkQJOVnBsEeu6pQUFJwo4WcGxRazr7rcpOFLAwQpOLWJdu7en4EQBBys4tYh17eei4EgB5/5fQ4tYV8/UFBwp4Nw6VmgR6/qtPQUnCjj3jj/0hTo3fCwKThRwbM0us4h1y+UYBScKOPUYK7SIddPRHAUnCjh0DZ3Z47jxP03BgQIOXUNvIgN847REwYECDv22aOYvm914tE7BiQLO/LdGFrFu3thTcKCAM6+CI4tYN2/sKThQwJnn0JE9jttnJQoOFHDkOfQhMcAd/tUUnCfgyHPoxCJWj6sxCs4TcGvvecOSWMTqcTBHwYECDrxIiixiddnXU3CegAO/1p9YxOozKVFwnoADN8GJL9TpNClRcJ6A8y6SEotYna62KThPwHmb4MQeR6+rbQqOE/D6fv52LQ/7mgLcbUFBwWkCztsEBxax+p3LUXCcgOPq0F17HO9h23oKjhNw3ClWYI+j47aegtMEnHaKldjj6LgroOA0AaedYiX+slnPT0TBYQJOO8UKLGJ1/UgUnCbgsAAHFrH6fiQKDhNwe48anMAX6nT9SBScJuCwY+jAIta5UTABj3IMHVjEOjUKJuDVF/bX+LSvY3HSecKm4CwBh30lOK+Ite39/6bgKAGHHUPnFbGm7v9wCo4ScFSAA4tY/QNMwVECjvo6Q2ARa9MomIBHuQgOLGLtGgUT8CgXwYFFrHOjYAIe5SI4sIh1ahRMwKMEOLCIdY8AU3CQgKOaHIFFrPv8zyk4RsBRAc7rcdwnwBScI+Cor/R3HaH9Kj7Sff7nFBwj4KgANwGm4NEEHFSGDixibRsFE/AoAQ7scdwrwBQcI+CgMvQmL8BTo2ACFuCyp/N3CzAFpwg4KMBnAabg4QQswGvucdwvwBQcIuCgAHctYl3SA0zBGQIOCnBgEeuOAabgDAEL8Jp7HPcMMAVHCDgnwH3vTPMDTMERAs4JcOIvm901wBScIOCcJlZgEet+TSwKThFwToADX6jz8NYomIAFuOzXpO9rYAoOEHDO1wkDexx3+zohBccIOCfAJwGm4PEE/CHA6y1i3euVOhScI+CcAAcWse4eYAquLuCg18oG9jju9FpZCs4RcE6AA1+oM0OAKbi4gHN+WmWKDPC5UTABV9jsrSzAa3msd42CCbjCZu9mEotYd/l5UQpOEnDOdxm6umo1Z/NTo2ACHiLAkUWsOQJMwZUFnFOFjixi3bsMTcHVBayItfKz+QMFE/AQPY7IItYMF8EUXFnAilhrP5ufI8AUXFbAK1LNqjaL6zna2zUKJuABroGn0ABvGgUT8AC3SJlFrFnukSi4roBzvs6f+EKd/nt7Cg4TcM4t0i51WA4UTMD530UKLWI9zPB9JAquK+CcM6zUHsdMp1gUXFPAfhhp/QGe5xSLgksKOOcMK/GXzf43lzcKJuD4HtZD7s7iRMEEHH+Gtc3dWZwpmIDjz7BSexzznWJRcD0B53wZOPSFOrNugim4nICDtsCxRaz5NsEUXE7AOVvgvhvFj+DPRsE5Ag66Bc4tYj3MdhNMwdUE/BE0aKfglcl8MzoFl/p3BW2BU1+oM+8mmIJLCTjoEim4iNX9hI6CUwQcdImU3ON4mPEiiYIrCThpBT1FB3i+NTQFFxLwXoCrLE02FEzAwd9Eii5izbuGpuAyAr4kjdsu/HrtTMEEnNviyO5x9N8iUHCAgD+iBu4UHuCHAwUTcOwRVnYRa+ZjLAouIeCWNc9GF7FmPsai4AoCvmSNXP7i5EzBBBwr4Owi1p+8UTABZ7awHuKLWP23+RRcXMBPAlxtdTJRMAGHCji9iEXBBBwt4PgiFgUTcLKA44tYFEzAyQLOL2JRMAEHCzi/iEXBBBws4PwiFgUTcLCAByhiUTAB5wp4O8r4UDABJwp4GmaCo2ACfhLgkj0OCibgUAFH/7IZBRNwuoDHKGJRMAGHCniQIhYFE3CmgEfpcVAwAUcKuG+P4zLSbEXBBJwW4P3KPywFE3DaDNhGCjAFE7AAVx4jCibgLEZ4oQ4FE3CqgMd4oQ4FE3CogEcqYlEwAedxHm2Wo2ACTuI03ChRMAELcM0eBwUTcBpdJ8H38eYsCibgnADvS3xkCibgnFlwxHmOggk4hWnEcaJgAhbgmkUsCibgKEYrYlEwAUexG62IRcEEnMR5zJmOggk4g9OgI0XBBCzAJYtYFEzAQQxYxKJgAs6h61DtC31wCibghJlw3LmOggm4PtO4Y0XBBCzANYtYFEzAIYxZxKJgAg5h0CIWBRNwBueRZzsKJuDqnIYeLQomYAEuWcSiYAKOoOtkuB97/qJgAp6dNnaAKZiAa8+Go893FEzAlRm5x0HBBFyezegBpmACFuCiPQ4KJuDq7IYPMAUTcOHhPJvxKJiA6zJ2j4OCCbg4BwGmYAIW4KI9Dgom4NoD2gSYgglYgGvPeRRMwNxTs8dBwQRcmJFfqEPBBCzA9XscFEzAddHjoGAC9tzWDzAFE/DwAb4YCQom4FnpOqbvlUeCggm4IHocFEzAhQfVsFEwAXtoI+Y9CibgsQP8bDAomIDnRBGLggm4MDtFLAom4LooYlEwAXtiUwJMwQQ8cIAvxoOCCXhWFLEomIALo4hFwQRceGANHQUTsMc1aO6jYAIeNcDPhoSCCXhOvFCHggm4MIpYFEzAhVHEomAC9qxmBZiCCbgKehwUTMACnNPjoGACroQiFgUTcOHBNXwUTMAe1KAeBwUTcB02AkzBBCzAST0OCibgMpwFmIIJWIADB5CCCXiwp/QSNTQUTMDrRxGLgglYgNN6HBRMwDUmSFMgBRMwyWQOIQUT8FCPaNxDSMEEvG78shkFE7AAB/Y4KJiAC6DHQcEEzDC5g0jBBDzM83kJHCAKJuA1o4hFwQRcmK6juE8cIQom4BVPkqZBCiZgekkeRgom4EEezufMQaJgAl4rilgUTMCF2SliUTAB10URi4IJmFvSB5KCCXiAJ/MSO0wUTMDrRBGLggm4MIpYFEzAhSdKUyEFEzCx5A8lBRNw/GP5nDxUFEzA68MLdSiYgAujiEXBBFwYRSwKJmBWSe9xUDABr5ODAFMwAQtweo+Dggl4lShiUTABF54sTYcUTMCUMkCPg4IJeH14oQ4FE7AAD9HjoGACXh1nAaZgAhbgcSZECibgVJ9cDNnwCibgeek63O9DDBkFE3BogPdWLaMrmIBnHm8jSsEE7Fkca0qkYAKODPCzURtcwQQ8M4pYFEzAhdnpcVAwAddFj4OCCdiDOFyAKZiA8wJ8MXBDK5iA50cRi4IJuDBdR3Vv7TKyggl4gTE3qhRMwJ7CEadFCibgsAD/l707PG7rxqIAbFos4M2EBfiHCkAmLICy2H9Nm2Q3omRZdmb9CODgfqcBeu7DxSdSx1Qzu8IEA3hAFLEQDODgKGIhGMDBUcRCMIAdwaILjGAAr7TAz8ZXlmAAj8muY9/KjQ/BAB4bRSwEAzg3ilgIBrDzV/hqRDCAB0aPA8EAtsA1exwIBvDoKGIhGMDBUcRCMIAdvqo9DgQDeGxOFhjBALbAVXscCAbw0LtTEQvBALbAxadbm2AAr3LyWtk5ViYYwAOjiIVgAFvgyj2O6gQDeGT0OBAMYHCYb1mCAbzOsXuuPMmqBAN4aHa9Pi/uwnIEA3hs9DgQDODc6HEgGMDUMOGqBAN4pTPXik+zHsEAHhxFLAQDODhHRSwEAzg3ilgIBjAyzLgkwQBe68A9m2ctggE8PIpYCAZwcBSxEAzg3ChiIRjAvDDligQDeLXT1gy0EMEAniCKWAgGcHAUsRAM4OAoYiEYwLAw53IEA3i9o3YxzzoEA3iK7HqNbuZZhmAAzxFFLAQDODeKWAgGMCn0OKoRDOA5crDACAawBdbjqEUwgCfJ2QIjGMAW2F1ZimAAL8mEL9QpQjCAp8muT+JinjUIBvCaC7yZZwmCATxN9u1xWOAaBAN40SPmtixBMIBXXeBmoBUIBvA88YU6CAawBdbjKEQwgCeKHgeCAex8WeA6BAN42QVWxCpAMICniiIWggEcHD0OBAM4N75QB8EAdrgscBWCAbzyAjcDXZ1gAM8VRSwEAzg4R0UsBAM4N4pYCAawk2WBaxAM4KUXWBFrcYIBPF0UsRAM4OAoYiEYwLlRxEIwgB0rC1yBYACvvsDNQFcmGMDzxRfqIBjAwVHEQjCAg6OIhWAAO1N6HOsTDOAZc7LACAawBdbjWJ1gAE8ZRSwEAzg3fxg8ggHsQOlxLE4wgOfMwQIjGMAWWI9jbYIBPGnOFhjBALbARr80wQAucZr0OFYlGMCzZteb9WKeaxIM4BoLvJnnmgQDeNb4Qh0EAxgGhr80wQAucpSaga5IMIDnjb9shmAAB+eox4FgAOdGjwPBACaB8a9LMIDLnCNFrBUJBvDMUcRCMICDs+v8N/Ncj2AAzxxFLAQDGAMewLIEA7jQIWoGuhrBAJ47ilgIBnBwFLEQDODgKGIhGMAM8AjWJBjApU6QItZqBAN49ihiIRjAwVHEQjCAc6OIhWAAA8BDWJJgABc7Pua5FMEAnj/+shmCARwcRSwEAzg4ilgIBrDbX49jPYIBnJCTBUYwgC2wHsdqBAM4Ifv2OCzwQgQDuN4Cu0jXIRjABa/+ZqDLEAzgiPhCHQQD2ALrcaxGMIAzcrbACAawY+MqXYtgAFdcYD2OVQgGcEp2fVAX81yEYACXXODNPNcgGMAp0eNAMICdGQu8FMEALrrAzUCXIBjAMVHEQjCAg3PU40AwgHNz9jQQDGAHxgKvQzCAqy6wItYKBAM4KYpYCAZwcHZ9Hpt5LkAwgIOiiFWa4O+9/gHAZU+LBQ4jeBv78s7LZAvcDDSe4M8ATooiVm2CvwA4O4pYtQn+et8PRQB87yhi1Sb43W+SDgCue1QscB7B27C7w2mZboEVsfII/jrs6gDwHjnd8zaXAIK/3O8tFYDvH0Ws6gT/dr8LHcB3jyJWeYKfxrwsgCc8J81AAwluQz6DdtnvkoMFLk/wZcS1AeAJF1iPI5Lgr/d6RwXg+0cRC8GvfnA6ADgsilgIfvXLgzOAKx8SPY5Mgm/P7QTgsOz6xC7mGUnwU/e3wACecoE388wkuHV+CwzgvfJwtcAIfnlwZwCXXmDPJZTg575vgQE86QlpBppJ8D8bBeC0+EIdBN+u3s8ALr3AehyxBH/p+RkWgPeLHgeCb59inQFc+oL3ZGIJfu74WgCe9XgoYsUS/LXfZ1iu+T2jiIXgl88fPwM4LnocCH75GPozgNOix4Hg27M7Arj27e7Z5BJ86fQhNIAnPhvNQGMJfu70Oi75XaOIheCbjCcAp2XXdz2KWMEEP33q8lskAO8bRSwEv/z49ADg2le7p5NMcOtxTQB45oOhiJVM8JcOL+KK3zuKWAh+WeADgOOiiIXgl6d3BHBaFLEQfPv56Qzg2ve655NM8PPdFxjAk5+KZqDBBD/f/RVc8LtHEQvBNx8fAZwWRSwE3/brBOC0KGIh+Hb/ngBc+lL3hKIJvvcCA3j2I3Exz2SC77zArvd7ZNdHtplnMsFPnwAcF0UsBN9+iQDgtChiIbjTAjsc89/ozUCjCf4E4LQcLDCCLbAF1uOwwH6EHpCzBfYjtA+xLLBH5EMsBKefB1+okw2wIkdedn1iF/OMBliVsvgCb+aZDLD/zJAXPQ4A91tgB2TyG93ziQbYf+ivfiKagSYDfP8FdsXvHV+oA+DXC3y+IrjuAutxZAPc4VspEbxz9DgA/HqBj1cE173TPZxsgK8Xf1ql9JlQxMoG+Lr542ZpUcQC8Gsd/XnRsOx8gUsywH/ulj/wnRVFLAC//T3+FcF1b3VPJhvg697vqRCcdSqagUYD/NTnZVz0+0URC8BvaTxfERyU494XuOQC/PevAQ9XBAdFEQvAb3+L0OWFnJQp73WPJRvgv2F8uCK46rlQxMoG+L8fQp4QHBRFLAB/8xnGI4KDoogF4LcsPpyvCI6JIhaAv30L1OVjaIdlxpvdM4kG+H8/QXV6MQTPdzKagSYD/M8FfEVwTHyhDoDfFekeERwTRSwAv9uoM4JjoogF4He/xu/0KZbzMtvdrscRDfDLbwEfrghOyckCA/jdZ5AnBJdc4M08kwF+us8bKwTfM4pYAH7/A1SvN8EI/tX84T4F8Pv7t9ubYEdmqtu9GWgwwNcRlwaCfy0HCwzg7+zSAcEFF1iPIxrg159g9PsZGsG/lLMFBvD3fn56RHC9BXaZJgP89un9juB697seRzLA25vX7fczNIJ/Jbv2OC7mmQvwt59APiK43AJv5pkL8Nd7fryJ4DvFF+oA+IPbt+PP0Aie5IBY4FyA3/8O/4zgagvcDDQW4OeRL47g/zf+shmAP0TwEcHT56jHAeCPDDwgeProcQD4418gnBBc6ohY4FiAnzq8wXJ2Zl9gRay1AP70gODZo4gF4L8Abt//J/yO4MnT4RqX+QH+7YN/AoInjyIWgH8AMIJrHRILvBjACK61wM1AFwMYwZNHEQvAPwIYwZNHEQvAPwQYwXNHEQvAPwQYwYWOiQVeEGAE11lgRawFAUbw1Nn12WzmuSDACJ45ilgA/uk/BsHTRhELwO3n/xwE1zgoFnhJgBE8b/Q4APxv/kEIrrDAehyLAozgaaOIBeB/FQTPGUUsACPYUdHjWBxgBE+akwUGMIItsB7H4gAjeMrs2+OwwOsCjOACC2zsCwOM4PUPSzPQdQFG8IxRxAIwgi2wHkcBgBE8YfQ4AIxg172ZVwAYwYsfFz2OxQFG8HTZ9Ua9mOfaACN4uuhxABjBudHjADCCXfgGXgVgBK98YJqBrg4wgueKIhaAERycoyIWgBGcG0UsACPYlW/adQBG8LJHRhGrBMAIniiKWABGcHAUsQCM4NwoYgEYwS59o64FMILXPDTNQGsAjOBZoogFYAQHRxELwAgOjiIWgBHs2jfnagAjeMFjo4hVCGAET5Fdb9HNPOsAjOApoogFYATnRhELwAh28etxVAQYweNzsMAARrAF1uOoCDCCh0cRC8AIDo4iFoAR7OrX46gJMIJHZ9fxX8yzGsAIXmmBN/OsBjCCx2bfHocFrgcwghdaYBdkPYARvNDl3wy0HsAIHhlfqANgBFtgPY7CACN4YPQ4AIxgp8cCVwYYwYsssCJWTYARPC6KWABGcHD0OACM4NzocQAYwc6PBS4OMIKXWOBmoFUBRvCYKGIBGMHBOSpiARjBuVHEAjCCnSALDGAExy+wIlZlgBE8IopYAEZwcBSxAIzg3ChiARjBzpAFBjCC8xe4GWhtgBHcO75QB8AIDo4iFoARHBxFLAAj2CnS4wAwgkfkZIEBjGALrMcBYAQPiCIWgBGcG0UsACPYOdLjADCCR+RggQGMYAusxwFgBA/I2QIDGMEW2CgBjOD0k6THAWAE982uF+XFagIYwbkLvFlNACO46z3pJgQwgllggQGM4Piz1CwngBHcM/6yGYARHJyjHgeAEZwbPQ4AI5gGFhjACI4/TYpYAEZw3yhiARjBwdl1hJv1BDCCu96Q7kAAI5gHFhjACI4/T82CAhjBPaOIBWAEB0cRC8AIDo4iFoARTAQLDGAEx58oRSwAI7hvFLEAjODgKGIBGMG5UcQCMIKZYIEBjOAR0eMAMIItsB4HgBE8IopYAEZwcBSxAIxgKuhxAPhnQfD0U7XAAEZw8AJv1hTACO760YIiFoARbIH1OACM4HgXmj0FMIJ7RhELwAi2wHocAEbwiJwtMIAR7GApYgEYwekLrMcBYAQHz/NiUwGM4NwF3qwqgBHcM3ocAEawo2WBAYzg/AVudhXACO4ZRSwAIzg4Rz0OACM4N2fTAjCCHS4LDGAEpy+wIhaAERw8yYttBTCCu2bXWW3WFcAI7hlFLAAj2PGywABGcP4CN/sKYAT3jCIWgBEcHEUsACM4OIpYAEawA2aBAYzg+AVWxAIwgoNnuNlYACO4axSxAIzg3ChiARjBjpgeB4ARPCIHCwxgBFtgPQ4AI3hAFLEAjODgz7AUsQCMYIdMjwPACI6//ywwgBEcPL3N1gIYwV3fAytiARjBFlgRC8AIjj9mzd4CGME94wt1AIxgC6zHAWAEj4geB4ARDAoLPA7gbYV5IXiGg6bHMQLgJQaG4Bluvst/2rvXg0aOIIrClkQAgCcAISsAsSgACfLPyfvTb7OL1NW35jsRwHRVn66ey6BzCZiCh6KWCJiCc5HjIGAKpgoNTMAUnF9qJ71LwBQ8EkEsAqbgYB5UEwFTcC6CWARMwWShgQmYguOLTRCLgCk4eM+76F4CpuChqCcCpuBcBLEIeKp6pOBKXWhgfwdMwcHldtK/BGwKHokglgmYgoMRxCJgCg5GEIuAKZgwNDABU3B8wV0ImIApOHe3e1x9AxMwBY9FTREwBeciiEXAFEwZchwETMEVbDQwAVOwBpbjIGAKLuCsqgiYgjWwHAcBU3C6NFb+QR0CpuDsx3QhYAKm4NwGflx1AxMwBQ9np64ImILfVZ0gFgFTcHoDnwiYgCl4JD6oQ8AUHKxgQSwCpuBgBctxEDAFByv4qIEJmIJzi1cQi4ApOFjBglgETMHBCuYGAqbgXAX7oA4BU3CwggWxCJiCg+tXEIuAKThYwYJYBEzBwQp+YAcCXpVkmilYEIuAKThYwYJYBEzBwSUsiEXAFBysYEEsAqbgYAXzAwFTcK6CBbEImIKDFSyIRcAUHFzFglgETMHBCvZBHQKm4GAFC2IRMAUHK1gQi4ApOFjBchwETMHBJlo0MAFTcK6CFyVGwBScq2COIGAKzlWwIBYBU3CwguU4CJiCg2XkgzoETMHBChbEImAKDlbwWQMTMAXnKlgQi4ApOFjBglgETMHBPrrphnYhYAKm4NzHsa4yI2AKLkeOg4ApOLigfVCHgCk4WMGCWARMwcFKEsQiYAoOVvCDQiNgCs5VsBwHAVNwcE0fNTABx7Gj4LvU4YqCWCMFfNKxFDxkmrgQMAGbgoei1EzAFJyrYEEsAqbg4LIWxCJgCg5WsCAWAVNwsJgEsQiYgoMVLIhFwBQcrGBBLAKm4ODKFsQiYAoOVrAgFgFTcLCbBLEImIKDFazcCJiCcxUsiEXAFBxc3IJYBEzBwQqW4yBgCg7Wk/9sRsAUHKxgQSwCpuBgBQtiETAFB9e3HAcBU3CwghcNTMAUnKvghTIImIJjFbxTcgRMwbkKFsQiYAoOLnEf1CFgCg5WsCAWAVNwsIIFsQiYgoMVLMdBwBQcrOCjBiZgCs6tckEsAqbgYAXf9Pe+EDABU3BuAzfXBgFT8GwKluMgYAoOVrAP6hBwE3arVLAg1pQCPulHCi74pQmYgCl4KA8mNwLuwusKFSyINaGAf9WLLqIryrJzA7uCNgXPWOuCWCZgU3Dwha0g1idLwwRMwTPOOdQx3f0IAUfGUbCIAAAIp0lEQVRMwXMMOoJYCsNGG1ztgljTXWG5gg7Zad/7FWbf4e1IwKbgGctdEGu2KywTcMxF9AxLJYg12bbuCjpnrWY4QwtiTXaCJuCgKfjUrDLbNvC4E7QJOOki+rFZA7cNYo07lbmCTlLwe7Pfte3x70jA9ts5z9Dmt+FPyQTcR8H7XsPdvmk9bAnYFDzn0CjH8RnOo+rBBBym4PIdd6OBlYMpOLfk/Wez4XOGCXjEki0rWTJBrIm2cyGsvDUrHoJ3glgTjcAEnDf2VEtLjkMtuIgOHoIXDTzNCOwKOnHb3Tf6LZseAbcEbAr+Vy6N5NK0gR/GVIIJOFLBH40aeN+zEI4EbAqedN0EsabZyU3AN7fTmIVrNCc0LQTvgE3Bs547BbFmucMyAaeenUpXTo5jkn3cBBw7BZfeYh018ByX0CbgWAW/t2ngpjmOIwE7Pc3awDfdoS4a2AS8wovoNhesTavQFTQFz/r2VI5j9DMi4H5TcGHd+89mo5+RCbifgts08EkDE/AKp+DHLtuTLdwEvMb1K7y8fXAQHPuMCLjhFFz4+lQQa/AzMgE3VHBh4QtiDX5GBNxwCu7SwIJYJuBVKrjwCCWIVT9CEXD6EhY2sEpc8+pTcPrrF0Gs0ZscAXecgst+MUGs8gY2ATdQ8KlHA/csxR0Bm4NmrXwf1KluYBNwBwWXnT0FsUafUgi44xRc1sCCWMUNbAJuoeCyBpbjKG5gAm4xBe9b/FIa2NQxMa8aeJ02uWcD+xRlDwWXNbDjYGkDE3CTKbiqgQWxahvYBNxEwfsWtXnSwAS8zim4qoE3GriygU3AXRR86tDAXX2yI2BT8KQNfFaP/8+bCZiC19DATYNYdzMwAfeZgqt+H0Gsz2ACpuBJG/imv85FAxPwOqfga4sGbjvSLSZgizllA8txrG/NTcF3oOr6xwd1xt8UmIAbbsc9GvikgQl4nVPwR4vfpe2Sn03AFDzl/e0Dpwx/TATccAqu2o7lOKoOXSbgVgquuv45auDxVwUE3G9DbtHAHxrYBBzB7T9Q2eIscem74DcX8EkXdVJw2YGKVWqGJgLutaBV06MgVsWoYQJup+Cq6VEQ65Mb3ZmATcETTo+CWJ/kwQRMwRO6SxCrZKcj4G5TcFUDC2JVNLAJuJuCy1ZUEOuzELApeMLSF8QqeFIm4HYK/mjRwB+dV/tMwKbg+ZZUEGv8dm0CnoXb/VFS1R2WIFbBLZY/Q2qn4LI9WRBrRYuNux2rym5/BLHGXxeYgPvtypceDdx7rc8EbAqeTV3+s9nwzc4E3FDBp6ofXxBr9H0BATecgusCEIJYo4dgE/Bk2/KSPALLcYw+rghhdVRw2Qh82xxH9wbeEjAFTzYW3bSB2xfnQsANeQ02121zHO0b+Os3Bq6gO+7L+yYNvO++0tvgsxbuNgVfgytyLR/UudG4ZALuqOCP3L1nTUGsG5yhCbjlFLxv0sArKM+tCZiCZ6r7swZeyUrjbiKrfHvqgzojdzwTcMvLjX2XBv5YwUp/5QztHXBLBZd6ywd1Bm55BNxyNnps08CrKNCNCbglr5HLKscxcM9zBd1yXUuX1Qd1xm3VBNzyaFV7sSGI9ROnlsWAYV0nubkVxPoJzoE7Ne51tKpdVh/UGXZxYAJuqeDiV6c+qDPqqRFwyym4elkFsUZt1SbgAI5x5ypBrEHT0rvuCGAbNzUKYg16bnvd0VHB5cvqgzpjtuoPvdFxOCo/Vwlijdmq3WCl8C1rWQWxxmzVDtAtd+b6ZRXEGrJVu8FquTNPsKyCWCO2agfoltcb7xMsqyDWF7bqowN0Sz75jvA6w7IKYn1lq/7kYUuGsmUHT7EtC2Ld/7Clf1tOR7/90q6B1/eu8zMXWe87DdGwg+foXx/UuXsHu4CO5CWjfwWx7t3Bz3qhYwfP0r+CWHfuYP3bcWGv01S6HMcNnuEy/0aNn7Hbcf5deaOBb7DQrxO/6MfPr+sv3/5pb77OtCv7z2b3k/D3hdbA2Zx2h7+u7NNchypBrFsNTH9d6OtB97bQ8LenPyzq82wzkSDW7Vr4ZfnjPq19Gy3t4fDycjgc3ub70eQ4bsnb90V+fj4cXF1hED6oA2hgn10EKiZ0QSxAA/urV6AAQSwgGB/UATSwHAdQgRwHEIwP6gAaWBALqEAQCwhGjgPIRY4DCMZ/NgM0sCAWUIEgFhCMD+oAwQhiAcEIYgEaWBALqEAQCwhGEAvIRRALCEYQC9DAglhABYJYQDCCWEAwglhAMIJYQDByHIAGluMAKhDEAnIRxAKCkeMANLAGBirwn82AYASxgGAEsQAN7IM6QAVHQSxAA8txABoYwI+wCGIBGliOA0hvYI8TyG1gOQ4guIHlOAANDKCigQWxgOAGvnicQG4DP3qcQG4D7z1OQAMDKGjgk8cJjOUoiAVoYEEsILuB5TiAwezOGhjI5SyIBeTyIIgF5LIRxAI0sBwHUMBWAwMaWBALqECOAwhm0cBALkc5DkADy3EABZy9BgZy2XiLBOSy1cBALjt/zg8Es7iEBnI5amAglxtdQ188SaCAjTssIJetP2UAgpGEBoI5usMCcjkLUgIrH4L3niNQwk4OCwhmMQIDqx6CjcBA8BBsBAZyh2BvgYE6vvwm2Od0gDo2RmBgxWdojxDIPUN7iQRU8uoEDeTy5k8JgbWeod1BA7VspDiAXHZSHEAwZydoIJetKywgmKOXwEAuG1dYQDALAQO5vEphAbnsFu+QgJUpmICBXAUTMDALG1fQQDCLK2ggl60QFhDMDyaif/XEgIn4sXusKwEDuYfovecFzMXRARpYQwe7gQYmPEQvBmCg+xh8NQADU/LqAgsI5pv+BTo7+DfPCIh1sP4Fpua/7qLdPwOzs/vX98HP+hcIOEb/o4Svjs9AAqfdy99a+HqgXyDmHH34Uws/HTwSIIq3w8vT0/fefXo+vHkaANCK3wHzXXR8Ge7XtwAAAABJRU5ErkJggg==;" vertex="1" parent="1">
          <mxGeometry x="558" y="220" width="25" height="15.46" as="geometry" />
        </mxCell>
        <mxCell id="eZahiFkefNz_Pke4YgP0-11" value="&lt;font style=&quot;font-size: 7px;&quot;&gt;Store Procedure&lt;/font&gt;" style="text;html=1;align=center;verticalAlign=middle;whiteSpace=wrap;rounded=0;" vertex="1" parent="1">
          <mxGeometry x="380" y="197.2" width="60" height="30" as="geometry" />
        </mxCell>
        <mxCell id="eZahiFkefNz_Pke4YgP0-12" value="&lt;font style=&quot;font-size: 7px;&quot;&gt;Store Procedure&lt;/font&gt;" style="text;html=1;align=center;verticalAlign=middle;whiteSpace=wrap;rounded=0;" vertex="1" parent="1">
          <mxGeometry x="540.5" y="199.21" width="60" height="30" as="geometry" />
        </mxCell>
        <mxCell id="eZahiFkefNz_Pke4YgP0-13" value="" style="shape=flexArrow;endArrow=classic;html=1;rounded=0;fillColor=#b1ddf0;strokeColor=#10739e;" edge="1" parent="1">
          <mxGeometry width="50" height="50" relative="1" as="geometry">
            <mxPoint x="840" y="340" as="sourcePoint" />
            <mxPoint x="890" y="340" as="targetPoint" />
          </mxGeometry>
        </mxCell>
        <mxCell id="eZahiFkefNz_Pke4YgP0-14" value="&lt;font style=&quot;font-size: 20px;&quot;&gt;&lt;b&gt;High Level Architecture&lt;/b&gt;&lt;/font&gt;" style="text;html=1;align=center;verticalAlign=middle;whiteSpace=wrap;rounded=0;" vertex="1" parent="1">
          <mxGeometry x="405" y="60" width="330" height="30" as="geometry" />
        </mxCell>
      </root>
    </mxGraphModel>
  </diagram>
</mxfile>
